<mxfile host="app.diagrams.net" modified="2023-03-31T16:09:03.922Z" agent="Mozilla/5.0 (Macintosh; Intel Mac OS X 10_15_7) AppleWebKit/537.36 (KHTML, like Gecko) Chrome/111.0.0.0 Safari/537.36" etag="mDrE5zfvIDh1XJOLAcjg" version="21.1.2" type="github">
  <diagram name="Page-1" id="W9pEZL88oWx4nwDgCW1f">
    <mxGraphModel dx="3585" dy="2008" grid="1" gridSize="10" guides="1" tooltips="1" connect="1" arrows="1" fold="1" page="1" pageScale="1" pageWidth="1654" pageHeight="1169" math="0" shadow="0">
      <root>
        <mxCell id="0" />
        <mxCell id="1" parent="0" />
        <mxCell id="lP1FfKmS7V5iOzCVWeoo-2" value="" style="shape=image;verticalLabelPosition=bottom;labelBackgroundColor=default;verticalAlign=top;aspect=fixed;imageAspect=0;image=data:image/png,iVBORw0KGgoAAAANSUhEUgAAAXAAAAJ3CAYAAACN9AoaAAABR2lDQ1BJQ0MgUHJvZmlsZQAAKJFjYGASSSwoyGFhYGDIzSspCnJ3UoiIjFJgf87AzCDPwMVgwmCUmFxc4BgQ4ANUwgCjUcG3awyMIPqyLsisN/9m2HzUyJa3nngi9YWddiamehTAlZJanAyk/wBxWnJBUQkDA2MKkK1cXlIAYncA2SJFQEcB2XNA7HQIewOInQRhHwGrCQlyBrJvANkCyRmJQDMYXwDZOklI4ulIbKi9IMDj4urjoxBsZGJo6kHAuaSDktSKEhDtnF9QWZSZnlGi4AgMpVQFz7xkPR0FIwMjYwYGUJhDVH8OAoclo9g+hFj+EgYGi28MDMwTEWJJUxgYtrcxMEjcQoipzGNg4G9hYNh2qCCxKBHuAMZvLMVpxkYQNo89AwPr3f//P2swMLBPZGD4O/H//9+L////uxho/m0GhgOVAHeWYP7J/sz0AAAAYmVYSWZNTQAqAAAACAACARIAAwAAAAEAAQAAh2kABAAAAAEAAAAmAAAAAAADkoYABwAAABIAAABQoAIABAAAAAEAAAFwoAMABAAAAAEAAAJ3AAAAAEFTQ0lJAAAAU2NyZWVuc2hvdAcLFawAAAI9aVRYdFhNTDpjb20uYWRvYmUueG1wAAAAAAA8eDp4bXBtZXRhIHhtbG5zOng9ImFkb2JlOm5zOm1ldGEvIiB4OnhtcHRrPSJYTVAgQ29yZSA2LjAuMCI+CiAgIDxyZGY6UkRGIHhtbG5zOnJkZj0iaHR0cDovL3d3dy53My5vcmcvMTk5OS8wMi8yMi1yZGYtc3ludGF4LW5zIyI+CiAgICAgIDxyZGY6RGVzY3JpcHRpb24gcmRmOmFib3V0PSIiCiAgICAgICAgICAgIHhtbG5zOmV4aWY9Imh0dHA6Ly9ucy5hZG9iZS5jb20vZXhpZi8xLjAvIgogICAgICAgICAgICB4bWxuczp0aWZmPSJodHRwOi8vbnMuYWRvYmUuY29tL3RpZmYvMS4wLyI+CiAgICAgICAgIDxleGlmOlBpeGVsWURpbWVuc2lvbj42MzE8L2V4aWY6UGl4ZWxZRGltZW5zaW9uPgogICAgICAgICA8ZXhpZjpVc2VyQ29tbWVudD5TY3JlZW5zaG90PC9leGlmOlVzZXJDb21tZW50PgogICAgICAgICA8ZXhpZjpQaXhlbFhEaW1lbnNpb24+MzY4PC9leGlmOlBpeGVsWERpbWVuc2lvbj4KICAgICAgICAgPHRpZmY6T3JpZW50YXRpb24+MTwvdGlmZjpPcmllbnRhdGlvbj4KICAgICAgPC9yZGY6RGVzY3JpcHRpb24+CiAgIDwvcmRmOlJERj4KPC94OnhtcG1ldGE+ClIWMzsAAEAASURBVHgB7J0HfBVV+v7fEELohN4FgiYgSFmKEQQUWGB/KoJ/sK26YnctKLZdsSCKZQUsi+sugmUFXAULgiIsq4IiKEgNLTQhQOiQEEJP/vOccC5zJzfJveTmljPPyydMO3PmnO+Z+8yZ95SJ6ZKSkic0EiABEiCBqCNQJupSzASTAAmQAAkoAhRw3ggkQAIkEKUEKOBRWnBMNgmQAAlQwHkPkAAJkECUEqCAR2nBMdkkQAIkQAHnPUACJEACUUqAAh6lBcdkkwAJkAAFnPcACZAACUQpAQp4lBYck00CJEACFHDeAyRAAiQQpQQo4FFacEw2CZAACVDAeQ+QAAmQQJQSoIBHacEx2SRAAiRAAec9QAIkQAJRSoACHqUFx2STAAmQAAWc9wAJkAAJRCkBCniUFhyTTQIkQAIUcN4DJEACJBClBCjgUVpwTDYJkAAJUMB5D5AACZBAlBKggEdpwTHZJEACJEAB5z1AAiRAAlFKgAIepQXHZJMACZAABZz3AAmQAAlEKQEKeJQWHJNNAiRAAhRw3gMkQAIkEKUEKOBRWnBMNgmQAAlQwHkPkAAJkECUEqCAR2nBMdkkQAIkQAHnPUACJEACUUqAAh5Awe3du1eyjxwJ4AwGJQESIIHSI1C29KI2K+YjlnBv2LRJKleuLG1atw5K5k6eOiWLlywpNK4O7dtLfHx8ocd5wGwCxd0fztw3T0yUunXqOHdz22ACrIH7Wbi79+xRIbOzs+Ww9RcMKxsbK20vukjOt354viwvL8/XbiP2nT59Wnbs3CknTpwwIj+lkQncHxe1aiXNmjQpNPpYK0xT63irCy+UGtWrFxqOB8wkQAH3o1whNrt27/aE3LVrl2e9JCsxMTFSqVIlqWPVmqpVrVqSqKLu3I2bN8vWbdvk2PHjUZf2UCUY90eVKlWkfv360uS883xeFvsbWMdx/8TFxfkMw53mEqCA+1G2+/bt8wq119o+efKk176SbpR10Y8vw3oA7t+/v6TIXHV+ZetB78sqVqzoazf3uYQABdyPgobgOE27VJz7uV00gcOHD8uW334rOhCPFiRg1cZ9GdwsNPcSoIAXU/YQnJyjRwuEgqib7KMukOEg7MjJyZE169YFISZGQQIkAALshVLMfVBYTRsulAMHDkjNmjWLicH7cG5urhyxhAy9WspbPUyqWL7L2DLFP0eLc9lo/6evcPqYPSVIBwQVaYFVqFBBqlg9bOB3tdspq6eMrwcVGs/KnEn3cashMjMzU6yAUr58eeW3dcaD/KauWSNoT7Ab0qvTXLZs/u2IaxYwK11xZ46jdwau5TSkB+mCIX/Oa2E/0qWvg+MHDx1S+6onJHjyg3Dags3pkHW9CoUw0tcMxxKNybgXjlqVlXKWO6+i5bJBOp3l6CttOPfYsWNy3GrPOGUxxfnlrHu7kuXe0feIr/OwD/cWygCGMvDneiow/1MEKOBF3AgQkj1W3280JEHsnIKw06qFByLg+yy/b9qGDQWu2LhRI5+CpAPix7F0+XK96XPZrk0b9WPxFS6lc2fPDwk/mJ0ZGaoB0RkRHigXXHCBEnJ9bNmKFR6B1fuwPK9xY9XrIW3jRsXGfqyi9TBISkoSLGH4ga9YtcoexLO+Pi3Ns35hy5Yq7Earu6Yv65KSonYX1vUyoVo1QRwwNJD6cn3BZ4yeP3Dj2BumcU6nDh08DYGBclqVmipHrXJyGhoYGzZooMo9MyvLcziY3VE9kZ7DCu4tlCF6VzkND0N0TaxVSCUFDdDbt29XvxHnudjG+agY2C3Zur9011hce9Xq1Z77CxUN9LpBJYDmH4FYSzxG+BfUfaFQ+0aNCd24ypUrJ3Cn2A3ChK5bOFacpVs3utP3ixscQpFl/bBR83Fa/Xr1VG0R4dDLAI2nTsPDpfWZmx4/gNq1a6vaEH4c2Iag6R8EHkBr1q71/ODQA6Z927ZSt25dtQ81YTQuIk+61o5aEWpWiM9uSNM2K09g4DTUkFGb032SUYtF3HnW0lm7Rr6qWnlAbQ3XQn7wA9e1Mnvc6kFn7UB6UbPLcpQHzqtj5R+GRj/UtO2iif3wGR+xWPt6s0L4qlZ6zoUTHh7Im9PdBvY7rAemUyDBrZp1jhYzpK0oQxlgIJnT6lksdFk5jxW3jQoF3op0GeJB0zI5WZU/Ki64N/dbb5k47qwdo0Kz0npo2fN1kTU+IrFpU1XWeOPC+TjX/oey0+ndvmNH/pvbmYTiPkENPMG6D2j+ESj+3d2/eIwMhe6CEKrqlqBpMXJm1FmLcx7HNkZvQsDthvhQ47u4UyfRwmQ/bl/HTY0fu89w1o8ENWf96ol13TOhmfVjgjhqww/GLnqoRUO0cA4eFjCI12pL5E9YggtDXPXOHFM7zvx34OBBibceXC2smjZ+uPpHqcPgYacfSjh2wfnnq4eLPq6Xja004Bj+cC3wLk6U8Iqu06vjcS5xTdR+nYZa8h7rwexML8Lph9S5cEJN01ea8NCF2BV1PWcaQ7GNsrG/DSJ9uL9wP+Ah2qhhQ08y8LBzvs2sW7/e640U9zNccHiw+rpPcZ+oioZ1r2mz34t6HypMNP8JUMALYYWaG37suDFxU6ImhVqI03BzO2uVzjDb0tOduwTChXghWLjhURsuznwJBAYV2Wt9qPVANPBWULNGDU+UCIOBM3bDD04basDaUFs+aAm0Ngim0xC/GjxiXQPx+HrAwTd+rlbcW40vQXReC3x9hQMXjHJNbNbM6xS4w0rCyde1cAEMtOn4u99JrVq1vK6HikG4bPOWLV6XBhPw0gYRt9tvW7eKLk/cc87++/Zujig7Jwucg8qE/Rq+Bh45GdnTwPWCBM6WWMFjrt6z+8zAHf1KDhioGfoyvG4WZqjpOGsVyu3iEEXt5igsHuxH7QiDOpyGGqU2uGPwygqx17VyHHP2Zcc+xKfNvo59zjTrcHrpHDjiyxWgGyf1OZGyhJsJQoLyRK0Qg2HaWm0IeEAHmxPyjOuhLC5o3lzgA4ZLDoKuG2VDzQVvR07XkvP+QwOm0zIsVxBMv6nYj8fYxB/7nXlzuh8RBg99uJ60Yd1XRUAf57IggbO/4ILHXLsHwgP/IBqatDsCMOCbQ+0CAmk3NAo6BVMf93WzOxt2dFh/lvWsm17/kHR4vAXAHQJR0r5d+4MH4Xw1sNl9qro3io7zEHqVBGBlLIEqYNbbQCQaHj7aUCu0u5mCzQn3kBYziHggjd46jcFe2t/YdNzOB7hzG+Hg14b5OuYsf7wJ2s3Xwxy1dLTR6N+I8yFiP5/rvglQwH1w0TVqZ40bP0AINXo42A2CjkY3X6+EzldNnAe3ybkaxB8CZK9BwW8Nlwca4PDgQa8B5yvsUcsP6zRMzlWYIc7TVqOSP10cC4sjUvcXxT/YnHyJXbi5+BJwu2sD6XNuY5+eidPubsN+mOramb+q/tdtKHpXUZUWCremFPiSAu5ghpqDbrBBdzanWPuqSSAKNHj6EnBf4X39OBzJKHITjYp2AUdg1Lz1mwFa+p3m/IHheBurO12hI/msh5WJ4u3k4tw2lRN6i6BtBP54X/eks8Zsd79pRuqhbj3Y8RaKioz+neA4KjDYB0NNHWHtRt+2nUbw1ingDpYQRgghfICF1RrQq8BZs4bLATUb3ffZEa3XJrpLlcTgq0Ut0v4jwfXRUIR0210E+jp4jXf+cNGtr7wfjac6DjcsTeWERki4ydAzyVejtFOwnYKOssc9p99e8CDAW55uoEebCdbR+Kn36fsFwl5YX3IdhstzI0ABd3DT3QIxgAEuCV+GUYfoauc0NHziB2I3dNFzml14ncf82UYNHj8KdHezG+KtZ/nCfVkFq5eJ89UZP2hnbwNf57ppn4mcUClBlz3t6/dVMXFWKpzbuAfsPU0g+OhqiH16egT7/QjfP1wtaMDV1y3sPtL3pT+Vn8LicOt+Crit5DFYAsPj8YpYmHgjOPpkQ5idtXC8UuKmtvuf43205utGG9ulA17FFLT2H4yOoLajq5re76tXARox0ervrH3hx4vavK+avI7P1KVpnFCW2g1YyRJVmL1hXpejsysshsQ7DaJsN7QV6bjRFRb3HioX+P34Y3jTRV903R8cQp9k9dLx93x/rmF6GHYjtJWwrn3787rna3ALotK9QHS0qKHYBR374e6w/2DwIztiCabTfNWCdBg8QJz90tHzpLBGM199jiHSOs86XjRcrrOGt6+2RujhgVbadvJMjx50f8Rwe83F12u+3QXky1eNtPtjvtwD+rxgc4KbKijm6NXhT5y4fzBVgR4tWenMsHb023eOdnSW9THLHeg07ePGftw3aCNCmeD+hoCjMTIQ8cUDQIs34sS67kCAbVrxBFgDP8MIN7Ae6OKsafjCWNjAG/j/UKvVog2fIbr4bbI+YKANrg7UntH/GGKC3iDO2jzComHIV21Jx4PGSvuQc1+NlzosfrT4AdobnnAMw/vRRxc/aPRZxw8IP0p8JUj37fbVtU43mOr49SAPvY2lc5+vHzdqcMg7umLiYacfQHjNt+cN8W2yBp80tPrB49q65of92iBUuCZGiMLA2S76Ohz2+UoLjpeEk1MEEZ+vfdgfqOkeIM7zIHq+7hHsT7fuRXtjN9xD2jDk3T5vDnov4X7UDex4uNsNPm/NDPzsA4GwjZGZKDO8zek/3PtIG1wpulztcWI0r9PQD98+CtR5nNveBFw/FwoEFDfSeutVTvum0QVKC7Beamz4QcJ3DCHUQ8X1Mb3Ubhj9w8INjB+g3XWCHwhEHPHo/rX6fL2Erx01el9DwhEGNR4cR00L12pSiP9bx4dXVNT+naIGHyQYQMgRF+bEwB8MAoB0FhBsiwOuD78lxGKHFUbXnvX1cA5+1LqbGMTBWePHqzryieu2svoE6x86uDvfZvQDBvNzYOAIznEa+sjr13ikSdc+7eFQDhAjXMPpPkK4c+Gky9P5IEb+cI/FWo3IWgDtaSlqHefhzQT59fXAwrm4rxAOZYiyggButYQblRHnwwMDiLRAgzPuGf1hDbDEHyoviNM+oRge/Khha1Z4oBcoG2sf7h/cC0gz0oKGTbjpkBbEDZecjgNpRzk4B/jANWgf3INwtMIJuF7A8QNbab26a/EGKggPaiTobYIbym6osaJFvzDxRljEiR8dRFDXRuCWwQ/NecPih4Qh3RA5XetBwyLcI+iWiD9745E9LYgbceLHglp+YeH0Ofjx4u0AS5zjNAgM5iSxvypjlj37g8d+Dh5UiA+v6U7hQjgIOrqu4ccPg2DiGvZh+tgPvzOG5dsb1xAO23jgII92g6+1RYsWsvPM1ABwJ1W12iXADANl0H4B4XC+beg4IEB409BtGXq/Xp4Lp7VWo7YuPx2PXkLUIHj6ftD7i1viPlq+cqXXhE/OcyCMKEu8reBBCPF1PqBxDng6a7Z4+KKREefgnkf6IbbajYEaNHzSqEDYhRdxgS/S56/hvsc1atimd0C54Xeif3uIF28G+iHub9xuDhdjTdHp/etwM40Q5B2ihho3avlww+iWd1WTsn6M2KdrSf4kBz9W/AggarqLlz/nwV+sukNaYoYfDN4S8AMKhdkZIP+oCdoFwp4G/LghLMgnfvB2Psg3aozaZWI/L1jr4eQUrDz4Ew/44n7Aww0PWtwP+s3J1/l4sG6wpqH19bDwFV7vu+Tii73KGg9n1NhhePAWdh/o87n0JkAB9+bBLRIggWIIQHThCkN7Dx6weAA7e++gVnjKeijg7cNumHMGDwdacAiwETM4HBkLCbiGAFxnem57vEG1saYTLuytEX74X5ct87Apzbclz0VctMJuhC4qbGaVBIJBAO4Tbfj0WmHijTBwy8ElA4P7i/5thSJo/1HAg4aSEZGAOwhAiLWh1wsaaH31wUdbDz7Xpv3kSVYDOS24BOgDDy5PxkYCriCAL0yh777uQYJMww9exuq5gt4mWrSxHwPMGmGgj9UITQsuAfrAg8uTsZGAKwiga2gDq5ss+tmjmyn+tJijNxRcJWjc9DUS2RWAQpRJCniIQPMyJGAaAUw3jME5bpwzJ1LKkj7wSCkJpoMESIAEAiRAAQ8QGIOTAAmQQKQQoIBHSkkwHSRAAiQQIAEKeIDAGJwESIAEIoUABTxSSoLpIAESIIEACVDAAwTG4CRAAiQQKQQo4JFSEkwHCZAACQRIgAIeIDAGJwESIIFIIUABj5SSYDpIgARIIEACFPAAgTE4CZAACUQKAQp4pJQE00ECJEACARKggAcIjMFJgARIIFIIUMAjpSSYDhIgARIIkAAFPEBgDE4CJEACkUKAAh4pJcF0kAAJkECABCjgAQJjcBIgARKIFAIU8EgpCaaDBEiABAIkQAEPEBiDkwAJkECkEKCAR0pJMB0kQAIkECABCniAwBicBEiABCKFAAU8UkqC6SABEiCBAAlQwAMExuAkQAIkECkEKOCRUhJMBwmQAAkESIACHiAwBicBEiCBSCFAAY+UkmA6SIAESCBAAhTwAIExOAmQAAlECgEKeKSUBNNBAiRAAgESoIAHCIzBSYAESCBSCFDAI6UkmA4SIAESCJAABTxAYAxOAiRAApFCgAIeKSXBdJAACZBAgAQo4AECY3ASIAESiBQCFPBIKQmmgwRIgAQCJEABDxAYg5MACZBApBCggEdKSTAdJEACJBAgAQp4gMAYnARIgAQihQAFPFJKgukgARIggQAJUMADBMbgJEACJBApBCjgkVISTAcJkAAJBEiAAh4gMAYnARIggUghQAGPlJJgOkiABEggQAJlAwzvd/Dfd/+dDOh7ibRKaiJxcaV2Gb/Tw4AkQAIkEEwCJ0+ektVpW+WL2Qvlv/OXBjNqv+MqFWW9f0h/ueHqy/xOBAOSAAmQQLQRQMW0Xavm6i+5eSMZ996XIc9C0F0oqHlTvENejrwgCZBAGAlA86B9obagCzjcJjQSIAEScBuBcGhf0AUcPm8aCZAACbiNQDi0L+gCzgZLt922zC8JkAAIhEP7gi7gLEoSIAESIIHQEKCAh4Yzr0ICJEACQSdAAQ86UkZIAiRAAqEhQAEPDWdehQRIgASCToACHnSkjJAESIAEQkOAAh4azrwKCZAACQSdAAU86EgZIQmQAAmEhgAFPDSceRUSIAESCDoBCnjQkTJCEiABEggNAQp4aDjzKiRAAiQQdAIU8KAjZYQkQAIkEBoCFPDQcOZVSIAESCDoBCjgQUfKCEmABEggNAQo4KHhzKuQAAmQQNAJUMCDjpQRkgAJkEBoCFDAQ8OZVyEBEiCBoBMolY8aBz2VjJAESCCoBBat2Cypadtla8YByTycI7m5eUGNP1yRlSkTI9WqVJQm9WtI66RGktI2MVxJCcl1KeAhwcyLkEBkEIBwfzVvpRzMPBIZCQpyKvAgQt7wt3xdusrrFT3aGCvkFPAg30CMjgQilcDUb5bIvMXrVfIaN24s7dq1k8TERKlevbqUKWOGNzU3N1cOHjwomzdvluXLl0t6erpM+nKhpFtvGoP7dYzUojnndFHAzxkdTySB6CFgF++rrrpKOnXqFD2JDyCleBDVrFlT/SGPixcvlhkzZsjns76X1NRV8tyjQwKILfKDUsAjv4yYQhIoEQG4TXTNu3fv3saKty9IEHGI+h133CELFoq0bpEog6/s4StoVO4z470pKtEz0SQQGgLwecNQ8+7evXtoLhpBV+nQoYMMHz5cpWjs+KkRlLKSJ4UCXnKGjIEEIpYAat9o0IPP21S3iT/wBw0aJG3atJGdu/bJ1Jnz/DklKsJQwKOimJhIEjg3AugqCEODpdsNbyCw//3wqzEoKODGFCUzQgIFCaCfNwy9Tdxu+g1kxdrNxqCggBtTlMwICRQkgEE6MHQVdLs1atRIIdi9N/+hZgIP9kIxoRSZBxIohIAeYRmsft6nTp2SiRMnyg8//CA7duyQVq1ayYABAwS9W7Tt2rVLTp48qfzuel8kLGNjY1UyTp/OjYTkBCUNrIEHBSMjIQF3EHjggQfkxRdfVP2sIdx79+6V6667Tj766CMPgIsvvlhWr17t2eZK6RGggJceW8ZMAkYROHr0qHzyySfy9NNPyxtvvCFDhw6Vjz/+WPr06SNvv/22yuuRI0ckOztbDh8+rGrhGsDp06dlw4YNgji0YV9WVpagVo+Rk3l5Z+djwYNh48aN6pgOz2VBAhTwgky4hwRIwAeBcuXKSeXKleXHH3+U/fv3e0K8+eabMmHCBLX9hz/8QS3vueceeeutt5QAv/TSS3LhhRdKSkqKwA/9+uuvqzCopTdr1kzQxQ8NjM8//7waBn/DDTdIixYtBDX55s2bK3eN52Jc8SJAAffCwQ0SIIHCCMCHDFHG0PSkpCTp27evvPrqq5KRkaG2cd78+fPV6ZMnT5aHHnpI3n//fRk9erQKt3XrVuV+gVDPnTvXc5kaNWrIrFmz5NZbb5VRo0bJ0qVL5bvvvpO0tDQZPHiw3HTTTZKZmekJz5WzBCjgZ1lwjQRIoBgCV155pfJvv/baa9KwYUMZN26cXH755Wrp69Qvv/xSLrnkEunfv7+qvd91111Sq1YtmT17tif4fffdJ507d5bzzjtPpk6dKpdeeqlywaxbt066deumXDJLlizxhOfKWQLshXKWBddIgASKILB7927ll+7atavccsst6u/48eMyYsQIefbZZ+XGG28U1Kbthh4pV1xxhWdXTEyMco0gLm3169dXq/Cbw38OF83atWv1YUlOTpacnPzukJ6dXFEEWAPnjUACJOAXgTVr1qia9JYtWzzh4+PjBT5rGMTaaU2aNJGffvrJsxsNl/PmzVM+cb1Td3GsUqWKqqXjQYBz8AdXyjPPPKNq8To8l2cJUMDPsuAaCZBAEQS6dOmi3B9wh0yfPl3g4oAYDxs2TJo2bSotW7ZUZ6Ohc+XKlbJv3z4ZOHCgwP0xadIkQa177NixqpYN14gvg8/73XfflTlz5qgGTdTu7777bl9Buc8iQBcKbwMSIAG/CKC2DcFG98HbbrvNc07Pnj2VQMM9AkP/8FdeeUX27NmjlugiiHNg8H+jyyHcMLqvuK6B4zi6KKLBUtfqMQEVBg7hPFpBAjFdUlLOdr4seDzgPQu+GBvwOTyBBEigdAg8OGqK+t4larJ2oSzp1dB3GzXq2rVrC7oXOg39uytWrChly+bXETEyE10P69Wr5wzqc/vYsWOCPuX4OEOwDO6bjh07SmxsGdm8cEqwovWKp+uAYV7bpb1BF0ppE2b8JBBGAvjALwyfGQumQZjRC8WXeOM6VatW9Yg3tuPi4vwWb4QvX758UMUbcW7fvh0LqVvbu6FV7YzS/yjgUVpwTDYJ+EMAX2eHwY3hdsPn1WBtWyYag4ICbkxRMiMkUJBA66T8GfjwgV+3GwYgwXp162AMCgq4MUXJjJBAQQIpba2vzlerpL7OrmugBUOZv2fatGmqZ0yDerX4TUzzi5s5JAFzCFzRo43KDGqgbqyJoxcLhujDht01WC1N+Y81cFNKkvkggUIIoBbeo1OyxMeJDBkyRFAbdYshrxjuD7v12r5G1b6RJ/YDBwUaCRhOYHC/jpKaukrlErVR1MbxjUjMAogZAvXHDqIdA7oKorcJ3EXIIwYUwSDezz06JNqzVyD9FPACSLiDBMwkAAFr3SJRxo6fqoRNi5uZuc3PFXzecJsMvrKHkdmkgBtZrMwUCfgmACHD39SZ89TX2fGBX3wj0pTPjGGQDvp5o6sgepuYKty6dCngmgSXJOAiAlrIXZRlI7PKRkwji5WZIgEScAMBCrgbSpl5JAESMJIABdzIYmWmSIAE3ECAPnA3lDLzSAIOAotWbJbUtO2yNeOAZB7OUTMWOoJE5WaZMjGCCbwwBwymEUAfeJONAm5y6TJvJOAgAOH+at5KOZh5xHHEjM3c3DyVN+Rv+bp0lVeMRDVVyCngZty3zAUJFEtg6jdLZN7i9Spc48aNpV27dpKYaM2VUr16UOcKLzYhpRggNzdXTZ2L2RcxbUB6erpM+nKhpFtvGhjMZJpRwE0rUeaHBHwQsIu3HoHpI1jU78JHK/ARCPxhlKkekfn5rO/VSFTTRmNSwKP+lmUGSKBoAnCb6Jp37969lbAVfYY5RyHiEPU77rhDFiwUNRLVpME97IVizr3KnJCATwLwecNQ8+7evbvPMCbv7NChgwwfPlxlEdMImGQRXwP/afEq+fGXFefE/OZBf1Dnbtm20+v8u24aIAnVKnvti5aN9J275ZPp38qCxSsl+8hR6XlpB+l72cXS/qKkaMkC0xlCAqh9o0EPPm/URt1qgwYN8kxuhWkETKmFR7yAf//TUhn+0r889x0Eq0L5ePlq7k+efVi59borZOmq9bJyzUbP/l7dOqo5Hsa8/ZHs2Xf2m4AD/9AjKgV856590uWKu2V7xh5Jan6e/PXBm2XI0FHy11Fvy5f//ptc1edST965QgIggK6CMDRYut3wBoIJvP73w6/GCHjEu1Dy8vLUfZfYpIH8tuQz+d+0v8tLw+/1uhfr1Kou770xXFZ8+2+Z8eGrnmPoUnT9gN5y9y0DPPuieeWhp19X4o08XHd1L4k788VvbH/y5f+woJGAFwH084aht4nbTb+BYAIvUywKBDwf9bwv/iFNGtUrlvuVv+8q/3r1CRVOi3+NhKrFnhcNAeYtXOZJZsN6tb14dOl4kecYV0hAE8AgHRi6CrrdMO85DLMvmmIR70KBCPe9/GJpVL+O38wH9+8pdz/2imgB9/vECA6478AhLzcQknrpxW1l08/T5Oix49IquVkEp55JCxcBvIXC0BPjXGzNmjUyevRoz6lxcXFSo0YNgU8ZjYP+2Ny5c+X777+XF154odjgx44dk7S0NGnTJv8zcMWeEEAA/dEKU6bORdYjXsA7tW8pv2uTHEAxWbWNalXkxSfvEUzmXpjBnzx3/mJZuXajJDZpKDcM/L06zxk+5+gx+fbHX2XZqjQ5lJUtbS88X7p2biPNmzb0BP0tPUNS13m/lv3uomSpWaOausaPP6+w5ibuKL27d5Kfl66WvfsPec6NiYlRjZDw0SM96zZuVQ+srp3aSNmysSrcgUNZ1nlrPOdgJWPPftmwOV1q1UyQxGoNPMeCnV4dMQZIgMOqtZskfeceSahaWfnhu3S6SMrF5d9GVSpXlEoVK+hTuDSAwN69e2X69Onypz/9SSpXriyZmZmyaNEiGT9+vDz33HNy//33F5vLjRs3ypw5c/wS8Pvuu08aNGhQKgJebEKjMEDEC3i/y1POCetfH7yl0PO+/t9CgT/Zbs+Nniip8yZLbUsQta1YvVGuvespSdu0TS7r8jvp0DZZ/vTg8+rw318cJvcN+X8CAYaA3/v4qx7/NAK89fKjMnHyDNWwiu2X//6hLJ79rny3YKlqdMQ+bR+Oe1Zuvv85vSkvvflvgV9/2dwP1ENo9D+mqH2eANYK0ou/kY/fKU8Py/9UVGmkt2PbFrJ5604ZfMdwT17+35WXyYTJv8jh7PzXc52ux++7SV55+s96k0uDCDz++ONSr16+CxMP86efflqeffZZ6dWrl7Rs2VLlFPu3bdumPs8GdwV+G4VZdna2+vRZkyZNpEKF/Ic+at9ZWVmqhn/06FHPfl9hC4vXbfvP7b0qyilBvCE2A//v7GeWUAP+5wefe3K2bcduadfrFiXeENOvJo+W0c8+4BHLB54cK6+P/1iFh7h/8PenPedi5b6/jPYInj7w7Y9L5C8P3CyP/fmPepdaQryfeeS2Aul5Z9J0dfzRP98oMyedfY3FToRP++ljuf/2QSpMaaX35MlTctXNj3nyMuqvd8u0CS/KD9P/qa6r/3tt5FCv9Ov9XJpHAO6YJ57Ib2eCewS2evVqSUlJUW4V9Hjp2bOnEnNn7uHWHDlypEC4u3btqr7H+fbbb6tgL7/8snz77bfy7rvvyk033aRcoIWFdcbr1m1XCvgn77ygaoqfTnzRq9zhvtBmr6Ff3a+bVKxQXh26vOtZv9+wZ9+UHRl71X6nuwaif3D9HJn42pMC1wL+dDc/Z9j//GukPPfYHeJMT5rlIoGhEdbussG+BnVryQWJjT1un9JK76p1m2RN2hZcUhm+qQhrc2FztdT/4c0lpUMrvcml4QSqVrXuyebNZf369XLy5En1tftmzZrJqlWrlIsFteqHH364AIXPP/9c3njjDfnggw9UDXzs2LHy1FNPyS+//CIjRoyQPn36yJ///Gf59NNPpaiwBSJ26Q5XCviFSc1UceMVD90TtR08dFitHsrMls+/nqd3e/X2aNrYuyfMF9/M94Szr0CsMVjothuulIyVM2TvmlnS8oKm9iCe9dYt8sWwsPR4AhayUprptfefx+V1jx7n6zF84zR3EahTp47k5OSoRsdNmzbJJZdcIlu2bJE9e/aodTRcwv1ht5kzZ0rTpk1Vr5ilS5fK+eefr3zrs2fPtgdT64GELXCyS3ZEvA+8tMuhrK0vtb7W+k1na+LYZ2+Y0zVxHXb1+rO1U70Py6TmjT2b9vM9OwtZ8ZWeQoJ6dpdmeruntPNcBytoUIU5u2Iln99E7ed/7iGwYcMG6dy5s2RkZKhMT5kyRT755BMPgOTkZNm/f79nGyvwke/bt08ee+wxz/6GDRv67DEWSFhPZC5bcb2A+ypvLVL6mL07YrlycXq3Wu7cle9C8doZ4o3STC8eWA/cPlj+PnGqytWPP6+U/n27qcZYezZ/38O9w7TtHNyy/vXXXysh7tatm6AmDkM3QbhAYDt37pS1a9dK/fr11bb+D42bp0+flu+++07vknnz5glE3GmBhHWe65ZtV7pQiitcZ59zu4AfO3bC6/Tk5uGveZZ2et944SEZ99IjKt+v/mOydO53u9xwzzNqu43VrXL1/MkB9dP3AsiNqCCwcOFCWbBggcyaNUvGjBkj9957r0C8L7vsMklKSlL+cOzHUPUdO3ao2f/g60a/cbv1799fhZkwYYKatxs19muuuUZ2796tgsG3jn7gqH0XF9Yer1vXWQP3UfJoHLQbJo3Sln3Eu+vcRS29G/N0uFAuSzu96C6oG2ufffR2ucjy2Z/XqK6c36yRpxE1lPnltUJPANOxaoMP+7bbblNuELSFQKQnTZokd999t1x++eUqGKatRa8SZ1vJwIEDlZ8cvVjwhz7f6E+OHikw9F5BIybCLVmypMiw6gSX/xeVAp512PtzUM6GNmeZnjp12msX+qtqO3XqlF6V3Lz8/eXjy6nugs+PfU8dW2/1A9e28bftelU1gA66Kv+GdV7jxImz8XpOOLPiDFtcenCa85yTtnSXZnpx3b7XPySLfl2tatnoXx/vcCM588ftyCGAb0RiNCbusXMZjdmjR48CfmxfuUMtHG6RQ4cOKUGvVKmSJ9g999wj+INB0B955BEZOnSocsHovuU68HXXXadq3ghXXFh9jr9LuG5gsbHmOB6iLicnrC5Lkz4t2GI9dca3PssRAoQZDe2GUZUwjIjEIBVtmLr2YGZ+TxT019a9VaZ8NsczSOejz/+rg6s5VyCesAW/5M+5rA9iClz0DnFaoOnByEqYfR4UbP+waIWXqJdWetFIC/GGYRbE8uf1kLqtr1B/zS8eJP934yPy5Iv/lIzd3o1V6gT+F3YC+MAv7ODBs7NxlmaiEhISxC7ehV0LjfVO8dZh0QWxfPn8brvYV1RYfY4/y+3b8ytfdWvX8Cd4VISJKgHHwJn4xj28Btxoytfe+ZTE1OsiGLZuN4ykdE49i9GUP1jhIEB2g6ugRdfr1S403v08a4LcfuNVartx+wHSqvsf5cOp36ia99L/vq+GxuPge//5Su55/G8qnP5v9nc/S/XkPl59qHEs0PQkd7leRr3+vtz/1zE6arXE7INxjbrJzP8uUNullV5nt0lcDG88+MPDb9a3C9UoUQx6wohUWmQRwNfZYfhGpNsNn1eDtW2ZaAyKmC4pKXnBzM2CL8YGM7qIiAsuG8x1knk4W32SqXGDuhGRrsISEez04u0GD8ji7M1RD6seK8WF4/HQEcAHHfBRX3zQ4c477wzdhSPwSpjPBY2so5+5t9TmA+86YFhIcx6VPvCQErIuVrVKJcGkTdFiwUzvxi3b5amXx6usY7i8/cs/aNzFg+0vL/xDHdcDoaKFkxvSmdI2UfBJNXydHTVQPSe2G/Juz+O0adOUeGMUtClf40H+KOD2UuZ6AQKofWMyL9hdN1/tmVJAB7yidxeZ8/3PaqbCK/vk9yTQx7iMDAJX9GijauEzZsxQDYxu+zrPxIkTZdy4caowht01ODIKJUipiCofeJDyzGgCINDNmnNc260PviBfzv5BUCtHz5z5i5YLJvXCNLOYHKx96yQdlMsIIoBaeI9OyRJvdckeMmSIoDbqFkNetXjfem1fo2rfKEP6wN1yJ5cgn5jn5B/vfybrNmxV4q2/yZlsfZcTfcExl3qndvlTipbgMjy1lAk8O/o9ef+T/B5c+GACvhEJlwpGPOqPHZRyEko9enQVRG8TuIvwxgGfNwzi/dyjQ0r9+qH2gVPAS71IeQESiBwC+CL72PFTBR80cYPB5w23Saj83qEWcPrA3XAXM48kcIYAhAx/EHJ8nR0f+MXEZKZ8ZgyDdNDPG10Fe3XrEDLhDtcNRgEPF3lelwTCSEALeRiTwEsHgQAbMYMAkVGQAAmQQDgIUMDDQZ3XJAESIIEgEKCABwEioyABEiCBcBCgDzwc1HlNEggzAQyxT03bLlszDlhTROSoGQvDnKSgXB6zL2ICL8wB0zqpkaAPvMlGATe5dJk3EnAQgHBjaP3BTO8pmR3BonYTU+cib/hbvi5d5RUjUU0Vcgp41N6qTDgJBEZg6jdLZN7i9eokTG6FIfWJiYnqA8PnMld4YFcPTWjMe46pczH74vLly9UcMJjMK9160xjcr2NoEhHCq1DAQwiblyKBcBGwi7cegRmutJTmdfEgqlmzpvrDKFM9IvPzWd9LauqqkIzGLM38OeOmgDuJcJsEDCMAt4mueeNTZ26akRB5hajjk3ALFoqaDjpUozJDcRuxF0ooKPMaJBBGAvB5w1Dz7t69exhTEp5Ld+jQQYYPH64ujmkETDIKuEmlybyQgIMAat9o0IPP2001bwcGGTRokGACL8wBg2kETDEKuCklyXyQgA8C6CoIc9sc4D5QqDcQ7MccMKYYBdyUkmQ+SMAHAfTzhqG3idtNv4FgAi9TjAJuSkkyHyTggwAG6cCqV6/u46i7dmHecxhmXzTF2AvFlJJkPkjABwEMbIGVVj/vmTNnymeffebjyiJXX321+nMeXL16tYwZM0bGjx8vCxYskK+//lpeeeUVFWzFihXSsmVLKVeunPO0Em/rj1aYMnUugLAGXuLbghGQgHsJrF+/XqZPn66+6oMarv2vcuXKPsHs379fnYNBN1lZWZKRkaHCQdh79uwp2dnZPs/jzoIEWAMvyIR7SIAEAiDQoEEDGTlyZLFn7NixQ+Lj473C9e3bV3r16iV5eXly4EC+ayMzM1OqVq0qZctSnrxg+dhgDdwHFO4iARIIHgEMbccAInTjS05O9hL7yZMnS7du3eTQoUMyYMAAddGOHTvKkiVLgpcAg2PiI87gwmXWSCAUBHbu3ClDhw4tcKknn3xS6tatK48++qjk5OTIwoULrU+3nZbbb7/dK+yJEydUI+vcuXOV0G/YsEFq1KjhFYYbvgmwBu6bC/eSAAkEQCAuLk6cfzExMco1AmG+9tprJSkpSTVQXn/99QHEzKBFEWANvCg6PEYCJFAsAfjAR48e7TMc/NpolGzRooXnePv27T3rXCkZAdbAS8aPZ5MACRRBAK4Q9EZZtmyZJ1RqaqpnnSslI8AaeMn48WwScD0BdAVEf26nValSRTVcwn0yZcoU6dGjhxLzDz/80BlUbVeqVEktMQUsJt2qUKGCz3DceZYABfwsC66RAAmcAwG4SPr371/gTPTpnjp1qjz//POCvt+YDRHWr18/Qf9x+Mjthgm30EvlxhtvlHfeeUeuueYa+2Gu+yAQ0yUlJX+olo+D57JrwRdjz+U0nkMCJFAKBB4cNUV973LEiBGlNhrT32QfPnxYMBqyYsWKhZ6C/uDoB16tWrUCAl/oSX4eQA8YdFGMjS0jmxdO8fOswIJ1HTAssBNKGJo+8BIC5OkkEMkE8IFfGPpih9vgUilKvJE+1MoTEhKCLt6Ie/v27VhI3drmdFGkgKsi5X8kYCYBfJ0dhm9Eut3gW4e1bZloDAoKuDFFyYyQQEECrZPyZ+DDB37dbjNmzFAIenXrYAwKCrgxRcmMkEBBAiltra/OV6ukvs6ua6AFQ5m/Z9q0abJy5UppUK+W8JuY5pc3c0gCxhC4okcblRfUQN1YE584caKMGjVKMRh212BjyhUZYQ3cqOJkZkigIAHUwnt0Spb4OJEhQ4YIaqNuMeR13LhxKru3XtvXqNo3MsV+4G65k5lPVxMY3K+jpKauUgxQG0VtHP2y8ZkxzOGtP3YQ7ZDQVRC9TeAuQh7hNoFBvJ97dEi0Z69A+ingBZBwBwmYSQAC1rpFoowdP1UJmxY3M3Obnyv4vOE2McnvbS8vCridBtdJwHACEDL8TZ05T32dHR/4xTciTfnMGAbpoJ83ugqit4mpwq1vUwq4JsElCbiIgBZyF2XZyKyyEdPIYmWmSIAE3ECAAu6GUmYeSYAEjCRAATeyWJkpEiABNxCggLuhlJlHEiABIwlQwI0sVmaKBEjADQQo4G4oZeaRBEjASAIUcCOLlZkiARJwAwEKuBtKmXkkARIwkgAF3MhiZaZIgATcQIAC7oZSZh5JgASMJEABN7JYmSkSIAE3EKCAu6GUmUcSIAEjCVDAjSxWZooESMANBCjgbihl5pEESMBIAhRwI4uVmSIBEnADAQq4G0qZeSQBEjCSQNAF/OTJU0aCYqZIgARIoCgC4dC+oAv46rStReWRx0iABEjASALh0L6gC/gXsxcaWTjMFAmQAAkURSAc2hd0Af/v/KXy0fTvi8onj5EACZCAUQSgedC+UFts40aNRgT7or8sXy/pO/dKQtVKUrN6VcGXomkkQAIkYBIB+LxXrdsi/5z0tfwnTJXWmC4pKXkmQWVeSIAESMAtBFg1dktJM58kQALGEaCAG1ekzBAJkIBbCFDA3VLSzCcJkIBxBCjgxhUpM0QCJOAWAhRwt5Q080kCJGAcAQq4cUXKDJEACbiFAAXcLSXNfJIACRhHgAJuXJEyQyRAAm4hQAF3S0kznyRAAsYRoIAbV6TMEAmQgFsIUMDdUtLMJwmQgHEEKODGFSkzRAIk4BYCFHC3lDTzSQIkYBwBCrhxRcoMkQAJuIUABdwtJc18kgAJGEeAAm5ckTJDJEACbiFAAXdLSTOfJEACxhGggBtXpMwQCZCAWwhQwN1S0swnCZCAcQQo4MYVKTNEAiTgFgIUcLeUNPNJAiRgHAEKuHFFygyRAAm4hQAF3C0lzXySAAkYR4ACblyRMkMkQAJuIUABd0tJM58kQALGEaCAG1ekzBAJkIBbCFDA3VLSzCcJkIBxBCjgxhUpM0QCJOAWAhRwt5Q080kCJGAcAQq4cUXKDJEACbiFAAXcLSXNfJIACRhHgAJuXJEyQyRAAm4hQAF3S0kznyRAAsYRoIAbV6TMEAmQgFsIUMDdUtLMJwmQgHEEKODGFSkzRAIk4BYCFHC3lDTzSQIkYBwBCrhxRcoMkQAJuIUABdwtJc18kgAJGEegbGnl6PfdfycD+l4irZKaSFxcqV2mtJLPeEmABEigSAInT56S1Wlb5YvZC+W/85cWGba0DpaKst4/pL/ccPVlpZVmxksCJEACYSeAimm7Vs3VX3LzRjLuvS9Dnqagu1BQ86Z4h7wceUESIIEwEoDmQftCbUEXcLhNaCRAAiTgNgLh0L6gCzh83jQSIAEScBuBcGhf0AWcDZZuu22ZXxIgARAIh/YFXcBZlCRAAiRAAqEhQAEPDWdehQRIgASCToACHnSkjJAESIAEQkOAAh4azrwKCZAACQSdAAU86EgZIQmQAAmEhgAFPDSceRUSIAESCDoBCnjQkTJCEiABEggNAQp4aDjzKiRAAiQQdAIU8KAjZYQkQAIkEBoCFPDQcOZVSIAESCDoBCjgQUfKCEmABEggNAQo4KHhzKuQAAmQQNAJUMCDjpQRkgAJkEBoCFDAQ8OZVyEBEiCBoBOggAcdKSMkARIggdAQoICHhjOvQgIkQAJBJ1AqHzUOeioZIQmQQFAJLFqxWVLTtsvWjAOSeThHcnPzghp/uCIrUyZGqlWpKE3q15DWSY0kpW1iuJISkutSwEOCmRchgcggAOH+at5KOZh5JDISFORU4EGEvOFv+bp0ldcrerQxVsgp4EG+gRgdCUQqganfLJF5i9er5DVu3FjatWsniYmJUr16dSlTxgxvam5urhw8eFA2b94sy5cvl/T0dJn05UJJt940BvfrGKlFc87pooCfMzqeSALRQ8Au3ldddZV06tQpehIfQErxIKpZs6b6Qx4XL14sM2bMkM9nfS+pqavkuUeHBBBb5AelgEd+GTGFJFAiAnCb6Jp37969jRVvX5Ag4hD1O+64QxYsFGndIlEGX9nDV9Co3GfGe1NUomeiSSA0BODzhqHm3b1799BcNIKu0qFDBxk+fLhK0djxUyMoZSVPCgW85AwZAwlELAHUvtGgB5+3qW4Tf+APGjRI2rRpIzt37ZOpM+f5c0pUhKGAR0UxMZEkcG4E0FUQhgZLtxveQGD/++FXY1BQwI0pSmaEBAoSQD9vGHqbuN30G8iKtZuNQUEBN6YomRESKEgAg3Rg6CrodmvUqJFCsHtv/kPNBB7shWJCKTIPJFAIAT3CMlj9vE+dOiUTJ06UH374QXbs2CGtWrWSAQMGCHq3aNu1a5ecPHlS+d31vkhYxsbGqmScPp0bCckJShpYAw8KRkZCAu4g8MADD8iLL76o+llDuPfu3SvXXXedfPTRRx4AF198saxevdqzzZXSI0ABLz22jJkEjCJw9OhR+eSTT+Tpp5+WN954Q4YOHSoff/yx9OnTR95++22V1yNHjkh2drYcPnxY1cI1gNOnT8uGDRsEcWjDvqysLEGtHiMn8/LOzseCB8PGjRvVMR2ey4IEKOAFmXAPCZCADwLlypWTypUry48//ij79+/3hHjzzTdlwoQJavsPf/iDWt5zzz3y1ltvKQF+6aWX5MILL5SUlBSBH/r1119XYVBLb9asmaCLHxoYn3/+eTUM/oYbbpAWLVoIavLNmzdX7hrPxbjiRYAC7oWDGyRAAoURgA8Zooyh6UlJSdK3b1959dVXJSMjQ23jvPnz56vTJ0+eLA899JC8//77Mnr0aBVu69atyv0CoZ47d67nMjVq1JBZs2bJrbfeKqNGjZKlS5fKd999J2lpaTJ48GC56aabJDMz0xOeK2cJUMDPsuAaCZBAMQSuvPJK5d9+7bXXpGHDhjJu3Di5/PLL1dLXqV9++aVccskl0r9/f1V7v+uuu6RWrVoye/ZsT/D77rtPOnfuLOedd55MnTpVLr30UuWCWbdunXTr1k25ZJYsWeIJz5WzBNgL5SwLrpEACRRBYPfu3cov3bVrV7nlllvU3/Hjx2XEiBHy7LPPyo033iioTdsNPVKuuOIKz66YmBjlGkFc2urXr69W4TeH/xwumrVr1+rDkpycLDk5+d0hPTu5ogiwBs4bgQRIwC8Ca9asUTXpLVu2eMLHx8cLfNYwiLXTmjRpIj/99JNnNxou582bp3zieqfu4lilShVVS8eDAOfgD66UZ555RtXidXguzxKggJ9lwTUSIIEiCHTp0kW5P+AOmT59usDFATEeNmyYNG3aVFq2bKnORkPnypUrZd++fTJw4ECB+2PSpEmCWvfYsWNVLRuuEV8Gn/e7774rc+bMUQ2aqN3ffffdvoJyn0WALhTeBiRAAn4RQG0bgo3ug7fddpvnnJ49eyqBhnsEhv7hr7zyiuzZs0ct0UUQ58Dg/0aXQ7hhdF9xXQPHcXRRRIOlrtVjAioMHMJ5tIIEYrqkpJztfFnweMB7FnwxNuBzeAIJkEDpEHhw1BT1vUvUZO1CWdKroe82atS1a9cWdC90Gvp3V6xYUcqWza8jYmQmuh7Wq1fPGdTn9rFjxwR9yvFxhmAZ3DcdO3aU2NgysnnhlGBF6xVP1wHDvLZLe4MulNImzPhJIIwE8IFfGD4zFkyDMKMXii/xxnWqVq3qEW9sx8XF+S3eCF++fPmgijfi3L59OxZSt7Z3Q6vaGaX/UcCjtOCYbBLwhwC+zg6DG8Pths+rwdq2TDQGBQXcmKJkRkigIIHWSfkz8OEDv243DECC9erWwRgUFHBjipIZIYGCBFLaWl+dr1ZJfZ1d10ALhjJ/z7Rp01TPmAb1avGbmOYXN3NIAuYQuKJHG5UZ1EDdWBNHLxYM0YcNu2uwWpryH2vgppQk80EChRBALbxHp2SJjxMZMmSIoDbqFkNeMdwfduu1fY2qfSNP7AcOCjQSMJzA4H4dJTV1lcolaqOojeMbkZgFEDME6o8dRDsGdBVEbxO4i5BHDCiCQbyfe3RItGevQPop4AWQcAcJmEkAAta6RaKMHT9VCZsWNzNzm58r+LzhNhl8ZQ8js0kBN7JYmSkS8E0AQoa/qTPnqa+z4wO/+EakKZ8ZwyAd9PNGV0H0NjFVuHXpUsA1CS5JwEUEtJC7KMtGZpWNmEYWKzNFAiTgBgIUcDeUMvNIAiRgJAEKuJHFykyRAAm4gQB94G4oZeaRBBwEFq3YLKlp22VrxgHJPJyjZix0BInKzTJlYgQTeGEOGEwjgD7wJhsF3OTSZd5IwEEAwv3VvJVyMPOI44gZm7m5eSpvyN/ydekqrxiJaqqQU8DNuG+ZCxIolsDUb5bIvMXrVbjGjRtLu3btJDHRmiulevWgzhVebEJKMUBubq6aOhezL2LagPT0dJn05UJJt940MJjJNKOAm1aizA8J+CBgF289AtNHsKjfhY9W4CMQ+MMoUz0i8/NZ36uRqKaNxqSAR/0tywyQQNEE4DbRNe/evXsrYSv6DHOOQsQh6nfccYcsWChqJKpJg3vYC8Wce5U5IQGfBODzhqHm3b17d59hTN7ZoUMHGT58uMoiphEwyaKyBr5z1z6Zv2i5rFyzUZanbpB9Bw5J8vnnyUUtm0ubC8+X33fvrL57509BHc7Okbc/+KxA0Gv795Kmjeur/Ycys+WF19+TRb+ulgduHyTXXd27QPhg7Zg641vZsm2nV3R33TRAEqpV9trna+P18R/LlM/myFV9LpW/PniL9UmrWF/BuM9FBFD7RoMefN6ojbrVBg0a5JncCtMImFILjyoBz8vLkw8++VoeHP6aQHh/d1GyDLvneqlSuaJ8t2CpPPH8P9T92bWz9SXr156U5ObnFXu/4kvaZWNj5V8fTpe0Tds84du1SvII+ITJX8qYtz9Sxxb8slIu6/K7oHxXDw0un309Twb06+4RW8xJgWvt2Xf2G4YD/9CjWAH/eelqefiZN1QaFy9fK21bnS/9+3bz5Icr7iSAroIwNFi63fAGggm8/vfDr8YIeNS4UI7kHJWrbn5MhgwdpcT79z06y8+zJsgf/19fJVSvjRwqUyfkT9oOkW3R9Xp5/+Ovir1nK1eqYD0EbpDH/nxjoWFRw7fbvgOZ9s1zXh/99hQZfMdwyT5y1BPH9QN6y923DPBs+7uSmeXdLcy57W88DGcWAfTzhqG3idtNv4FgAi9TLGoEfOSY9+SruT95uI8f/YSn1qp3DrrycrnnTwP1phL7NWlbPNtFrdSpVb3Qw0NuuFKSztTmb7/xKmmV3KzQsP4e+P6ns28MznNqJFQiDDEoAAA8t0lEQVR17ip2+7Ku7QUPNVindi3lyj5diz2HAcwngEE6MHQVdLth3nMYZl80xaLChbJkxTr521uTPMyv6N3F497w7Dyz8sdr+sg/P/jcs/vm+0aqmnpJ/MFwxaz78SPLl3hYzkVcPYk5s4KHSv9bHnfuLtF2ubg4mfPx66o9oFaNhBLFxZPNIYCBLTD0xDgXW7NmjYwePdpzapx1n9WoUUPgU0bjoD82d+5c+f777+WFF14oNvixY8ckLS1N2rRpU2zYQAPoj1aYMnUu8h8VAv7E8295lVWXThd5bds3cAw+cfjIYUtXrZfPZ1mNFlf19ARDAX634Ff5afEqKV++nPS9LMVzzLkC3/Le/d4uFNR048vFyaxvF3rNo1y9WhWB/x0CPef7XwRun6st/zYm0de2YvVG6XPdUE/6sB/xIM0d27aQenVq6qBeSzTczp2/WFau3SiJTRrKDQN/b32stooKs+m3HbJ2w29e4dE+gMnsnemHz7/vZRcrHzviW7dxq/S9/GLp2qlNgTcarwi54UoCe/fulenTp8uf/vQnqVy5smRmZsqiRYtk/Pjx8txzz8n9999fLJeNGzfKnDlz/BLw++67Txo0aFAqAl5sQqMwQMQLOBr6vv3xVy+06G1SmKGmARcHeoxoW7YqzSPgEPab739Opn/zgz6sGj/Re8WXQeSeenm816FtSz+Xxg3qyr/+/YVXPBBNuC5GjnnXEx7notHzf9PeVLWgv45626uBEgFvvPdZFf6zd1+Sgf9X8MshX/9voTz09OueOLHy3OiJkjpvstSumSBpm7fJ7Q+/6BXvR/8cKfCno3EX17Tbh+OeVQz0vpfe/LfAhbRs7gdK9PV+LklAE3j88celXr16ahO/yaefflqeffZZ6dWrl7Rs2dKzf9u2berzbHBXoLJQmGVnZ6tPnzVp0kQqVKiggqH2nZWVpWr4R48e9ez3FbaweN22/9zeq0JIaduO3QWulnCm5lngwJkd+CKH3dDVUNt9fx3tEV2I1vzpb8unE1+UXXv26yBey+EP3Sp33tTfa5/e+OL9V1S3Rb2N2v67U2bKq8/cLxcmnfWTw9/9/U/LVLCvp4yRUX+9W5+ilgfWz5bcjAU+xRsBIN6P33eT13H0UtGuoj/0vETGPvegV5x64y8P3Gw10P5Rb6olHmDPPHJbgfjemTTdKxw3SMAXAVSSnnjiCXUI7hHY6tWrJSUlRblV0OOlZ8+eAjF3GnqSjRw5UiDcXbt2Vd/jfPvt/ArGyy+/LN9++628++67ctNNN0lRYZ3xunU74mvgeMV3WuWK+U9s53697RTwX1euU4dS122WD6d+o4PJiEdvl24Xt1XbWdlHVKOn56BtpVH9OrYt79Umjeqp/uh67/zp/5Bm5zWwPufUUX73+1v1boGbo+el+T5DZ80kRqx/RdRWPnnnBfUGgRu6TP2zjZN2Ng3q1fZcy7kCV4rd/vOvkaovuzO+tM3p9mBcJ4FCCVStWlWaN28u69evl5MnT6qv3Tdr1ky++OILOXLkiAwdOlQefvhh+fTTT73i+Pzzz+WNN96QDz74QNXeP/nkExk2bJgS/hEjRqj4zj//fHn++efls88+KzRs586dveJ160bE18DjyhZ8xpyyvjwdiOka+4w5P3qddnGHVp7tYDROwo8N8YY5HyKZWdmeawW6omvzEPnEJvnxI46Dhw4HGpUK37pFvgsqWPGdUyJ4UtQTqFOnjuTk5KhGx02bNskll1wiW7ZskT179qh1NFzC/WG3mTNnStOmTVWvmKVLlwrEGr712bNn24Op9UDCFjjZJTsKqmOEZVyLlz1ZuoHSvs++jpGTduvcPt9Hh1qw3YrqOmgPF0nrZX080EqSvmDHV5K08NzoIrBhwwZBTTgjI0MlfMqUKYIatbbk5GTZv9/bNQm3yr59++Sxxx7TwaRhw4bKXeLZcWYlkLDOc92yHfECXr9uTa9eJSiYjN37iiyfHbv2eh3XDZToyWG3alUq2ze5TgIk4CeBr7/+Wglxt27dBDVxGLoJ9unTR63v3LlT1q5dK/Xr509HoXZa/6Fx87T1Bv3dd9/pXTJv3jwl4p4dZ1YCCes81y3bEe9CQUFgtKXdllq9SgqzU6dOC0Zi2k37nqsnVLHvlpOnTnltc4MESMA3gYULF8qCBQtk1qxZMmbMGLn33nsF4n3ZZZdJUlKS8odjP4aq79ixQ83+B183+o3brX///irMhAkT1LzdqLFfc801snt3fmcF+NbRDxy17+LC2uN163rE18BRMC8+eY9M/nS2p+/0F1a/bvTkKB9frkC5zf7+Z699j9x7g3Ro00LtuyCxsdexHRl7gzIwxytSbpCAgQQwHas2+LBvu+025QZBOwpEetKkSXL33XfL5ZdfroJh2lr0KnE2zg8cOFD5ydGLBX/o843+5OiRAkPvlT//+c+CcEuWLCkyrDrB5f9FhYBjwAomp7r2zqdUcW3eulMw8x66yNnt2PET1kRXYz27MPx95ON3erYxghP9p7V9OfsHNYMhtmd9u0jvVsvMw2f96M5GUz26DQFR4/dl6OFht9y8XM+m86betmOX7NgVK3c/9or8+OU/C8SJfrfaTtneGuxx4rXUbvZtZxr9ic8eF9ejlwC+EYn7FWV+LqMxe/ToUcCP7YsGauFwixw6dEgJeqVKlTzB7rnnHsEfDPf+I488onqpwBeu+5brwNddd52qeSNccWH1Of4u9W8iNjYqHA9+ZStqcoKRlF/++2/KH46cYXAKRjtqccKEU9gHcYfBbfLNR2OlYoXyahv/YY6Qmwf382y/Mm6SPD/2PRlw6xOePtX64KtvTbb6bi9V8TsHEmFgEAw9S378ZYU+Rb0h6IbSZanebp5flq1RPyIEds6SeGn/e6R1jz/KzYP6qevhunbT18OIUJ0/HMdIUgzvh/3vhyVqqf/7dWX+p7PAJ5D4co4e01FwaQABfOAXdvDg2dktSzNbCQkJYhfvwq6FxnOneOuwGNhTvvzZ321RYfU5/iy3b9+ugjl7iPlzbqSGiRoBB0DMc71x0VTBXN2wvtc/JA3b9ZfuA+6V2hf+n6qVoysfautzp77p6dKnAp/5750xf5V7b71GbaE3yzN/e8cahr5Vxox4QO3D+Rg52So5UeBiufaupwr41AcO+YtAVBOS+njcOvoa56cMFog1Zk6026czv5e7Hn1F7epzWWdPn3DsQDqeuP8mueOP/dX17JN24fifHnxefvh5hTS/eBA2PYbzMOviuHenyct//9CzHyuv/es/8tZ7nwYcX3KX673i4UZ0E8DX2WH4RqTbDZ9Xg7VtmWgMipguKSne7/olzNqCL866MEoYVZGno2a5aesOSbWmhty974AkWf5tdDl0DlopLBLUZles3qAmxTq/WSNVm0btFj1WQvGKhVfaDVu2C3rGtLygSaFzoBSWfu4nAX8I4IMO+KgvPuhw551n3Yn+nGtaGMzngkbW0c/cW2rzgXcdMCyk2KLCB+6LCGYXhCvC6Y7wFdbXPswh0rt7J8+halUrS/uLkjzbpb0Cf2RJ0l/a6WP8ZhBIaZso+KRauvV1dtRA9ZzYZuTO/1xMmzZNiTcqeKZ8jQe5jyoXiv/FxZAkQAKawBU92qjVGTNmyPLly/Vu1ywnTpwoo0aNUvkddtdgo/JNATeqOJkZEihIALXwHp2SJd7qkj1kyBBBbdQthryOGzdOZffWa/saVftGpqLWheKWG5D5JIFgEBjcr6Okpq5SUaE2ito4vhEJlwpGPOqPHQTjWuGMA10F0dsE7iLkET5vGMT7uUeHhDNppXJtCnipYGWkJBB5BCBg+LjI2PFTlbBpcYu8lAYvRfB5w21ikt/bTocCbqfBdRIwnACEDH9TZ85TX2fHB37xjUhTPjOGHmTo542ugr26dTBWuPVtSgHXJLgkARcR0ELuoiwbmVU2YhpZrMwUCZCAGwhQwN1QyswjCZCAkQQo4EYWKzNFAiTgBgL0gbuhlJlHEnAQwBD71LTtsjXjgGQezlEzFjqCROUmZl/EBF6YA6Z1UiNBH3iTjQJucukybyTgIADhxtD6g5lHHEfM2MTUucgb/pavS1d5xUhUU4WcAm7GfctckECxBKZ+s0TmLc6fZhiTW7Vr104SExPVB4bPZa7wYi8YhgCYJA5T52L2RUwbgDlgMJlXuvWmgcFMphkF3LQSZX5IwAcBu3jrEZg+gkX9LjyIatasqf4wylSPyPx81vdqJKppozEp4FF/yzIDJFA0AbhNdM0bnzpz04yEyCtEHZ+EW7BQ1EhUk0ZlshdK0fc+j5JA1BOAzxuGmnf37t2jPj+BZqBDhw4yfPhwdRqmETDJKOAmlSbzQgIOAqh9o0EPPm831bwdGGTQoEHSpk0b9QEVTCNgilHATSlJ5oMEfBBAV0EYGizdbngDgf3vh1+NQUEBN6YomRESKEgA/bxh6G3idtNvIJjAyxSjgJtSkswHCfgggEE6sOrVq/s46q5dmPcchtkXTTH2QjGlJJkPEvBBAANbYKXVz3vmzJny2Wef+biyyNVXX63+nAdXr14tY8aMkfHjx8uCBQvk66+/lldeeUUFW7FihbRs2VLKlSvnPK3E2/qjFaZMnQsgrIGX+LZgBCTgXgLr16+X6dOnq6/6oIZr/6tcubJPMPv371fnYNBNVlaWZGRkqHAQ9p49e0p2drbP87izIAHWwAsy4R4SIIEACDRo0EBGjhxZ7Bk7duyQ+Ph4r3B9+/aVXr16SV5enhw4kO/ayMzMlKpVq0rZspQnL1g+NlgD9wGFu0iABIJHAEPbMYAI3fiSk5O9xH7y5MnSrVs3OXTokAwYMEBdtGPHjrJkyZLgJcDgmPiIM7hwmTUSCAWBnTt3ytChQwtc6sknn5S6devKo48+Kjk5ObJw4ULr022n5fbbb/cKe+LECdXIOnfuXCX0GzZskBo1aniF4YZvAqyB++bCvSRAAgEQiIuLE+dfTEyMco1AmK+99lpJSkpSDZTXX399ADEzaFEEWAMvig6PkQAJFEsAPvDRo0f7DAe/NholW7Ro4Tnevn17zzpXSkaANfCS8ePZJEACRRCAKwS9UZYtW+YJlZqa6lnnSskIsAZeMn48mwRcTwBdAdGf22lVqlRRDZdwn0yZMkV69OihxPzDDz90BlXblSpVUktMAYtJtypUqOAzHHeeJUABP8uCayRAAudAAC6S/v37FzgTfbqnTp0qzz//vKDvt56LpF+/foL+4/CR2w0TbqGXyo033ijvvPOOXHPNNfbDXPdBIKZLSkr+UC0fB89l14Ivxp7LaTyHBEigFAg8OGqK+t7liBEjSm00pr/JPnz4sGA0ZMWKFQs9Bf3B0Q+8WrVqBQS+0JP8PIAeMOiiGBtbRjYvnOLnWYEF6zpgWGAnlDA0feAlBMjTSSCSCeADvzD0xQ63waVSlHgjfaiVJyQkBF28Eff27duxkLq1zemiSAFXRcr/SMBMAvg6OwzfiHS7wbcOa9sy0RgUFHBjipIZIYGCBFon5c/Ahw/8ut1mzJihEPTq1sEYFBRwY4qSGSGBggRS2lpfna9WSX2dXddAC4Yyf8+0adNk5cqV0qBeLeE3Mc0vb+aQBIwhcEWPNiovqIG6sSY+ceJEGTVqlGIw7K7BxpQrMsIauFHFycyQQEECqIX36JQs8XEiQ4YMEdRG3WLI67hx41R2b722r1G1b2SK/cDdciczn64mMLhfR0lNXaUYoDaK2jj6ZeMzY5jDW3/sINohoasgepvAXYQ8wm0Cg3g/9+iQaM9egfRTwAsg4Q4SMJMABKx1i0QZO36qEjYtbmbmNj9X8HnDbWKS39teXhRwOw2uk4DhBCBk+Js6c576Ojs+8ItvRJrymTEM0kE/b3QVRG8TU4Vb36YUcE2CSxJwEQEt5C7KspFZZSOmkcXKTJEACbiBAAXcDaXMPJIACRhJgAJuZLEyUyRAAm4gQAF3QykzjyRAAkYSoIAbWazMFAmQgBsIUMDdUMrMIwmQgJEEKOBGFiszRQIk4AYCFHA3lDLzSAIkYCQBCriRxcpMkQAJuIEABdwNpcw8kgAJGEmAAm5ksTJTJEACbiBAAXdDKTOPJEACRhKggBtZrMwUCZCAGwhQwN1QyswjCZCAkQQo4EYWKzNFAiTgBgIUcDeUMvNIAiRgJIGgC/jJk6eMBMVMkQAJkEBRBMKhfUEX8NVpW4vKI4+RAAmQgJEEwqF9QRfwL2YvNLJwmCkSIAESKIpAOLQv6AL+3/lL5aPp3xeVTx4jARIgAaMIQPOgfaG22MaNGo0I9kV/Wb5e0nfulYSqlaRm9aqCL0XTSIAESMAkAvB5r1q3Rf456Wv5T5gqrTFdUlLyTILKvJAACZCAWwiwauyWkmY+SYAEjCNAATeuSJkhEiABtxCggLulpJlPEiAB4whQwI0rUmaIBEjALQQo4G4paeaTBEjAOAIUcOOKlBkiARJwCwEKuFtKmvkkARIwjgAF3LgiZYZIgATcQoAC7paSZj5JgASMI0ABN65ImSESIAG3EKCAu6WkmU8SIAHjCFDAjStSZogESMAtBCjgbilp5pMESMA4AhRw44qUGSIBEnALAQq4W0qa+SQBEjCOAAXcuCJlhkiABNxCgALulpJmPkmABIwjQAE3rkiZIRIgAbcQoIC7paSZTxIgAeMIUMCNK1JmiARIwC0EKOBuKWnmkwRIwDgCFHDjipQZIgEScAsBCrhbSpr5JAESMI4ABdy4ImWGSIAE3EKAAu6WkmY+SYAEjCNAATeuSJkhEiABtxCggLulpJlPEiAB4whQwI0rUmaIBEjALQQo4G4paeaTBEjAOAIUcOOKlBkiARJwCwEKuFtKmvkkARIwjgAF3LgiZYZIgATcQoAC7paSZj5JgASMI0ABN65ImSESIAG3EKCAu6WkmU8SIAHjCFDAjStSZogESMAtBCjgbilp5pMESMA4AhRw44qUGSIBEnALAQq4W0qa+SQBEjCOAAXcuCJlhkiABNxCgALulpJmPkmABIwjQAE3rkiZIRIgAbcQoIC7paSZTxIgAeMIUMCNK1JmiARIwC0Eyrolo8xnZBDYf+CAHDx4UI7k5Eju6dNSoWJFqVihglStWlWys7Mlx9qfdMEFkZFYpoIEIpwABTzCC8ik5G3cvFn27NmjBLtevXpSuXJlJdhbt22T7Tt2qKxWT0jwmeWsrCwpX768lCtXzudx7iQBNxKgC8WNpR6GPO/Zu1eJNy6dlJQk9erWlcqVKkmd2rWlfdu2UsES58Ls8OHDkrpmjaq1FxaG+0nAjQQo4G4s9TDkefv27Z6rOsW6bNmy0rRpU89x+8rJkydlXVqafRfXSYAEzhCggPNWKHUCp06dkmPHj3uuc8DygTsNrpOqVap47T5t+cjXrV8vEHEaCZBAQQL0gRdkwj1BJpDniG+9VaNuct55Ut/yg5cpc7YOkdismWQfOaJCQ/TXWuJ92GrY1AZXiuTlSbzlbkHDp7bc3FzJzMxULhacV8lqGK1iPQzgM9d23HqAoIHUbpUsFw5q/5mWfx0+9oRq1aSa9afNHi/24RjcPjExMToIlyQQVgIxXVJSnL+vsCaIFzeTwOJffy1Qk46Li5PzGjWS2pYf3C7kILAzI0N+27rVJ4z69etLsyZN1DH0ZkmzHghHjx2TalZPFogyzoU1s9wyeEjAINIbNm6UEydOqG38hwfGbqtR9ciZhwb2tbnoIiXSEPu0DRsk5+hRqVmjhhJ6hEXDa6uWLSU2NhbBaSQQVgKxjRs1GhHWFPDiriAAwTt46JBXXlHDxT4II3qXoOasDTVo1HjR+KmtZYsWknT++aJ7qqBWvWzFCkGtGw8DiG/16tWtSnqeZFm19UNW3Liuqo3Hxytx32uLD9d2umdQa0c6VqamCuJHui5q1UpqWCKOLpAQe3R3rF2rFmviumC4DBuBs++vYUsCL+wGAuh10qhhQ59ZhYiidrzeqvHC762tOEfFFlsNvYYl3LoWb3eDoBava93lLJG3G0S/c8eOcn5iohJ6iD3iQZdGLeyo1WuXSRWr9g1Dbd5ea7fHyXUSCCUB+sBDSdvl1zqvcWNVG/7tt9+Uy8OJY//+/RJn+aTh2ijOUOs+YNWItcVbNWxt9nXsQ6MpHiBOg1jDB16nTh2piRq1FQAPAQw00objp603BZh+QGAdIg53Co0EwkmAAh5O+i68NtwfCVa/b7hGtqWne2q6GsWu3bulQYMGUt4myPqYfQmft91ibY2h9nWEcTZe6vPsjZz6HLhf4PfWlrFrl+DPaUdtYZzHuE0CoSJAAQ8VaRdfB71HdlgNiy2sATwwuCTqWrVe+JHh/95i1cjtlmP5mYsTcNTA7WZvidcuD31cu1D0dlFL+OXtBhfKBZbf3WlsxHQS4XY4CFDAw0HdZdeECwLuDgipfSg8XBLoJVLB6hK4Zu1aDxXtsvDs8LESX8SQ+lyrFm03xO+vQZjxp33xqOnb0+xvPAxHAqEgwEbMUFDmNRQBe48SOxL0v7aLpL03ij2cfd3u/sB+LbhYxyRZdqto691i31/Yul3w8dBxuktQSz9u645YWDzcTwKlTYACXtqEGb+HAHzevvzRcIdoNwe6/BUmuOjWB/FcZXXxwzn2Xi12n7h9Ha4Y9OOGwb9tN+e2Pla7Zk29qpaYhEu/FSCdq623hR1nJt/yCsgNEggxAQp4iIG7/XKrVq9W/ak1B4ho+pl5UuC6QJc+bc5a9uYtW+TXZcsEvUxQY4eA6xGZ+/bt8zwEsK6tuRWf7j2iRnLqA9YSfcWdvnQcxkyJGBCkDef9/MsvsmLVKlmydKmcth4eTc4MJNJhuCSBcBDgSMxwUHfZNQ9Zw9zh44a/G130MC8KxBoCfczyMcP9UdOq9WLkpLOvNqaa3bFzp4cYerGgURHd+2A4F3290RgKg6CjFwlq3slWo6kWYrhvNm7apMI4/2tn9YrRDwJ9DMKOa+t49X40vCKd+vp6P5ckEA4CFPBwUHfZNTEoBqKtB8JgXbtDILSoUetasi80yg9tCT0aLp21ch0eQg73zClrCRdMUY2c+hx/lhByDNdH+uCbLyqd/sTHMCQQTAIU8GDSZFwkQAIkEEIC9IGHEDYvRQIkQALBJEABDyZNxkUCJEACISRAAQ8hbF6KBEiABIJJgAIeTJqMiwRIgARCSIACHkLYvBQJkAAJBJMABTyYNBkXCZAACYSQAAU8hLB5KRIgARIIJgEKeDBpMi4SIAESCCEBCngIYfNSJEACJBBMAhTwYNJkXCRAAiQQQgIU8BDC5qVIgARIIJgEKODBpMm4SIAESCCEBCjgIYTNS5EACZBAMAlQwINJk3GRAAmQQAgJUMBDCJuXIgESIIFgEqCAB5Mm4yIBEiCBEBKggIcQNi9FAiRAAsEkQAEPJk3GRQIkQAIhJEABDyFsXooESIAEgkmAAh5MmoyLBEiABEJIgAIeQti8FAmQAAkEkwAFPJg0GRcJkAAJhJAABTyEsHkpEiABEggmAQp4MGkyLhIgARIIIQEKeAhh81IkQAIkEEwCFPBg0mRcJEACJBBCAmVDeC1eqhQJ1KhZU6olJEjFihUlLi5OYmJiSvFqjDpaCOTl5cnJkyclJydHMg8dkgP790dL0plOPwhQwP2AFMlBINz1GzSQcuXKRXIymbYwEcCDHPcG/hKsBzzulYydOynkYSqPYF+WAh5soiGMr1HjxlK7Th11xcbWert27SQxMVGqV68uZcrQOxbCoojYS+Xm5srBgwdl8+bNsnz5cklPT5cmTZuqN7Xt1jotugnEdElJyYvuLLgz9Xbxvuqqq6RTp07uBMFcB0Rg8eLFMmPGDFm9erXs2b1bEqpVC+h8Bo4sAqyBR1Z5+JUauE10zbt3794Ub7+oMRAI4EGPtzOIOAztJZWsdhNadBLge3YUlhv8mDDUvLt37x6FOWCSw0mgQ4cOMnz4cJWErMOHw5kUXruEBCjgJQQY6tNR+0aDFHzedJuEmr451xs0aJC0adNGTp8+LUesHiq06CRAAY+yckNXQRgaLGkkUBICeIODHTt2rCTR8NwwEqCAhxH+uVwa/bxh6G1CI4GSENBvcCesfuK06CRAAY+yckOjEwxdBWkkUBICjRo1UqfDjUKLTgLshRJl5aZHWEZ7P++0tDR5+eWXvejHx8dLA6uBdsiQIaLFxStACDc+++wz2bBhgzzxxBMhvGpoLxUbGxvaC/JqQSfAGnjQkTJCfwjs3btXpk+froT6oosuEvzh7WLChAnSq1cv2bdvnz/RlFoYiPcPP/xQavEzYhIIBgHWwINBkXGcM4E777xT9ajREdx9992qa+R3330ngwcPVrsxmnDbtm2CGiNq5votRJ9z/PhxNcKwefPmBY4dPXpUduzYIU2t0Ydly+bf7idOnFC9L+A6yMzMlIYNG6qoMG/Ipk2bPNs6fiwxn8hvv/0m5cuXV8ej/Q3InjeuRy8B1sCjt+yMTLlupK1SpYrKH0YMpqSkCPouo+dNz549lZjrzL/00kvK7XLxxRdLixYt5Msvv1SH9uzZI/fff78SfByDuM+dO1cd+/e//y09evRQcaIr3Zw5c2TZsmXqfITFQ+Krr77Sl5C1a9dK69atVTqQBjT+bdy40XOcKyQQLgIU8HCR53UVgQ8++EDeeustGTdunDz11FPSr18/Jchwo6DWC394s2bNZNWqVbJo0SKpUKGCPPzww+pcuGBGjx6t3C47rQmaUJt/4IEHJCsrSx599FFZuHChzJ49W9atW6cGPV133XWy2xo+DkNN+95771VuHIj29ddfL5deeqmsX79ePv74YzXUXAW0/nv77belZcuWqiaP8+Cr/+ijj/RhLkkgbAToQgkbel4YBH766Sfl2lixYoVkZ2crUX3yySeVPxy1bwjmjTfeKFu2bFHALrnkEnn99ddV2Hnz5kmrVq1k4MCB6tiDDz6oauhwhaAG/Ze//EU6duyojg0bNkyJLq6nDWIPt0xqaqryud91111Sq1YtwfQEqOnD/QKrV6+eTJ48WcaOHauO4bq6N5COi0sSCAcBCng4qPOaHgL/+te/lA8c4n3ttdfK1KlTBUIMV0pGRoYKN2XKFPnkk0+knORKhdzTctn5TWT7t7Mkb/lC6V+/tmR8PlnyTp2UXMu3Xdtabp/3lQy2PDDt926R9A/ekpiycRJvNZD2tLrQn1gwVypZvvDe59WVoxvWSFxCDdm+Od8dkpyc7EkX3CTz589X24888oicOnVK8LYwZswYqVy5sowfP1769u3rCc8VEggHAc5GGA7qJbhme8sXDBs5cmQJYgn/qQsWLJD+/furKU4xLcDJg/skfcVSeeyOIdKmYT25oW9v2Ze2VtIWLZAmNRKkzLEcJdCllfJTVsRx1apLpXoNpHyDxjJv1RrZlxsjf356hGw6kClVmzaXCztfolw5zzzzjHozgFsn2q19+/YqC43OzK8T7flxW/pZA3dbiYc5v6eysyRn03o5Pf8bucOayXTH47fL1vTNcvLQQZWy+8tbi/2/yY4pE9R2E9yhWYesunfpGi6Tl3lQsvG3frW0OnO51Q8PUWsYbL6/ajUp3yxJ+mbtlc1VYiVrxWKp2DxZylaueiY0FyQQWgIU8NDydtnV8uTI5jTJWvaLHFq6SDKX/SxHt+X7sgGin+XSOLrq16hhcjorU45Yot3CSjH+fv1jP5X2Cuc1k2rtL5aE36VI1fadpVJikrWfn7RTcPhfqRKggJcq3uBHjgY69ING3+hI7Iuc89tG2T9/jhz65UfJXP6Lp2YdfBKREyMeSvjbNf0/KlFxCdWlWrvOktD5UqnZvY9UbHp+5CTWlhIOobfBiNJVCniUFRy61mE6WXwmq6Y1tWy4Le/kCTn060Il2vvnzZGcrZvDnaSwXx/uoH3fz1Z/G//2tFRskig1e/RRYp7Q4RKJiYuM75du375dseKQ+rDfMuecAAr4OaMLz4n4ujgEHN84DJeAo8fHgZ++k91ffyr7v/tGTh3JDg+MKLkqHmo5//6npFt/ZStVlpqX95O6//f/pEaXy1UPmXBlA59Xg5U7M0FauNLB6547AQr4ubMLy5mZhw6pr4vjA7V6OtBQJeRI2mrVZW/XjE9c4RopDa542O2eOU39wdVS76prpf7AP0qlJN1sWhpX9R2n/qwapgegRScBdiOMwnJrZU38hFp4KD5mDBfJntnTZfuUdyRrZfQ0OEZbsVZt00Ea3Xin1Ol7dUhcLNOmTZNRo0apgUz169aNNlxM7xkCFPAovBXwWbUm1uRMsGuuuaZUvs6D7n47P35P0j/8p5zYt0ddi/+VPoFytepI45vvkQbXDSm17okTJ05UUxcgN9WtLzzxo8alX66ldYXYxo0ajSityBlv6RDAEG/MrIdZ+P7+97+r4d8XXnhhUC4G4d424XVJfeR2q2Hyv3I650hQ4mUk/hEA74OL5smO/7wreSeOS+WWbaRMuXj/TvYjFGreGE0Kq1ypklQ9M2mYH6cySAQSYA08AgvF3yQdsqZCzT6SL7CYVU+7VDCbXqA9C+AqgZvkt/Fj5VTmIX+TwHClTAB+8iZ3PqzcK+fSewVdBdHbBA2W8HmvXLlSpRjinVDNGklFi2oCFPCoLj5RXxTPOnxYzW99rllplXdUrj59UGrlYUA5LRIJ7IspK9Njq8vqmAolSh4e7Kh1021SIowRczIFPGKKomQJOWJ1L8TXxfGBWn8HaFSV0zLw1AFpawk4LToIrLAE/POyNSRL/P8cGkQbXQXR24TCHR3l7G8qKeD+kjIs3AU5++X3+zdLeWt2P1p0EThWJlb+WzNRNlQM/0Cu6CJnXmrZD9y8Mi0yR2XzcqXngS3SOntvkeEi8SAmtDpWxmq8jS2rlmrdErNTMWXktPWXa00xcNqag+S0tbQmHLD+5UmsNfVArLUsg6WVd+Q/3npolc89pf7iT+cvo+nLJnjoXrV3g6RWPiTf1mim8h+J5cU0lT4BCnjpM46YK1Q5fVyu3rNe6pzIiZg02RMC4T0QV0H9ZZWNl8Ox5fL/zqwfjY2zBw/qeoXTJ6XK6RNS5dTx/KW1XtVar3HyqPrDgyDSDA/hOieOyPQ6yRan4PVUibR8Mj2FE6ALpXA2Rh3BD33gnnVSyRKqSLBsS4wz4qvIrnKVlGDvL1dRINq5ETiLXxmrBg8xr2k9+CDo9SyW9Y8flsoRwvKIxfLzOi1kj8WS5i4CFHBDyhuDe6pZgzLwJRt87sv+5fbq+3bIRT99JbHWHCbhssMJteRQncaSWaOuZFWvK8crVA5XUoJ23fij2VL14G6pdmC3JOxJlyqH9gUt7kAjOm19dWhVlyvkYK2GXqdi9kpMgIY5dDANw4H9+72OcyO6CVDAo7v8BMJd3/qaCobW+zKId5ufZkoZ65NgobTj5SvKgXpN5KAl2gdqN5KT8SXr/hbKtJ/rteKOW+6WvduluiXmNXZtlXjrK0KhtFxrcNfKLlcWEHF7Gk5Yn53LsD4ATSG3U4nedQp49JadNLI+RVa7Tp3/396VAFdVZNGbhewrJIEEkE1ZhqCAKMi4ICCKywxMueOIopRbleVe5UyJljuOWu41lg7K4oIbOMMMyiDihqICjkQhIDshIQkhCdmTn8w9nfTn5eUnP3nv//y8/++t+nn9lu7XffrlvPtu376tWoBlycaOHUtDhw6l1NRUFSu8IjeHtlx7UbdFC4xO70vpM/7A8TxmUfL4iVyvUF7UoInKNm/kODIrqWjNP6m26HC3PGmIdjhuyb8pYUS2uh/ixiP0MKJXIgDagQMH1PGiwkI62JLulorJTfyCgBC4X2D1f6FG8tYzMI13rS0qoE1XTKPawgLjYZ+nw1nzB2FnXvpntSINsTeIiAkB9nzBikT5HyxVhI7Fl/0p0Rn96NTln1F0er82t9EzMn/55RcqPMymH5mN2QYjJx0QAndSb7XU1RjMavr06XT22We3bgW7mW2ZN4tKf9zQ+rgP92IHDFIBlxAKFSu7i3QOgfrSEhWSF4HCqg/u61wmC1elTJhM4xatJGI3S7Ns2rSJbrzxRnVYglmZ0XHWvgSzclZ/qdoOPfFEFesEmvfkyZPbtADxTApWvtPmuC8OJP7uFBr+14U0YsEzah3IiJjgt237AjddBvDC+pkD5sxnM8dotRRbnR/MKzWHDvBiEZEEIjdLFo+ZpKWl0VdffaUGOBMTnD+gbG5jqOzL967DehraNwYsYfP2tKBD5e5c2vdqc7Q5XzYtnldfz35+CU14bx2lT7+Eiw5l+7YPkGVTE3AEnsAV+Ppa8BzgefAkl156KSEAGsIuIAyDiDMREAJ3WL/BVRCCAUtPsutvC8iXNtaIhEQ66S9P0mkffUnp0y7ydEs5ZhMB4Ap8gTPw9pXgOcDz0J7gCw6CGDoizkRACNxh/QY/bwi8TcxShsWFv1prPmx5P23qTJq0amNzKFOevi7iPwTCGF+syAO8gbuvBM8DngtPor/gEABNxJkICIE7rN8wSQcCV0Gz7H/zJfMhS/vh0dE04sFnacwLyygqTZbbsgSixUzAG7gDf/SDL6S95wJx4yGdjV7pi7pIGb5FQAjct3j6vTQ9wzI8vHXX1eYfpOL1n9q+P3y5xy1eRVmXzW1TFmbz3XDDDfTcc8+1OWc+ADe1efPmUYOHCUSYTIJz27ZtM2dz72PhAVzz6afe2/T444/Txx9/7M7rj0RBQYHbh9of5ZvLBP7oB/SHXcFzgefDLF1d9MOcX/YDj0BrFgh8faQGFhEoXMMEZjPgUkzWQBq/bDUlZY/3WItVq1bRypUr6ZFHHqHi4o6njR/hKdsgVUwkMQuO4VxJSYn5lHsf6zbimieffNJ9rL3E119/TTt27GjvtE+OT5w4kfBS6k5BP4xb+h9Cv9gSfi7U82GrEMncExEQAu+JvWKhTsXrVlvIdTxLr9Q+NJb9hmP6Dzp+0JRatmwZ3XLLLcoF7b333jOdbd7Ny8trl9xLORbHvn37+D3TcWS/iooKwr0eeOABtQTYli1b2twLWvxvv/3WSsPHsfLy8lbX4gvgGK9YpAUvj7179ypt2lgPrDOKmCG4Hi+DMl6uTkslL1uHOqEcXIP74Hqj4L76awPXIb1nzx51rb6uqKioTZ1hvtB5MVvSWCfkix0wmMb+YwWhf+yI3efDzr0lr/8QEAL3H7bdVnIjL35bnrPZ+v04jGv2s4sUWbRXCMjom2++oZkzZ9JVV11F0JCN2jWma2NSEVzTRowYQQ8//LC7KFx3++2307Bhw2j8+PE0a9Ys9zlPCazdCJk/fz6NHj2a3nzzTbWv/yxevJgyMzMJWjHO79q1S53CVPEhQ4ZQbu5x17nXXnuNJkyYoOy80KAnTZpEp556qvLimTp1Ku3fv1/lve222+jqq69WdTzjjDPUIDHaCEGbITfffDO9/PLLtGjRIpo2bZo6hj/w4sB9v/vuO3Vs8ODBqo247/nnn6+msgOzkSNHqjoDB/hgQ1An5IVbHwYV8XVjltiBQ1T/cIQy86lO7+P5wLqnIsGFgBB4EPRn1a5cauQV6q1K/yvnUcppZ3aYffny5YQJICC3yy67TGmxmoSQ8Z577lER77799luCSQP2ci1Lliyht956iz766CPavn076cEzfd68Xbp0qXpJxPPCu3PnzlXaOLR3CAjvrrvuogcffFBpuLfeeqtb4wcBghxXrFjhLhJloQy8RK6//npFllu3blVkGxsbS3feeaf72nXr1hEIH4sAY6bifffdp4j/yy+/VNegDXfccYdKa23bndmUKORYI6tXr6bnn3+eHnvsMdq8eTN9/vnnSrsHftdcc00rLb93797q+uuuu85UUvMu+qf/Fdd7PNeZg3g+Kn/b3plL5RoHISAE7qDOaq+q1Qf2tHfK63HM1ht8090dXgeyeuONN5RWCfMACBhEqTVUfPavXbuWLr/8cho+fDiNGjWKrrzySneZIMYpU6bQOeecQ+np6coM4z5pSuzcuZM2btxIF1xwgSK4c889V13x4Ycfqq3Wcm+66SZKSkpqVRYGeK+99lr1sgBh5+TkKG0c9YJZBJo6XkD4mgDBIr1+/XplHkHh0LRnzJhBIPYLL7xQ3c/4IlIHOvkH9Tj99NPVF8n7779PZ555pjLB4AV21llnqXv++OOP7tLwBYDrTzjhBPcxc2Lwzfeo2ZXm453dt/OcdPYecl33IiDOvd2Lt1/uZidgVerEs7y6Cn7xxRdKy33llVcIPy0gxEMcmhSL5cJGDBOBlnHjxumk0tZB4FrGjBmjk2227777rjoGrdkor776qvJKgf0aZpPo6GYXO8xKhSlFC0wR0M6///57WrNmjTp3IocewAsG8vbbb5PRfg9zDwZcIf36HQ/+BBKHGM1E6oCHP56uwdcKBC88YIOvEqPXDe5rfDnAJORN4GKI/ir55nNvl3o8b+c58VigHAw4AqKBB7wL7FfAVVVpuZCE4aO95oXpAIT866+/un/QkiE4h8//BI6nYRxshParBRq5vh7HjESmr8EWA4QYvIRZxHiv119/XWnPGzZsUBo+zCggRp0H+1pAwtDeYUZB3WCqgGiCfPTRRwnl4PfBBx8om7M+p8vwto3krxbjICZcDM2iXfQSExMVNrCv6/vClLJgwQL1BaDzmd1C9XHztjP9Zc6j9+08J7oM2fYsBITAe1Z/9LjawF0Q7nxz5syhvn37un/QaqHtglxBvDBTQLsFScGHG7ZnLSBUmAug+WLQ8IUXXtCnWm1hasH9QHbGe2HKN4IvYTATpgjIU089Rfn5+fTiiy+6TSC6MORHvVDWxRdfrA7DtAOzzzPPPKPqB28Z2Llho9aTo3R+T1u8oNAulAnCx5fHJ598ourwxBNPeMriPgabNwY+8UWAwd6HHnqIYAISEQTsIiAEbhfBHpA/Is76WogVO45rr56aAvKG6LgZxmtAlCC0zz77TGmyGETEdbBbw7MCArv07Nmz6f7776d7771XafJae8U5o7zzzjvKPAKN3SjQeDG4h0FQaLR4UcAfPTs7W2nZMEcYNdjzzjtPab3w/ICdHAKShnYPF0DUD94yKAsEjnron/G+xjQ8ZxYuXKj80uFtA3s5Xmqog9ayje0x1gfukLCtoz548cGOj/EDvJS0pm683nhfc9pbf5mvN+7beU6M5Ui65yAg8cB7Tl90qiZj2Q0PRAEtTv/TF/Eknpy75nUqv/kiDGJOXvuzVzu4OV97+zBtgJR0zBbjddDU4fPchyMq2hUMnGIgMoNXJDISZ2fKhUcLCB1eLl0R1B3twgsF0tVy4G4In3Kr7a8rPkwbpp9MTTyobEXgKpo+44/urPBBh6sjZECLzd59UhKOQEA0cEd00/FKggQh+BTXAj9hqwIy2OvD8LPQRj2RN+oH0rRKXub2gbRhZukqeaOcFI7o2FXyRj5o85q8rZSDwV477d/796ctkzfqa35O4C4J0V8Bakf+OAoBIXBHdRe5PRcwa09L/IkjbQU+ynt3EZX+8LUuTrY9EAH0Tx6v4mNVEBgLz4lRsLwaJIpfrCLOREAI3GH9VtYyoQWzDrWE9YpqN36JvqbDLZsjYIKpPri3w8vkZGAQQL8oE5mXEAQd1Q5xVfCcGEXPeMWXgYgzERACd1i/lbDPMgbisLq41qDQBLsxpOuPHqGfeB3Nmrx9DkMkuKuL/kC/oH/siPn5gAslvGpgPolviTFvp3zJGxgEhMADg7utu+azCxsEGpTWxDMwOGXy6ujqTbCO4uZrZtqLq9LVm8r17SKA+CXoD/SLLeHnQj0fLYXAAwbT+yFJPGYh4lwEhMAd2HfQwovYAwPhWBHfA9pUdOYASptyvu3W1PICu1vmXkyH3l9suywpwDoCwB/9gP6wK3gu8HxA8Ky89FLzwh8J7IUj2rdddAObX9wIA4u/rbuXcsjTCnZLg8Cv+U8nj6SkN562VaYxMz67sfq8rMpjRMW/abgK5j58N/ky/GvWwtdpa7VLfbHBbAIBeackJ/u3MVK63xEQAvc7xP69AVYUL2ffa70s1vyGQhrV5LtFaqspjFZHpNCG8ARq5LSIfxAIpyaa3FhBM12lFMtpX8m2sBh6LTLDXRxs3jCbiObthsTRieYZCY5uQmhXHv+I+IHIMVFkVV0fOqk2j3zVsSCTP7mO0mTXMfoPE3lOePOiyqGNum9bn91YRRcxcfclaxN02qsNSvtnZKoaqISrILxNhLjbQ8uZx331f+7M1gdRrTWRE/WmjWVh9PvSgz5tXT8ml3muYjocEU/fJ2fRzrjeXL5o5NZBbqKTqkro9LJD1NdlPRhZR/ffmDKAeiUPIO9xDjsqRc71ZASEwHty71is2w/J/WlQdRkNqG2O2GexGI/Z+tZV0iVFO6k0Mpp+TuxLOfHpVBMhE0E8guXhYIyrnrIri+jkY4cppcH6Ihweim516GB0IuE5EAluBMQGHqT9G++qozn5WymBCcOf4mIXtR1xfZjMM+gQk0aTaOVt4A5jVLL4ZXrysUIaXnWEImxMyGlTuIcDFfxCfStzDFVGtJ644+FSOeRwBITAHd6BHVU/nbXlKwp+oaimtivDd5TP6rlKJo4dbFrJjU9jMk/gYkLZxALSrqARlcVM2iUU7+cXqe6zurBwWt5vNBVFdS1Ql84vW2chIATurP7qcm0H1pTR7KJciuQlxrpToAXujU2hfTHJtJ9/1SFgZollkj6B8R7Ev8HVpX7/+jH3Z0N4OK1IH0EHGG+R0EBACDwE+hkk/sfC3G7TxD1Bepg1wgMxSZTPmnk+m1oqguDzPoHNVJlsGslkTXtgTTlhfCBQAs374wwh70DhH6j7CoEHCvluvm8Gk8vswu3d9invrXnQ0EHkBUzsR6LiqKRXLJXxwGhPtKHDhp3MA46966upT10V9WMsQdz+Hl/whqE+D9PVioyRVChmEw1JyGyFwEOmq4kSXbVKE89gEuqJ0sADokeZyEHm5Uzmx1hLV7+WtD/NMDB/JLJGnchErbacTmoh7VQm7kg/Dzxa7Y9CfvlB8z4W0bzIs9VyJJ8zERACd2a/Wa51JA9oTi3ZQ9kVRZbLCFTGRib4mrAIdluMpNrwSKrhX214BDWw+cDFP5x38cApPGOgyeMvPD4ieBuOLbcd7Y9udFFMYwNvGyjGxb8mlzofqHZZvW9OQjqt6z1Etd9qGZLP2QiIH7iz+6/LtQfZrekzjPbwAON5R3Yzkbm6XEagMoCE45oaKI6JN5Slhl9a/+0zlCdT2V+aLpRxDIa2C4EHQy9aaAP++eG3PbVkr5oRaKEIyRIABDADdl3vweLjHQDse+IthcB7Yq90U50w0eNf6cNpaPVRmnJ0H6XU+y4IVjc1IWRuU9orhtanDqLdsakh02ZpqHcEhMC9YxT0V4AU4K899lgBTSzLc5RZJdg7B+aSjTwl/qfEfsrOH+ztlfZ1DQEh8K7hFbRXYxBwU1IWbU3IoAnl+TSOyRyDfSKBQQCDs5uZtDclZVIdD9aKCAKeEBAvFE+oyDGK4oHCUzjg0ngm8u6aBi6wE9u2eyni/h8HChPilifCGwJC4N4QCvHzcL1DLA+YVzDjUMQ/CGCGKswkiCWDryERQaAzCMi3WWdQCuFrQCbbODgVfgiOhVCoozhAE/ynRewhAH924IqQvBJ8yh6WoZpbNPBQ7Xkb7Q5nrRwBm0YykQ+rOhrQGCs2mhGQrIhZsisulbYzcWPguFG07YD0Q7DcVDTwYOnJbmwHSGcPe67gBxNLf44LAlfEoUzm/lykoBub6NNbYfGL3Uza8PbJY997MZH4FN6QLkw08JDuft83HnFDhtaU0kBeESirriIkTS0wjRyKSqADscm0OyZFxXfxPdJSoiDAEfcnT5rkuyWwBVFBoBUCTSqCX38e/MzicKvQ1INRQ4eGDc36EIfLzePBSATjCu3FLFo9BLLjRwTEhOJHcKXoMCYzhIqNU/7lwAPuiWmspafVV1EaR0VUP047ISYLJtUUc1uKOQKg+iHNZC3ufvKkBwoBIfBAIR+i9wXZIQYLfkaJa6xX4VsRzhVhXNWvJaRrHId6RfRAf64liQiGiG5YxX7YCGVbzmEG1BahbLHPv6pwWbzZ2GeSDjwCQuCB7wOpASMAcqyK6sULPGAtTc/Si8O+wn0xlslchYLlLeJ0wysGIWNB8CqNLe83toSWxaArCBqhZpFG3PHmULSRVM2kDZt1PYepFREEnIaAELjTeiyE6wuSrY+MoGMkixeE8GMgTTcgIFO+DGBIUhAQBAQBJyEgBO6k3pK6CgKCgCBgQEAI3ACGJAUBQUAQcBICQuBO6i2pqyAgCAgCBgSEwA1gSFIQEAQEASchIATupN6SugoCgoAgYEBACNwAhiQFAUFAEHASAkLgTuotqasgIAgIAgYEhMANYEhSEBAEBAEnISAE7qTekroKAoKAIGBAQAjcAIYkBQFBQBBwEgJC4E7qLamrICAICAIGBITADWBIUhAQBAQBJyEgBO6k3pK6CgKCgCBgQEAI3ACGJAUBQUAQcBICQuBO6i2pqyAgCAgCBgSEwA1gSFIQEAQEASchIATupN6SugoCgoAgYEBACNwAhiQFAUFAEHASAkLgTuotqasgIAgIAgYEhMANYEhSEBAEBAEnISAE7qTekroKAoKAIGBAQAjcAIYkBQFBQBBwEgJC4E7qLamrICAICAIGBITADWBIUhAQBAQBJyHwf7A4Pt5ebIKlAAAAAElFTkSuQmCC;" vertex="1" parent="1">
          <mxGeometry x="180" y="220" width="368" height="631" as="geometry" />
        </mxCell>
        <mxCell id="lP1FfKmS7V5iOzCVWeoo-4" value="" style="shape=image;verticalLabelPosition=bottom;labelBackgroundColor=default;verticalAlign=top;aspect=fixed;imageAspect=0;image=data:image/png,iVBORw0KGgoAAAANSUhEUgAAAVsAAAIeCAYAAAAVsqyvAAABR2lDQ1BJQ0MgUHJvZmlsZQAAKJFjYGASSSwoyGFhYGDIzSspCnJ3UoiIjFJgf87AzCDPwMVgwmCUmFxc4BgQ4ANUwgCjUcG3awyMIPqyLsisN/9m2HzUyJa3nngi9YWddiamehTAlZJanAyk/wBxWnJBUQkDA2MKkK1cXlIAYncA2SJFQEcB2XNA7HQIewOInQRhHwGrCQlyBrJvANkCyRmJQDMYXwDZOklI4ulIbKi9IMDj4urjoxBsZGJo6kHAuaSDktSKEhDtnF9QWZSZnlGi4AgMpVQFz7xkPR0FIwMjYwYGUJhDVH8OAoclo9g+hFj+EgYGi28MDMwTEWJJUxgYtrcxMEjcQoipzGNg4G9hYNh2qCCxKBHuAMZvLMVpxkYQNo89AwPr3f//P2swMLBPZGD4O/H//9+L////uxho/m0GhgOVAHeWYP7J/sz0AAAAYmVYSWZNTQAqAAAACAACARIAAwAAAAEAAQAAh2kABAAAAAEAAAAmAAAAAAADkoYABwAAABIAAABQoAIABAAAAAEAAAFboAMABAAAAAEAAAIeAAAAAEFTQ0lJAAAAU2NyZWVuc2hvdEWMvnwAAAI9aVRYdFhNTDpjb20uYWRvYmUueG1wAAAAAAA8eDp4bXBtZXRhIHhtbG5zOng9ImFkb2JlOm5zOm1ldGEvIiB4OnhtcHRrPSJYTVAgQ29yZSA2LjAuMCI+CiAgIDxyZGY6UkRGIHhtbG5zOnJkZj0iaHR0cDovL3d3dy53My5vcmcvMTk5OS8wMi8yMi1yZGYtc3ludGF4LW5zIyI+CiAgICAgIDxyZGY6RGVzY3JpcHRpb24gcmRmOmFib3V0PSIiCiAgICAgICAgICAgIHhtbG5zOmV4aWY9Imh0dHA6Ly9ucy5hZG9iZS5jb20vZXhpZi8xLjAvIgogICAgICAgICAgICB4bWxuczp0aWZmPSJodHRwOi8vbnMuYWRvYmUuY29tL3RpZmYvMS4wLyI+CiAgICAgICAgIDxleGlmOlBpeGVsWURpbWVuc2lvbj41NDI8L2V4aWY6UGl4ZWxZRGltZW5zaW9uPgogICAgICAgICA8ZXhpZjpVc2VyQ29tbWVudD5TY3JlZW5zaG90PC9leGlmOlVzZXJDb21tZW50PgogICAgICAgICA8ZXhpZjpQaXhlbFhEaW1lbnNpb24+MzQ3PC9leGlmOlBpeGVsWERpbWVuc2lvbj4KICAgICAgICAgPHRpZmY6T3JpZW50YXRpb24+MTwvdGlmZjpPcmllbnRhdGlvbj4KICAgICAgPC9yZGY6RGVzY3JpcHRpb24+CiAgIDwvcmRmOlJERj4KPC94OnhtcG1ldGE+CqdZlEkAAEAASURBVHgB7Z0HfF3FmfZf9S5Lsi33XnHFGGxi03swLQFCCTUkG5KQbPKRTdklPWQ3WUjIRxJC2IRsAkkoH6GDwXQwGGMbjHvvRZLVrF6/9znyyMfXV9JtlubOfeb3k+6958yZM/N/5zxnzjvlJM07+eR2YSABEiABEjimBJKPaepMnARIgARIwCNAsWVFIAESIIFeIJAa7Bzv/OOnwTZzGwmQAAmQQIQE2LKNEBwPIwESIIFwCFBsw6HFuCRAAiQQIQGKbYTgeBgJkAAJhEOAYhsOLcYlARIggQgJUGwjBMfDSIAESCAcAhTbcGgxLgmQAAlESIBiGyE4HkYCJEAC4RCg2IZDi3FJgARIIEICFNsIwfEwEiABEgiHAMU2HFqMSwIkQAIREqDYRgiOh5EACZBAOASCro0QTgI2xm1rb5f2tnZJShJJTub9xEYbMU8kkGgEnBPbhsYmWbJyvRysbVDBbZUFZ8xVwVXVZSABEiCBPiTgVLPvYG2dPPfmUvlwV40ckP6yZGOpbN25tw/x8tQkQAIk0EHAGbGF0D75yntS1pwjF13yGVmw4BK5/Mpr5a9PvSzt6lZgIAESIIG+JOCE2MJ1cP+jC6U5Z5gsuPgK6Zffz2P68aqVsnbLbimvrO5Lxjw3CZAACUhciy1arAcqquW2n94nE2adIZdccrlkZmZKS0uLPPPsk/LYo0/KzNnny5OL3qGpSYAESKBPCcRtBxmEdtXGbfLgM2/Ll7/+HzJy5GgPZH1Dvbz80kJ5/fV35VOX3Sg7d26RfQdqpKW1VVJTUvoUNk9OAiSQuATitmW7Y0+JPLd4jdz8L1/rFNrGxkZ5443XZdnyVTJ/3rmeVTESAaMS6uobhZ7bxK3oLDkJ9DWBuBRb+Gjf+XC9TJ89X4oHDvYYtrW1qcgulSVLlsvkibMkLS1dWrU129JYJdU1NfI/j72gLoeqoLyrDtbKynWbBOkykAAJkMCxIBB3Ygv3wbJVG6SsIU2mTT9eUg65BrZs3SxPPfW8jBszXXJy8jxWTU0N8vzLz8m+6iTZUposL769XFpVlBEgznAt7C4pk5/d9TtZfv+98t3v/UJee3eZt92LxH8kQAIkECMCceezLa88KB9vOyCnn32pimquh6FB/bS/+c1v5cQTzpD8/IJONHV1tfo9RebMOU8yMrLknwsfldFDB8jQgQPkP371J9m9v0xy6yvl6/1rZUxGkkyv3yevPbBVdu76tFx1qR6TntaZFr+QAAmQQDQE4k5sl67eKLWSJcOGDffKjZEH9/3hPhk5fJIKbdERLMrL98tVV35OsrM7RHnBhdfId+/5tSeil11ynezYtU0Klj0qg9NqJVUnmRUpjUtTauSJx/8sf6mrkeuvvkwyMzKOSJM/SIAESCASAnHlRthfVi7Pv7dBrr/uRq+scCm8vGihbN28R8aPn3pU+SdMmC5FRcVHbL/phq/KNVd/SbJz8mXypOmyfeyZ8mxtrlS1dHSfQXSvGJgkK596QvbuKzviWP4gARIggUgJxI3Ytra2yb0PPamzwq7RtQ46hnCtXbtaFi16Q84+8+KQy5+UlKwL1Ji1EpLUxXCm7J5yqTzZMlTerWqXBrh025MkMzWVM89CpsqIJEACPRGIGzfCyvWbJbP/GJk6ZZpXJvhjX1y4UKZNneMTz56Ke/T+JF0VbPaJp8qO4qGyes9G+WC9ToCoLpHRp2Okw5FuiaOP5hYSIAESCI1AXIgtRg384dEX5Fvfv9srFdwHL774vLS2pEtBv/6hlbSHWCNHjpOWoSOlesIJsnzpq3L28SdIdlZmD0dxNwmQAAmERiAu3Ai79pbICXNOldzcjo6u0tISqayokUHFwzqHfoVW3O5jpaamSVH/Yplxwmmycst+qa1v6P4A7iUBEiCBEAnEhdguX7NJJk2eKvv27ZVt27fIwpdflA+WrZCmpkYpLd0jJSW7paR0r37ukTodRaBO1xCLHzxasboU3l+1XUrLuYBNcELcSgIkEC6BuHAjjBk+RFatWy7LysultKxU6mprZVBes5Ruf9t7E0O7dmi1tbfpjLE2aU8rlDHjT5J+/aLztw4eWCzv6yLk9Q0NMn7UMI65DbdmMT4JkMARBOJCbGdNGS/TJozWKbg9Z/etpSvlL8++KbPnflLS0yMfIztm3Ax59cO1srWkVcfibpDJo4vltJNmqKh3tJrx8oeOkQ34NKMbjmDLHyRAAiTQSaBn9eqM2rdfQhFa5HDOzOPk4ecWe+siRJPjAQMGC/6am5tk3bqPpOTAGq/1/PbyTVJdWy/19bWeGyMtJUnyc7Pl1msvkTHDO9ZpiOa8PJYESMBNAnHhsw0H/dOL3pbho2d669qGc1xXcbGgzYABg6SkrFLeXLZZknPHyYjxp8qICadJe0axnHPJtZJeOEyamlu6SoLbSYAESCC+Fw8PZr9UdTVUVJRIc0tzsN0RbYPr4J0Va6WqKUeGDh3trb+QkZ4u/QcWyIwZM2X04P5SkJcTUdo8iARIIDEIONey/dS5p0p+ygF5/dUnYzYDLDVFVxibNkcmTJjh+WexYtiKj96RK6+4UtauXSOFOcmSn5edGDWGpSQBEoiIgHNiizVsM3VkQs66V2TjxlURQQk8aNCgoXLWGQskK6tDUNevX6kt2ikydMhQqdbFboYU5UqmtnQZSIAESKArAs6J7SuLl0nuuqXy9eHJUrH4Udm9Z3tXZY9oe0XlASkr3yFXXH6l7N69WxqqSmT8yKEckRARTR5EAolDwCmxLdM3MexYslhmtFZKro4SuDbrgOx761HZsmVdUIvW1h6Uxsb6oPuCbWzXFvOKDxfLTTfd5LVy9+j7zQb1U99tQcfbfIMdw20kQAIkAALOiC2Gv76pb1moXvaeDD30RD8io11uTtkqTS/fJ08/9RepqqrwrI61FeAKePjhX8rWLav17Q2tIdWGD5YvllNPmyuTJk6W6uoqWfzmS3Lq7Gk6sYLjbEMCyEgkkMAE4macbU82WrNxi6x84h9yTVGb3kE6xA//+6eq4A5olN/tflf+908fSUp6jqTrguBnzZkiL//pP+W/Hvh/us5CmfTvP6ibU7TL/v27pX9Rtpwy7xRvPYaXFz4jC045XgryO9Zr6OZg7iIBEiABcUJs8aLGN154Sea0Vki6rlfrDzWt7bKwKU/O/vx1ctc5p3S+zhytUcz8Om/edHnq7fXeIuNdzQSrqamW0gO75LzzzpTi4kGyas1K2b91tdy64Hr/qfidBEiABLokcKQydRnN3h0tLa3y8BPPS+3bL8txOgTLH5rVtfB2c64MX3CFXHD2fG99g5SUZG2ZHl5A/LQ5MyU/XcVUF7IJFjCDbOOmj+XEE2fKrONn6UI4W+XFf/5Nvnb9pV46wY7hNhIgARIIJHCkOgXutfz3tl375O7f/lmaXnhUPlV8dCN9RX2KJJ98llx0/hn6LrHgQ7PQmr3ligvknXeel7bWI2eBtakv9403n5e5c4+XM884UyorK+VVdR9cd+EpMqDo8IslLcfE7JEACVhAIG7Fds2mbfLcgw/KlJUvy7l5raKDDwQug3J9lxjebLO3sU3e7T9RPnPlpZKbk9Ut6hFDiuXiU6fIth2bOuNh+cannn5IrrrqMjn77HN0HYQmeeG5J+XE8QNkyoRRnfH4hQRIgARCIRCXYlvf0KgtzNdk8KYVMjWrXepUZG9Z1Si/3t4sFeo7wLpc39reJj/54beksF9eKBzkpsvPlxXLXte3P7RI2YH98vyLj8g3bv+azJt3qrd047PP/FMGZTTo6IOpkqKv0mEgARIggXAIHP3sHc7RfRC3qalZnlOhbVm8UGYVJkmZtmB/uKVZ7p6sr8jR0jS1Jclv9qfKn++/S/JyQp9Cm6YveLx2wTx5/q3npFBnhN1xx3dlzOixus5Cubz2yguS3Vwil198tqSHsMxjH2DhKUmABCwnEFdii1EHTz/3smx+8u9ycX6b7G5sl0f3tcj3xkFok0QbuPJBQ6qccuWVMlIXHA8nwHc7d8YE+WhbqXzxy9+QnOwcncCwXFZ98JaMH5wjCy44ly3acIAyLgmQwBEE4kZsD1RWy98eeUZa3nxGLitol0p1F7xZ0S4XDEiVwelJnutgQ0O7lE2YJVedeWpELdABRf3khONGy5Il70pTfY1U7dsiC+bNkImjh3M67hHVhj9IgATCJRAXYguh/dP//FUGr3xDPlGQ5HWG7WsSmZyTJBOzOyYw7NNW7vKiCXLV1VfJ4IGRvXE3PzdHpo0eJCs3bJMxunziCXPPlDxdGJyBBEiABKIlYL3YYmrtI0+/LOM3LpGZ+ToR4VCJJ2freFn9od4Db/TB7vR+Mv2882W8tkIjDcnqSpg0aqiMHVbsDRVLZkdYpCh5HAmQQAAB68W2pLxSWjavlWHtDSq0RmpFMn0DAjDk6/GkgfKPc06N+nEfr98J9RU8ASz5kwRIgAS6JOCTrC7j9NmOFl2b9pVX35aBu9bKAPXLogPsYMCaMU1t7fK7qjy563vfiFpo+6ygPDEJkIDzBKwVW7yKZsPm7VK9armMSm722rRlzW2y1Ke2GE/7UqXI6VddJSOGDHTeWCwgCZBA/BKwVmy379orT/31bzJs52oZnNHhPtiuow3MrFwI7duVbVI7+0y5+uJz49cCzDkJkEBCELBSbEvLq+TeX90nx+9ZKVN1tAGk1mvFlrXKqMyOYV5vV7VJ5awz5OYbPsP1ZBOiqrKQJBDfBKwT2/LKg/K179wpl9esl0lZpkusXZ4oadGhXsmSk5osHxxskz3TT5OrbrhGigcUxbcFmHsSIIGEIGCV2JbpyIPv/fguuU226dsWOoS2Tdu0i9VdUK0Lcl0+KEW2NYosHXWSfPHWm2XQwCJ2iiVENWUhSSD+CVgjtlhc5uGHH5cLqtfLEBVaBIw+WFfbJpvq2uXigcnS1p4kS1IHyg2fvUIK+YaE+K99LAEJJBABK8QWExdWr98suTvWyui0tk4f7Z6mdlmhLoNTCpJlQFqyvK/f804+TaZPGptAJmJRSYAEXCBghdjWaat2/YqPJL90t/dWXAMWs8Nm56fKGJ0tdlDXqX05bYjcePlFZjc/SYAESCBuCFgxgwwrbjUlp0qtLo/Yoq1ciCwcCVhgZrC+YKFZJy78pSxZvvKDL0s+1yqIm8rFjJIACRwmYEXLNjszQy679AIpm3GarGxI9oZ5IYsQ3HqdMfbHA2ly9pdvk9nTJh3OOb+RAAmQQBwRsEJswQtvVPjql26UlcedIb+qyJW9rSmyR1f2eqq1v5x1621y3umf4MiDOKpYzCoJkMCRBKxwI5gs4c0KP/g/X5Ctuy6SR594QepK9snpF54nZ847kQt3G0j8JAESiEsCVoktCGJZw3Ejh8m/3XazVB6skf4F+WzRxmXVYqZJgAT8BKwTW5O51NQUGVDYz/zkJwmQAAnENQFrfLZxTZGZJwESIIEeCFBsewDE3SRAAiQQCwIU21hQZBokQAIk0AMBim0PgLibBEiABGJBgGIbC4pMgwRIgAR6IECx7QEQd5MACZBALAhQbGNBkWmQAAmQQA8EKLY9AOJuEiABEogFAYptLCgyDRIgARLogQDFtgdA3E0CJEACsSBAsY0FRaZBAiRAAj0QoNj2AIi7SYAESCAWBCi2saDINEiABEigBwIU2x4AcTcJkAAJxIIAxTYWFJkGCZAACfRAgGLbAyDuJgESIIFYEKDYxoIi0yABEiCBHggkzTv55PYe4nA3CZAACZBAlATYso0SIA8nARIggVAIUGxDocQ4JEACJBAlAYptlAB5OAmQAAmEQoBiGwolxiEBEiCBKAlQbKMEyMNJgARIIBQCFNtQKDEOCZAACURJgGIbJUAeTgIkQAKhEKDYhkKJcUiABEggSgIU2ygB8nASIAESCIUAxTYUSoxDAiRAAlESoNhGCZCHkwAJkEAoBCi2oVBiHBIgARKIkgDFNkqAPJwESIAEQiFAsQ2FEuOQAAmQQJQEKLZRAuThJEACJBAKAYptKJQYhwRIgASiJECxjRIgDycBEiCBUAhQbEOhxDgkQAIkECUBim2UAHk4CZAACYRCgGIbCiXGIQESIIEoCVBsowTIw0mABEggFAIU21AoMQ4JkAAJREmAYhslQB5OAiRAAqEQoNiGQolxSIAESCBKAhTbKAHycBIgARIIhQDFNhRKjEMCJEACURKISmzr6utlf0mJtLe3R5kNHn6sCVRVVUlFRcWxPg3TJwES6IJAahfbQ9q8Y8cOKdcLOD09XQoLCkI6pqdIH65cKXV1dUGjTRw/XgYMGBB0X+DGWKUTmG48/m5ra5N1GzZIa2urnHTiiZKWGpXZPQTNLS2y9IMPusQxe9YsycjI6HI/d5BAohGIuGXb2NjoCS2A7du3L2bcJk2YIJMnTZLMIBdqOC3oWKUTs4L1YUK4IUJoEUr0SSQWITUlRWZOny7jx44Nmlw4tgqagOUb9+/fLwdraizPJbNnE4GIxbaktLSzHBWVlVKvLoVYhKysLCkqLJTi4uKokotVOlFlwpKD/TfDvXpjjIUQJiUlSU5Ojmenfvn5lpS0d7KxT4V289atAtcMAwmESiAiscXFigrnD/DdxjKkxuBRF/mJVTqxLFtvpgW/evXBg52nbGpqEtwcYxlS09JimZzVaaE1u0WFloEEwiUQkdiio6W5ufmIc+3Zu7fzUfWIHfzRpwSCuQ32qq0YwieAOr9u/frwD+QRJKAEIhLbfV20YsvKygjVIgKt2jEW7Imjqrpa0OJlCJ1Ai3YIrlm37qhGRugpMGaiEwi7W7qhoUEqu3gMRet20KBBYTPFhV+jj2fJyckC/19ahI+lsUqnuwKgYxD+6UZ9HIc7BXlN1z/4L5H/wICLNJiPNEU7mEx8pOX5/zS9zMxMycvLE/hEow0HDhzo8mkDHTxjRo8O6xQY1VCrI0Vqa2u9Dsw8tVVKkDIHJtoVAxPPsAgWD26gQBbgWa/1EPlAxx9GPeQrM6TjD8HSw35zPnwPhT1GXqxVocX5/AHnNk94SBP5xDmPCrrdjABBWlohjoqCumDyD86mQ9MfEekbtxj2wx2EbRgJZOqSP36onGJ1vga9Nqo0T/00P8E6uP15S8TvYYut6RiDgQN9f7gAIBr9+vULiSWGeKG1AD+iPxQVFUmuileoIVbpdHc+XGg7du48qszmGFwog/VGM2L48CMq/oqPPuq8IE1cfI4cMcLrCNywadNRQ92ytZNw4sSJgs9ogvGrQ4j8flukiY4y5NVcvD2dp0yFe8PGjUdFQxrBxMMfsSsGJs7YMWM8dsHiTT3uuCPqE1xYYBYoRuA/ZtSoIzpWg6WHc4bLfs3atUcJLdLZvWeP94fvw4cN826UmzZvxs+jwryTT/a2dTVcrkCvmSlaVoTtOqQS9gkM2dnZ3giQrdu2HdVnctLs2Uc0UsLhFIvzbdu+XdDYMmHY0KEyauRI85OfSiBFL5YfhkoCd8D1esHhroXhWX64Jg08ug7o39/87PITQr1q9eqgFw3EE4+6gaG/ijBakP4Qq3T8aQZ+P6gdTCtXrRK06nFRz5g2TSAQxQMHSo2KMG4WaEUgHlrXyKdpjeGmhNYwjvUHpLNj166jbjSIg9YPWpCDohiRgZvDTk0fNwCM7Ajm4sH46LzcXH+2gn5HOrjA/QH5R5mr1U7BRqIMGTy4U8gxugQ34WCtvpkzZgiEBrzAE+kiTYQJOq66UI81LHFBIx84L8LxeiwuaDwV4UaPIW54MshRUUKIFXukjRY87OgPWXounAPnQwMD5UQrO7ARgmO8m5J+4skPrdDAmx+OQ/kR0NDATTDwGsBwu1qtX8FcQ4iff2hUSLicoj1fk/qy1+s4bn/AtYC6B3sydBA4+rm3GzJmvCYqDB6fTeXwH1JeXi54nOguoFUS2ErCXRt35zk66H6StupCCbFKp6dzoUXrDyg7BAAXNkTFH1D+St+QIJRrcEAcxAfLDBW7yVrW6Srega4TVNZgIuY/V3ffzQUJoYWYQVgDAzrKjHAF7jO/cTOB2PoDbgKw1dyTTuoUEf/+wO8Yhje2i/G4YGAegcEg95D440IdqBNYjNBCwPw3d7ScwBYX8zBtVZqwUVu9RqRixR4t5hH6JBIYBqo44oaAP9xgkRfkO9CW/uPgcgqsM/79+I7jhw4ZErjZu6GgwzNY+uZmHgmnaM6HTNZpHQkWUIcZDhMIS2zNeE1cBAhd+WfhD+wu4PE28DEQj3YwOi4uVFxcTD2FWKXT3XkgRubiRTzku9TXERhsjGmgbw8XWGCA+E2dMkXgMkHrMlgrFv7ESALyCDYQG7RawDTYBY6bov/GEOxcgTcaxIHwGB8jWmyBTxvB0gGnYK1ouCf84YDerBD8YoMnqq0Bw63g1zYh0N3ir3+9zR55CnZjM3nFZzCx9O/Hd/ANFg/XBmbn4cnKH/rr02Q0nCI5nzm/3xZmGz5DdSf6j3H5e8hii8djPPrAqKYS4OIJdqHhQofhuwq7du8+ahcewfwhlKmesUrHf97A7xAq+Dz9wbTEsC2YzxOsegqBHYHByms6X3pKK3C/ETC0skwI9hSCfeYGauL5P9GyDuwMhZ0CBQwt/FBCsBso6ooJcDOg5VaADhZfmmghBT4toUVsQqAN0LrrrsV+LNmbPB2rT7SmUf9g22lTp3puFLhi4M6INSeUobvzmTKiRT9On1yMyyDwt4mX6J8hd5CZ8ZqBLTC0mAI7BdCywgUf7ALHBRXYqg0m2D0ZJlbp9HQe7B+lj5FYBwItXPij/bPb4M8LDN1d6IFxze9kFfWjwiHf5FHbe9hgOlf8vnPcIPFE4m+VIxkIEx5B/eJmkjePpuY3PuESiDTA/4p8+G8i8M/DVYEWuGnVDg7wVQdjDDcMjg0WUL9wo0DLPpQQS/ahnC+aOP4nKTQC/A2BY8Gpu/P5ywFdQP3CUx2uZ3+DxB8vkb+HJLZopcIHiAvFDx/g0NJFp0WggMK/FkxsAzsZkAYc/+GGWKUTynnRgscjvwkQoX36uAvh6uqCN3F7+xMznJAnVPzAFh9aQ4Fii/yhdTlabyiBIbA1if2m9RIYN5Tfxp0R6Joo1anfEFvcJFDHIMr+EExEAv3I/vj4jk6b0KQ28Ei7f3fH/1hw6u58gaQgsF25FALjJuLvkMTWjNeEoH6wfPlRnAKFFhFwweOxJhC+v1VjEorkLhirdEweQvlEy3aXdhYZHy6EAY/GGAJkSzD+SohqT/5Yk2fcSOF7DbywjgVj3IADxRYiC9816gzyAVH2h5aA2YrYhzHCeHTuKgRzy3QV15Xt5GS3JUMS272H/GqBflVTNDw243E0MOAiChTbwDj4Hclj97FMJzBttOwxtMVfRjyioxcaNxpbxNbzeWorEaIZ+ARiyoQWH4ZK+QPKALdPoIvIH8d8784Xb+J094nOI3TyGJeBiWtGp/hdNGYfbmqBAfkI5voIjJdIv8nJbmv3KLbwweDixMWLsbVdhY91zGzgUA9cwHg89ffOBmtxtOjFHm6IVTo9nRc3AgiBX2jhC4TQBrbAekrrWO83LgK0tjHIPliAIL8fZB3aPdo6DxTbYLOAgj3FBDtPd9swiiVQbNGK9sap+jq+TBrBRBV+XoYjCfQ1J9wA4caC2y2Sp9UjS+Perx5HI5jeYvRKdheCDS1CfNNZY44NJpKRjCeNVTomX119woWCzhh/gCjYJrS4KZgFZvwdY/584zv8uP5RCmY//H3+Gwq2Z/hGBJh4wTrNzL5QP3Hj9t+AzXHB8oV9wUQEoyQCZx6adODmibYFbtKKp8++5ASdWLpsmaxes8b7NLoRT/yOdV67FVu0Nszg+K5cCCaD2B/o88M+QEdrygTc8QLTQmvJzBoy8QJbydiO2WkmxCodk15Xn8E6HfAobkKwTiSzrzc/4Z9FXtDqDnbR+fPS1Y0TrVt/QKdV4KMpzuO3J0StNsAtgTS6EzvcqPzjaBEf4tvVuMxg+UCd2RIwqw3pwB+MCz7wxoF9sQ5G7HGd4M0gps4GDo3Def3+b299hIDM+Ot2wK4jfnbncjsWnLo7n8mYZwsdB22eegJ/m3iJ/tmt2JpxrHicDOzZDgQH8TPTJP37AN4/8wf7RgaZM42LxFzEiG8eif1pYb633/ixSsd/jlC+Yxgc8ghfLS7swICREnjMNeUJKtgBExaCTWAIti3wXPgNJpjfjuAfCuRtCPIPF2WwgBahf1wtbp6YbOIPsCfqBc4JQd2oawEEu+H0JHZmYoxJG09GXT0toO4FDuLHcZithynfuKHDFhA85A1pwy+MECv2wQQU58X5sOwixNQMNQs2PA6LjUOM8aT08ccfe3nz/4Orzm9vcPYLtIkbbJvZFw2nSM5nzmtuMua3+eTi6oZEx2fQtRHwqIihNcYFAJ8qLjxcYDCo3x/jtWxUWNAy3RNk8QycBpMh0AqALwfpoLWEC8v06iMOKhouGFRgXETBAvJleq6RRqzSCXYu/zYMTQoMaOF5i+7oIzFaKv6bAMqKJwK4OtBiwQVpWkEmHQgyWqCY/QQ+uzWOEWcTB8fgwu2upYpjt2zZ0vmKFnBEKxF28Q/8R5pIHz54LCYU+CRhzmlcJujYhI1wA8WNw+8+gF8OZYItAmfLmXTABgwCW7BmP+oBhNAMncP75bCtqwBO4BF4PpQXwo7zQYjgopigr1bC2FnUr1ixR73HDdZvZ+QV50C+4MM348VRL80ToSkPXGXgDl91kjZMgrX84QbCtQX7oT4EdmQiLdgB+03dN+mbz0g44WYZ6flwXtgtsEGF7Rgx0p1NESeRQlCxNReSHwTEBZXFm92jImICjP+R3qkDOzzMfvOJiwTgTS85Fs1AxQg8DpUQFyj+zD60GMxCH2ixoGVmjBirdEw+Az/Rqg+8MSAOzj9h3DhvwgO++1uE2I8ZNfBBfnxoARtsCwy4qaBTCiMdgrUOIY5o4ZtFTAKPx28s/QfxMwH8kC5a3+go87cWsRgNXvzYldAiDYgJBAS8TdnhA8b2wBaMaUnhZmDyAJHGkCy4ivDXVSsa58Kyg6hTSD/YmGzE8QekB/FH/gLFCjYAJ3A3jYFYs8caE+j09QsuzosbBcabmwAxxE0S14w/Lvaj1T158mQxLhswztd0wQxpoD7j5m4aOiZN84kbFJgZ+5jt/s9wOQW73k16oZwPDGAPf/1A3cNwPobDBJJ06bejF9c8vP+Yf4ORsMIVRBsVDwuRQCC8VoxuR2sYF3VPIVbpdHUetESNoKDFiBsAKpkJaIWgYuJCR55xwbkWTMsYPmu04nCzREDLt13tGMnMIYwLhsAEe/Tuih8EDC1F07GK83bX+u8qnUi2++sZnlwg/v564E8Tj+aoM2hxo277+aAhgboe+PThPz7a773NCdcsnrTgynKx/kdrjz4X22gLwONJgARIIB4IdNtBFg8FYB5JgARIIB4IUGzjwUrMIwmQQNwToNjGvQlZABIggXggQLGNBysxjyRAAnFPgGIb9yZkAUiABOKBAMU2HqzEPJIACcQ9AYpt3JuQBSABEogHAhTbeLAS80gCJBD3BCi2cW9CFoAESCAeCFBs48FKzCMJkEDcE6DYxr0JWQASIIF4IECxjQcrMY8kQAJxT4BiG/cmZAFIgATigQDFNh6sxDySAAnEPQGKbdybkAUgARKIBwIU23iwEvNIAiQQ9wQotnFvQhaABEggHghQbOPBSswjCZBA3BOg2Ma9CVkAEiCBeCBAsY0HKzGPJEACcU+AYhv3JmQBSIAE4oEAxTYerMQ8kgAJxD0Bim3cm5AFIAESiAcCFNt4sBLzSAIkEPcEKLZxb0IWgARIIB4IUGzjwUrMIwmQQNwToNjGvQlZABIggXggQLGNBysxjyRAAnFPgGIb9yZkAUiABOKBQGo8ZJJ5JIF4JNCvXz857/zzZc7cuTJhwgTp37+/JCcnRvumra1NDhw4IBs3bpT3lyyRlxYulKqqqng0Y8zynDTv5JPbY5ZanCZUW1cnDQ0N0tTcLK2trXFaisiynZKSIulpaZKZmSk52dmRJcKjjiLwxVtvleuuv16ksUJq1z4sDdtfkqaSD6W1dp9Iu+N1LClFUnIGS3rx8ZI56jzJOe6zIhmF8tBf/yr3//73R7FKlA0JLbYQ2eqDBxNOYLuq3BDe/Lw8im5XgELYPnrMGPn+978vkyZPlsq3/0OqlvyXJElbCEe6G6VdkqXf3O9IwSl3yvp16+THP/6xbNu61d0Cd1GyhBXbSn2kqamt9bCccMIJcsUVV8i8efNkxIgRkpqaGN6VlpYW2blzpyxevFgef/xxWb58uccjNydHCvQRmCE8AhDae379aylILpVdT1wpKdVrvAT2pZ4gGRM/K/2Pu1iS8kZLUrLb9au9rUXaD26TA2ufkcYND8vglo561Zo/RYZ/+jGpbBsoX//Xf004wU1IsfUL7c9+9jP57Gf1MYdBHn74Yfn3f/93OeWUU6RFXSq7VIgZQifwpwcflLED22Tnw6dLanOZVKWMkcLz/iTJQ04PPREHY7btfUMqXvqc9GvdKm0ZxTLsmtdkS2myfO7mmx0sbddFSgxvva/8cB2YFu2//du/UWh9bHDTeeyxx6SwsFAGFhdLkXboMIRGAD5auA7QooXQ7mqfLkXXr094oQU93GzA4mC/UyW5sUT2PnW1xwrMEikknNjCR4uAFu1tt92WSLYOqaxz5syRq6++2os7ZOjQkI5J9EgYdYDOMPho4TpAi3bUzcucdxeEY3e4Tgo+9YrUZ00SqfjYYwVmYJcoIaHEFq1ajDaAj5aug66rONwIY9T/mJ6eztZt15g692B4F0YdoDMMAa4D1/2ynYUP4wuY5JzRMRrBY6XMPHZhpBHPURNKbDG8CwGdYQzdE5irY0MR+hUUdB+Re71xtBjehVEH6AxLdB9td1UCbKrz53uswAxjkBMlJJTYYhwtAkYdMHRPYOLEiV6EbI697R6U7sWEBYyjRcCoA4buCaSNv8aLAGZglyghocTWTFjA8C6G7gkMGDDAi5CmEx4YuieAmWGYsICA4V0M3RPIHaNuFw1gBnaJEhJKbI1RE2UcrSlvJJ9mWmlSUlIkhyfUMWDlzQzTUmMcra1hWJEll3veKA8RmJl6ZiuzWObLEvqxLBLTikcC8KfX19fHY9Y78nxoCi47xno2YScj16ctB6AIOpVl9549smv3bq/nfvy4cVI8cGDnYVhMYrsOdq+pqZG83FwZq73WOTrjKB7De++9J7/85S/lz3/+s4Trm/y1zhTKyMiQW4OMFfz85z8vN954o5x66qnxiCWkPLe3t8u27dulpLTUqyeZygKtlBYd7YEpv95Y3UOuiO4SbGxslK2aTnl5uYwaOVKGZWV1Fz0u973x2kvyxqsvy/d/8t+d+W9sbJAXnv2nvLboRRkydLhcd9O/yPARHS0+RFq/brU88+RjsnP7Vjn9rPPk01ce9gWXlu6XZ3Xf0iWLZfrMWXLzF27TtS0Oc3vrjUXy/DP/FDyVfPrKa+XEOeyj6ATfh1+CtmyH6fhKiCjCps2bOycB4DfGxU0+1HkyberUuBValGXv3r3eIP7mQx1n2BZqwBTXFStWBI2+Y8cOqT00FThoBAc24kIeM3q0DDwkqOPGjpXjZ86U2bNmeUPGNm7aJHv36aIrPQTcsCaMH99DrPjd/cH7i+VfbrxSln/w3hGF+O+f/UC+/Y1bdfLIYHn6n4/IgnPmSmVFuRdn755dcta86fLe4jclLS1dvvrF6+X3v7nL24cp1jddfYk8cN89MnTYCPnpD74tX7jh8OiaRQuflas/dZ406U1s08Z1cukFp6gov3PEufmjbwgEFVtkBa0U09pbq4tH+AUJnSYYgxnMn4cWj2ths95wysrKui0WxNUILNYZOOecc7qN78rOzg60Q75d1IkhQ4Z4xausrDyqmMHqR/KhY4+KrBuCxQ8Wz8Zt//2fP/DELjBv27dtkfvu/W/500P/lDt+9HN57d1VXpTH/vEX7/Pu//qRnDR3vjz+9Kty1/99QO78xb3yq1/8RFemq5ennviHfLhiqSx8fZl37KK3PpRXF70gKz9c5h37ndu/LLd/+4dy973/I48+uUgWXHy5/PbXvwjMAn/3AYEuxRZ56V9UJCO15x5Cu0HXpTQVHxeU/wLB3Xbrtm3e4+CHH33ktYZN3Aq94NbrsXu0FblD3Q9Lly0TiDd8dKX6CLpy1Sr5QBdAKdO1L03AvnXr13txkR7WMjDhgD5uLlm6VOp0gsKxDg899JDM1NbaeG15DVRXylVXXeW5TwLP+9xzz0muulTuu+8+b9fw4cO9hV0C4yXKb2Mbv3sJ2zZt2eLVE9h73/793eKAWwHx0UJerk8QBw/N/KuoqJB1GzZ4dQx1CmlhPyasmID6iCcyHIv6tV2fNEx97M26tWnDOvnro8/JrbfdbrLmfW7etN77PHl+x5oJGRmZcu75F8sH77/rbV+7eqV88qLLOo8569wLtd4dlG1bNsmGdWvk7PMWSF5+x8yr46bO8NwQHy5/XxlVi9cqPveCzmPPX3CpvPv2652/+aXvCHQrtsgWXAqFOrC9qrraq7TBsgofLy6CMaNGydQpUzw/HqbFooI3NTV5iwjv3LXLaynDBYF9H69eLfUqqvDToXUEsUbA8Kw1a9fKaE1rlgodHjPxG7693gxYAet6nU540UUXeWV74YUXBH933nnnEdnANsS555575Jvf/GbnPnNxd25w/Avsv18FFHbEzRR1BnXHhA0qfLhBwz2FerJFl9jDAtPBAm7uEFSsPDZRx2HC/wvBREjVuoJ+A/iKEcar+6IZq5dp/UIA91Vr1njuLrgnhmseTP3s7bp1/4OPyFnnfNLLl//f7p3bPYHEkpYmDBhYLPv37fF+4vF/wMBBZpfO4usYhldWWiJoFRer68EfBg0aog2XEtm9q4NRUf/DfSw4FkKNVjFD3xLoUWzRikWlhdsALYnSII/TaMGYcZmmAjVozzKOHaQLmiAMGTxYBuiYujztPIHfFwKLVnO//HxvHy4wXHz7S0q84yDI5XoBpxxa7tCs8o7W9tyTTup0cRwrfM8//7yXNFbBKlDhuOCCC+Syyy6TRx99tPOUixYtkgsvvFBuv/12+VddMi6RA2yHm+dB7ThFSFYhwY3WBIgvbI2AfQgNXdxA4cJCXTFuLPw2LVd0ymZpJxqEeKi6K2Ab/NUfatniCQmtaNQTBAj1CH3SyNY6akvdqq2t8a4nL4OH/qWnZ3iCiJsFxBGNDBOMqwadarW6L923D3HS9NpsVPb1dR1LhvqPTVefLwJ8uAx9S6BHsUX2MC518qRJXk7xaGZ8kybruDAgpmh9oMWCENhqgfCagPSO+H3o4sPjH0Y5oLKgguEPHTDH6WpK+YcuVJPGsf5EK23GjBlHdABikZYt+mhrAr5P0Zb8I4880vmYa/Yl2icGp+NpZMa0aTJz+nTvaQatWRPwBJOpIgnXADomEQLriImLGzZatHjkhwsKbiQzIQVxDtekjiPStD6ZJwm4G+DSgUB7cbXeQWwxWsKWuoVW64GyjpZ5RwlEKit1NMbocd51gVZuVdVhf3d1dYcbDR1ixdqKrfbtw/FIa9jwEdoC7mjRmvjYh3Ryc/Mkv18BfjL0IYGQxBb5w4LS6HFGWKv+1FbfIyBaEss//LDz0c2L1M2/wIvFHxVDh3DhoCXk/8NrW3ozYJbZypUrpVrdJya89dZbMn/+fPPTczO8/vrr3mPtd77znc7tif4FTzpogfo7DeGfX6/1ZviwYZ749cRos4oybngTdOghbuahBnPDDibkttQtDPFC69W4DVA2dHCNGt1xfU2YNEXWrv64s8gb1q72vg8bPlJGjhotH634oHMf/LRbNm/who0VD+pwL6xf29Hhhkjr1qySMeMmdMbnl74j0KXYQvBMa8FkDy4BjLnF42HKoZYD9qHzzHuc00e7wGPMsaF+Zqmowj+MVo0J8Mmhc+1YBYgoRNP8YUjXxRd3TLu84447ZJf6A7HOK1wIcCeYgMdZdJz94Q9/kN/97nfyyiuvmF0J/2luxng6QX3ZqB1WQ9V/ihZmT+NV0DmGR360htFCDadOmZuycTvBEHBRQbj7om4FqwgYaQBh/e43v+J1et3/27u94VmfuuIaL/p1N35BHnzgN97IgzWrPpKf/ei7cvFln/Fap5/+zHWeuN798x/JDh2De8e3vur5fz9xyhnqXsmW6278F/n5T78nK5bpSxZfeFqQNtJj6HsCQSc1IFu4QIL51NDBgcW327QFagLEsFkFsk79tOgoQWg4dDxeJojgb2ngkRAXgAnmwmxTgYfbAOMzvU4yHceJCw2PnZhcgQAhRifMJH3MhNhFE4wrwwirSevcc8+Vl156yRPXW265Re69917P1/yNb3zDe5OBiWc+sf4rRi7cdNNNXuvNbE+ET9NxaeoDbIthcnjagX8evn4zMwx1A35b+P4RcENF/TCP/KaOoHWKgJEnsH+JCi8C0oSYevt9binUJVOHUH8wIQcujNEq1qhT6Ew7Tt1gaHH3Vt3yMtzFP7hJfvvAw3LTtZfK/BMnamdYsfz8l/cJRhYgXHTJFTrG9i358uev9X6fdsa58pOf/9r7PmLkaG842De/9gX5pQoujrnvj39X/3bHxKLbv/tDWa/jei869xNe/OtvvlWuvYFi68Ho439BX4uDmUHmgkBLFu4DI0zIrzd8RnuLj1efJgIqMAQQrRh0eqFlgiFfEEj4yTDMBxcdeo4bVYSRPi5K9FbjERF+PDxyFmmnxjgVc3RyID0EVEwcB58gAlo8eMScpr7ScP24u3TUBMJ2PX+owYh9sbbqE21NBbO4+godrhcYwAU2MkO4YCcIJzrJ4DOF0I5Ql4Fhhqcf2BWdXmixYmgWwkTtfEUaEFbUkbF6g81TQV6to1Vw84YrCQIK8USa6PhC/UFA/cJ5kRbqE9JFnUJaZhvqJG7Mpq6YuorjY1W33nn3XdlxdxKSlNTPBR9h4e0M+AeGmA02YEBx5w3HH6VOO7xa9cZjhnn59+GGg0kQEOpgoaqyQjL0xuSfWYa1EXaXh56/YOnGalvLnzoeqkfe3i7zP9FxY4hV2ramE1RsQ8ksWhOoyCagZeF3LaCVYlosJk44nzgerWt0lvmFHmngwsKFEm6IRGzDPYdL8bsT20jK6bcbhCbQroFp+uOHW5+QPgTJX0dN+rGuW5GKrclPb31SbHuLdPDzdOlGCB798NbASuwXWsSKRmjN8cb/dvisHd8iEdrANPi79wn47daT0CJ3/vjh1iekH1hHTYmRFuuWocHP3iLQZQdZb2WA5yEBJwgkdTxp4TXetgZbXAidjA4xs5VXrPOVkGJrOmBiDdOl9PCojYDHcYbuCYBVSk7HsKv2g9u6j8y9Igc7fO5gZupZImBJKLE1j6U7j+EwMlcqjVl4xz9qxJWyxbocB7TjL734eC/ZA2ufiXXyzqVXs3WhVyYwA7tECQkltmYYGpZHZOiewAYdbYKA4VYM3RPYqCMtMked50Vq3PBw95G5V5o3/d2jAGZglygh4g6yWADKbW+RwtYm6d/WKEX6md/WLNltrZKj23N0Ffcc9X9ltzVJlv5O08fZFB0Oj79UfbJN0d8m8/CStWqHSIuOvmnVyZz4a9bf9UmpUpecLrX6CuVa9Q9VJrXLgeRm2X3/XVI/tEBShgyX1EHDJbkw9BlKsSh3PKSxZMkSL5tVOoSPoXsC7yurk2+9Qcpf+4YMblkubXvf4Bt2u0AGNvnV7+hVnCw5x31W3v/9X7qI6d7miId+hYJC9c4T0aEt9YK/Ia0dn/1b66RIhTTdEndgUkaapAzS1ceG6d+4Sfo3WdLGHidp4yerII/QonaMoQylzC7Eefvtt+Uf//iHN/Ru9ceHp426ULZjUQYsrPSsLlxUvfh7Ur3kZ1KVMkaKrl8vna9/ORYnjcM00TFW88h0yapfL/lz/13y5/1ELtKFnPyz/eKwWCFn2TQOQz6gq4g6qVKGqZiObaqRMS21Mq65WoarwNoiqF3lG9vbG5ulZcdm76/+3deOiJqcmS5pE6ZLxsyTJGP6iZI+c46K8BQsXXVEPFd+LFy4UJ55psPvuPfQJBBXynasygGxeOivf5UbbrxTKtY+Kf2q10jFE2dL4adfoeAegg6hLXvsNClUoZXC6VJwyp3yl//934QRWmCIuGWbLm0yoemgTG2qkslN1SqwumycJS3VY3VRmXSTszIlfcoJkjnnNMmcf45knqiL06T37kI5Ji+x/DQtWqRZqjP1drEjMSy8f3rwQRk7sE12/e0MSWkqlfosnSJ8xu8T3qUA10Ht67d6Ldq2jGIZds1rsqU0WT53881h8Y33yGGJLVqs05sqZVpjlUxUgT08fyzeMUSX/6T0VMmcfaoK79mSdfoFkj51dnQJ9tLRGHaDUQfoDIOPduuh5TEptJEZYLRONb9HXwRakFwqe5+6WqSiwwVTnT9fn4aukdwx54voa7xddy9442h1eBdGHaAzDD5aL2iLdsil/5DKtoHydV3/eduh+hYZ7fg7qluxhc91fPNBOam+XOY2lsgAnSbL0DOB6qxc2TB4nGwYMl72Fg7Wsao9H2NDDEyPhuugPIGG48SaOwT3+9//vkzSNZgr3/4PqVryX+rxt2M9gliXNdT00BnWb+53PNfBen2Lx49//OOEE1qwCiq2I7UFe3p9qcxtKJHCQ4PbQwXLeEcSqNHFQDYMmSgfDztOSvM7Xm9yZIy++4UJCxhHi+FdGHVAkY2dLb6or7i/Tl+rJI0VUrv2YWnY/pI0lXworbX7tJPA8UaLjvzBhAWMo8XwLow6kIxCz699/+9/HzvIcZZSp9jCBzu/vkzOqdsjo1sOryUbZ+WxOrvbUjNlUfZQeSdrgDTp3Z7BbQIYpXDe+efLnLlzZYKuPIaV68Jd4yFeCcFFhQkLGEeLoXEvacdroow66MpmSRfOmd1+ft1eFdm9kh0vz7tdlSZOtteqf+aV7CGyUP8qk+n5jhOzMZskEBWBpI1jpR2TBBh6nwAmYbyWOUiezh0m5Tr5goEESMBdAklbx+gA2T4KEJtKHa9amZwhFSmZnuBUaEsPM77q9K9efT+Y+YWZYPiOWWJt+teiXQ74a03qeBRPaW/T2WSYUaaueG2dY3ZZlvrFMPMMM9HwPVvH+WFGWqHOUivSWWmFrQ1SoDPXCnTGWl/fbPDOihdzhsrTOcOkTsvJQAIk4B6BXhHbyux8OZBXJBXZ/aQip0AqcvUvu0BqtNe+rz0XGHGRW18jhbWVh//qqqT/wXIpqDv8ssfeMH21rrP6t7wx8lZmx1tSe+OcPAcJkEDvEIi52JarkO7rN0j2a897Sb9iKdHPxtT4fETOaGmS4uoyKa4qkUH6ObhqvxTVHPu1Atak58v9/cZJmbb4GUiABNwgELXYluX1l51FQ6V+4nQZdN4lMnLGCVJYWOhMryt6VfGiwi363rMP9XXtB/Da6AO7ZcDuzTKifKeMaGk8JjWhPjlJHswbJ+9k2jVc7JgUlomSQAIQCFtsm/Sxe3V6gWwdMk5Kxk2Xmowc77XfJ510UgLgElm6dKm3dsAafSEhXo89Ji9LZulYyhP0b6rOrov1lOWXswbJQ/mjPR91QgBmIUnAUQIhiS06slakF+r40IHyUUaB5PYfqO+9H+0hOeecc+S0005zFE/wYi3Tt81+/vOf93bi7a85+sZYBIxVntlYqeOVS2VWU0XMOt5WpfeTewomep2E3on4jwRIIO4IdCu2W3UQ/pvZg2WxPsrW6IgAE6ZOn+69dvriiy+WRGnRmrKbz8cff1zuvPNO76WEQwYNMps7P7FW77yGMjmtbp8u0hP9JBHY4j+LpunojMN26DwZv5AACVhP4CixxTiw9zL7yws64H5zWu5RBSjSWTBo1Y4YMUK+8IUvHLU/kTbceOONsnLlSvG3boOVf1xzjXxSJ42c3HBAB6xFHrakZcmdhdOkgcPDIofII0mgjwikfL1QfohzY6mMN9RNcK8+rr6mfsKKlOAjCAYPGSKZWVly+umny7Bhw3BowoZWXZjnrbfe8gQ0W5l0FcDyfb2BYZpuho75HdlSF5HoFuo4YRz7nj5p9Nng6K4Kye0kQALdEvCeSZfpIhF/06Xf9unEgp5Cdk6OF2Xs2LE9RXV+v3GhNOliLqGE/cr3gfxx8oxOXrhWl6CbrZ1q4YZZ6hO+tHaX/DNneLiHMj4JkEAfEkj+ReFk+WXBpJCEFvlMT+9o8WJ4VyThxRdflC996Uty5plnyk033SR//OMfQ36d8X333Sd/+Uv07yzatWuXfO5zn+t8s+e+ffskkjfuDh/eIXjhvo4ZNzUwB/uylPBnjF1es0vG6mLtDCRAAvFDIPkjHcYVSYhk9aKHH35YPvvZz0ptba186lOfkix99P7Wt74lX/3qV0PKAha4/jgG78RqaWmRHTt2CNwACHN1VabVOpQr3GBejY6lCiMJYP+d/ifIW+peCCfA73tz9WbB7DcGEiCB+CDQq13bjzzyiCxYsOCI1um0adO8xZaxoDCWoDt48KAnwqmpHVlrbGz0RDH70PAqYK2vr/fEcsyYMZ0tbQgntufm5nrjXyGAgwcP9qyApd4gsIMOjRpA594TTzwh+fn5nvDX1NR458XarmlpvbsKF9Z8+H3+eNmQlic3Hdyq6zqEVnHGNtfLiQ3lsjSjKLQDGIsESKBPCfTqoqoDBgzwWpD+d8Xjcf7NN9/0RBIkRutIB7x00IR77rlHPvOZz5if8s477wge3+fNmydDtLPueX2rKcL69etl1KhR3giJKVOmyNSpU+UrX/mKJ+QTJ04UbPviF7/oxcVrYCDUu3fvlk9+8pPetlt1seff/va33ve++PeqdkreXTBZMGkk1HCR+m4ZSIAE4oNAr4rtt7/9be/12CeffLLMmTNH7rjjDk88IYQZGYfXAejusRyi+qC+WG/z5s1yww03yPW6Gj6m05oA/ynepfWLX/zCex03ptjC9YCWLMbGwl9rAs4DoUeAi+PrX/+62dUnn3Ar3NtvUsgjDcY318lQfaMxAwmQgP0EelVsJ02aJO+99578+c9/lvnz58tTTz0lV111lTcbC+6CUMKsWbPkkksukQKduYXWKAKm0JqAzje4By7U99EjYCzs0KFDvfPh95o1a/BhbViuI0OeyA19pAGmCjOQAAnYT6DXxBb+VLwqGwEzz371q195EwL+8Ic/yJNPPimvv/66ty/wn+nEMttPPPFE81XGjRvnfccbYk0wflkzagLuAgTjAzbxbP58SoeG7U0NzXc8WV8nz0ACJGA/gV4TW7y59dJLL5Vnn322k0qSdqdfdtll3m/4T03ACwhNCBySZV63jf1mBIF/coUZIWCOj8fPVkmS57NDa90Oa6HYxqONmefEI9BrYouX30FYv/zlL8sDDzzgtWo/+OAD+drXvuZRP+uss7xPuBoee+wxwdjXV155RR599NEjrLJo0SJ54403PN/r3XffLeh0g/83moARDJh2628hR5NeLI79SN0JoYR++qYJBhIgAfsJdIyv6qV8YlICxPGnP/2pYLgVAsT1hRde8EYh4DeGgN1yyy3eaALEveaaa2Tbtm3Y5YVPfOITXscYjocv9u9//7s3VAytZATz2dU4YGwP3IebwM9//nMpKSmRu+66y0unr/+F+iLIjAjH+PZ1+Xh+Ekg0Ap2vMg+14LNmz/aiQhQjDRgFgLVgc3Tqb15e3lHJwE9bWlrqjYs14umPhDGzaIXCPxtsvz9uqN+rq6sFY3nD9e2iww5huAp/LEN/fU/Duf67AAAUQElEQVTa/y1d3mOSDXqTuaV4bo/xGIEESKBvCUTcssUQq8AWYqhFgUCaCQfBjoHftbv9EMTu9gdLs6dtGMEQbjCdd7ESfP/5Z4Y4yqBKX5jJQAIkYD+BsH226OhC8I9ttb+YxyaHZsxupDedrnKVoiNtL6w7PB64q3jYvjv16CeD7uJzHwmQQN8QCFts63RdAwS8kyvRgxnfmx7jKb6X1u6WIS2hrSS2Lp1im+j1kOWPDwJhi21VVZVXMszMSvTwzDPPeAgyM3temjJUVniX2ad1Va9Qw4oQRy2Emh7jkQAJHBsCYYttuS7qAlcCxr+alt2xyZrdqWLqL4aLwb9s3kEWbY5n6gsjv1a5XkfZhhY2pWXLnpSuFy0PLRXGIgES6A0CYYstMrV3zx4vb2jZJWILF2vw4v1jCPlBRlN4O8L8d1b9frm9cp2ENm+sI/FnuYB4mJQZnQT6jkBEYovWbZkOzaooL5ebb77ZW+Cl74rQu2dGi/Y3v/mNd9JcHboWbas2S1+Tc2v1JrmlOvTlFXFyvI/sg0wur9i71ufZSCByAklfOmFye6QLiFeq/7bmUIfZjBkzvDUP8KoYLIHowrRZYMXwLow6gMsELXm4DhAgtAU6Ky6aALfB56o3yoBDi5iHmhaWvP1+/2myJfXoF3KGmgbjkQAJ9C4B7+264byDLDB7tbqOQbUu+G3GnAbud+03biJwHUTToh3c2hDxO8jA83FdFYzvIHOtZrE8rhPofJU53q77pr5d92ldcQovJgw3QHQbGhoELz/EhIfu1qQNN+2+jI8JCxhHi+FdGHUQjcgOUpG9RId1nVZfKhH5bxTEiowCfX/ZZO9tyH3JhecmARIIj0Cn2JrD8Ij6nr52+4XsIbI5jY+phks0n+Oaa+STdXvl5IYDIY80CHY++GnvLJwmDfoqHQYSIIH4InCU2PqzvzU1U97MHiyLMwdITVLEM3v9SSbM99z2FpnXUCan1e2TMS0NUZcbtvjPomlSSztEzZIJkEBfEOhWbE2GWnTg54r0QnlH3Qwf6WNsU8QPwSZFNz/T9eF+ZmOlzFc3waymCkkN8eWNPdFYld5P7imYKHg5JAMJkEB8EghJbP1FwwsJV+u7stCp9qH+VSSn+3cn3PdCXZ3reJ31NVv/purogvQYCawB+bK+CPKh/NHSEpUDwqTGTxIggb4iELbYBmZ0Z2qGrFXxXZuWL+sy8qU6KZxh+YGp2f87v71ZJjdWy3HN+qfiOqIltHenhVuy+uQkeTBvnLyjLhwGEiCB+CcQtdgGItij787anNpPtqXlyPZU/dPPujh9/M3WCQejmmtlVEutjNbPcS1VMjTEBWICuYTze016vtzfb5yUJR9+43A4xzMuCZCAfQRiLrbBirg/JdVbCnCvDinbpx093l9yllSkpusQsWBH9N42vOChsKVJBrfVy2DtyMLfEB2ihXd7DWpt6b2M6JmqdYjZ3/LGyFuZA3v1vDwZCZDAsSfQK2LbVTHQ8Vapi19XaguuQoW4XP2/FclpUpucKnX6hw6hWv2r1x54fG9VZcQf/Jd4KWJrUsdo1ZT2NsEasKn6l6LqjT9Mg83SEQE53merZLfpd/0rbGuWIvWzFqqgFrQ16l9rzDqyuipnT9uxmOKLOUO9Mc7x+hTQUxm5nwQSnUDSxrHSHqte80SHGW75cbN5LXOQPJ07zLvRhHs845MACcQPgaQL58xuv0AH3J+lfzl9/UwfP9yiymmtts5f1UkjL+pfqC92jOqEPJgESKDPCXS+8BFjROfXl8k5dXtkdAwG4fd5ySzMwDb1Vy/KHqrjlQdwrLKF9mGWSOBYEugUW/9JRmrv++k6MH9uQ4n6OLFqAkOkBCq002tJZrG8oRNCdujoDAYSIIHEJBBUbA0K9NSPbz4oJ9WXy9zGkrCXAjTpJNpnma4MtiSjWJZmFcmmtLw+H3GRaPxZXhKwkUC3YhuY4THa4p2h01GnNVXJhKbqsN4qEJiWS78xmmCjjo3FtNqVOp15K1uwLpmXZSGBmBAIS2z9Z4SPd0LTQZ2iWiWTVXjHtNTEfKqq/3w2fceU5a26cPc6FdjVKrAb9Q23XC/CJgsxLyRgH4GIl/KCuEBo8IeQrGNch7XWy9imGhmrLeCxOp11eEt93AswhHVXapa+hiZf34yQI1vSc2W3vmSxjWsV2FebmSMSsJhAxGIbWCaIz86UbNmZlS1vHNoJn29Ra6NOcW3Qv3qdmVXvffZvrZP+OjvLllUU4AY4oLPcDmj+96iw7lUxxeceHT1QnpJBn2ugsfmbBEggbAIxE9tgZ8aw3QM6O+xAeoZ8fKgF7I+HNV8hxpjRVdTaJPk6uytbZ3Tl6PZcnfmFWV/Zug8zwdIwMwwzxDBTTNPFLDGTeUyq9WaWqbh7M8tU+JtV6THzrE5npWE2Wo03Gw2/U3RabJqKaLo3kQBi2u1avX08ndjPi99JgATil4DRqz4pAUSuJjVVdgiHRPWJAXhSEiCBXiMQ6auwei2DPBEJkAAJuECAYuuCFVkGEiAB6wlQbK03ETNIAiTgAgGKrQtWZBlIgASsJ0Cxtd5EzCAJkIALBCi2LliRZSABErCeAMXWehMxgyRAAi4QoNi6YEWWgQRIwHoCFFvrTcQMkgAJuECAYuuCFVkGEiAB6wlQbK03ETNIAiTgAgGKrQtWZBlIgASsJ0Cxtd5EzCAJkIALBCi2LliRZSABErCeAMXWehMxgyRAAi4QoNi6YEWWgQRIwHoCFFvrTcQMkgAJuECAYuuCFVkGEiAB6wlQbK03ETNIAiTgAgGKrQtWZBlIgASsJ0Cxtd5EzCAJkIALBCi2LliRZSABErCeAMXWehMxgyRAAi4QoNi6YEWWgQRIwHoCFFvrTcQMkgAJuECAYuuCFVkGEiAB6wlQbK03ETNIAiTgAgGKrQtWZBlIgASsJ0Cxtd5EzCAJkIALBCi2LliRZSABErCeAMXWehMxgyRAAi4QoNi6YEWWgQRIwHoCFFvrTcQMkgAJuECAYuuCFVkGEiAB6wlQbK03ETNIAiTgAgGKrQtWZBlIgASsJ0Cxtd5EzCAJkIALBCi2LliRZSABErCeAMXWehMxgyRAAi4QoNi6YEWWgQRIwHoCFFvrTcQMkgAJuECAYuuCFVkGEiAB6wlQbK03ETNIAiTgAgGKrQtWZBlIgASsJ0Cxtd5EzCAJkIALBCi2LliRZSABErCeAMXWehMxgyRAAi4QoNi6YEWWgQRIwHoCFFvrTcQMkgAJuECAYuuCFVkGEiAB6wlQbK03ETNIAiTgAgGKrQtWZBlIgASsJ0Cxtd5EzCAJkIALBCi2LliRZSABErCeAMXWehMxgyRAAi4QoNi6YEWWgQRIwHoCFFvrTcQMkgAJuECAYuuCFVkGEiAB6wlQbK03ETNIAiTgAgGKrQtWZBlIgASsJ0Cxtd5EzCAJkIALBCi2LliRZSABErCeAMXWehMxgyRAAi4QoNi6YEWWgQRIwHoCFFvrTcQMkgAJuECAYuuCFVkGEiAB6wlQbK03ETNIAiTgAgGKrQtWZBlIgASsJ0Cxtd5EzCAJkIALBCi2LliRZSABErCeAMXWehMxgyRAAi4QoNi6YEWWgQRIwHoCFFvrTcQMkgAJuECAYuuCFVkGEiAB6wlQbK03ETNIAiTgAgGKrQtWZBlIgASsJ0Cxtd5EzCAJkIALBCi2LliRZSABErCeAMXWehMxgyRAAi4QoNi6YEWWgQRIwHoCFFvrTcQMkgAJuECAYuuCFVkGEiAB6wlQbK03ETNIAiTgAgGKrQtWZBlIgASsJ0Cxtd5EzCAJkIALBCi2LliRZSABErCeAMXWehMxgyRAAi4QoNi6YEWWgQRIwHoCFFvrTcQMkgAJuECAYuuCFVkGEiAB6wlQbK03ETNIAiTgAgGKrQtWZBlIgASsJ0Cxtd5EzCAJkIALBCi2LliRZSABErCeAMXWehMxgyRAAi4QoNi6YEWWgQRIwHoCFFvrTcQMkgAJuECAYuuCFVkGEiAB6wlQbK03ETNIAiTgAgGKrQtWZBlIgASsJ0Cxtd5EzCAJkIALBCi2LliRZSABErCeAMXWehMxgyRAAi4QoNi6YEWWgQRIwHoCFFvrTcQMkgAJuECAYuuCFVkGEiAB6wlQbK03ETNIAiTgAgGKrQtWZBlIgASsJ0Cxtd5EzCAJkIALBCi2LliRZSABErCeAMXWehMxgyRAAi4QoNi6YEWWgQRIwHoCFFvrTcQMkgAJuECAYuuCFVkGEiAB6wlQbK03ETNIAiTgAgGKrQtWZBlIgASsJ0Cxtd5EzCAJkIALBCi2LliRZSABErCeAMXWehMxgyRAAi4QoNi6YEWWgQRIwHoCFFvrTcQMkgAJuECAYuuCFVkGEiAB6wlQbK03ETNIAiTgAgGKrQtWZBlIgASsJ0Cxtd5EzCAJkIALBCi2LliRZSABErCeAMXWehMxgyRAAi4QoNi6YEWWgQRIwHoCFFvrTcQMkgAJuECAYuuCFVkGEiAB6wlQbK03ETNIAiTgAgGKrQtWZBlIgASsJ0Cxtd5EzCAJkIALBCi2LliRZSABErCeAMXWehMxgyRAAi4QoNi6YEWWgQRIwHoCFFvrTcQMkgAJuECAYuuCFVkGEiAB6wlQbK03ETNIAiTgAgGKrQtWZBlIgASsJ0Cxtd5EzCAJkIALBCi2LliRZSABErCeAMXWehMxgyRAAi4QoNi6YEWWgQRIwHoCFFvrTcQMkgAJuECAYuuCFVkGEiAB6wlQbK03ETNIAiTgAgGKrQtWZBlIgASsJ0Cxtd5EzCAJkIALBCi2LliRZSABErCeAMXWehMxgyRAAi4QoNi6YEWWgQRIwHoCFFvrTcQMkgAJuECAYuuCFVkGEiAB6wlQbK03ETNIAiTgAgGKrQtWZBlIgASsJ0Cxtd5EzCAJkIALBCi2LliRZSABErCeAMXWehMxgyRAAi4QoNi6YEWWgQRIwHoCFFvrTcQMkgAJuECAYuuCFVkGEiAB6wlQbK03ETNIAiTgAgGKrQtWZBlIgASsJ0Cxtd5EzCAJkIALBCi2LliRZSABErCeAMXWehMxgyRAAi4QoNi6YEWWgQRIwHoCFFvrTcQMkgAJuECAYuuCFVkGEiAB6wlQbK03ETNIAiTgAgGKrQtWZBlIgASsJ0Cxtd5EzCAJkIALBCi2LliRZSABErCeAMXWehMxgyRAAi4QoNi6YEWWgQRIwHoCFFvrTcQMkgAJuECAYuuCFVkGEiAB6wlQbK03ETNIAiTgAgGKrQtWZBlIgASsJ0Cxtd5EzCAJkIALBCi2LliRZSABErCeAMXWehMxgyRAAi4QoNi6YEWWgQRIwHoCFFvrTcQMkgAJuECAYuuCFVkGEiAB6wlQbK03ETNIAiTgAgGKrQtWZBlIgASsJ0Cxtd5EzCAJkIALBCi2LliRZSABErCeAMXWehMxgyRAAi4QoNi6YEWWgQRIwHoCFFvrTcQMkgAJuECAYuuCFVkGEiAB6wlQbK03ETNIAiTgAgGKrQtWZBlIgASsJ0Cxtd5EzCAJkIALBCi2LliRZSABErCeAMXWehMxgyRAAi4QoNi6YEWWgQRIwHoCFFvrTcQMkgAJuECAYuuCFVkGEiAB6wlQbK03ETNIAiTgAgGKrQtWZBlIgASsJ0Cxtd5EzCAJkIALBCi2LliRZSABErCeAMXWehMxgyRAAi4QoNi6YEWWgQRIwHoCFFvrTcQMkgAJuECAYuuCFVkGEiAB6wlQbK03ETNIAiTgAgGKrQtWZBlIgASsJ0Cxtd5EzCAJkIALBCi2LliRZSABErCeAMXWehMxgyRAAi4QoNi6YEWWgQRIwHoCFFvrTcQMkgAJuECAYuuCFVkGEiAB6wlQbK03ETNIAiTgAgGKrQtWZBlIgASsJ0Cxtd5EzCAJkIALBCi2LliRZSABErCeAMXWehMxgyRAAi4QoNi6YEWWgQRIwHoCFFvrTcQMkgAJuECAYuuCFVkGEiAB6wlQbK03ETNIAiTgAgGKrQtWZBlIgASsJ0Cxtd5EzCAJkIALBCi2LliRZSABErCeAMXWehMxgyRAAi4QoNi6YEWWgQRIwHoCFFvrTcQMkgAJuECAYuuCFVkGEiAB6wlQbK03ETNIAiTgAgGKrQtWZBlIgASsJ0Cxtd5EzCAJkIALBCi2LliRZSABErCeAMXWehMxgyRAAi4QoNi6YEWWgQRIwHoCFFvrTcQMkgAJuECAYuuCFVkGEiAB6wlQbK03ETNIAiTgAgGKrQtWZBlIgASsJ0Cxtd5EzCAJkIALBCi2LliRZSABErCeAMXWehMxgyRAAi4QoNi6YEWWgQRIwHoCFFvrTcQMkgAJuECAYuuCFVkGEiAB6wlQbK03ETNIAiTgAgGKrQtWZBlIgASsJ0Cxtd5EzCAJkIALBCi2LliRZSABErCeAMXWehMxgyRAAi4QoNi6YEWWgQRIwHoCFFvrTcQMkgAJuECAYuuCFVkGEiAB6wlQbK03ETNIAiTgAgGKrQtWZBlIgASsJ0Cxtd5EzCAJkIALBCi2LliRZSABErCeAMXWehMxgyRAAi4QoNi6YEWWgQRIwHoCFFvrTcQMkgAJuECAYuuCFVkGEiAB6wlQbK03ETNIAiTgAgGKrQtWZBlIgASsJ0Cxtd5EzCAJkIALBCi2LliRZSABErCeAMXWehMxgyRAAi4QoNi6YEWWgQRIwHoCFFvrTcQMkgAJuECAYuuCFVkGEiAB6wlQbK03ETNIAiTgAgGKrQtWZBlIgASsJ0Cxtd5EzCAJkIALBCi2LliRZSABErCeAMXWehMxgyRAAi4QoNi6YEWWgQRIwHoCFFvrTcQMkgAJuECAYuuCFVkGEiAB6wlQbK03ETNIAiTgAgGKrQtWZBlIgASsJ/D/AVi/5IRfkbDDAAAAAElFTkSuQmCC;" vertex="1" parent="1">
          <mxGeometry x="660" y="220" width="396.94" height="620" as="geometry" />
        </mxCell>
        <mxCell id="lP1FfKmS7V5iOzCVWeoo-5" value="" style="shape=image;verticalLabelPosition=bottom;labelBackgroundColor=default;verticalAlign=top;aspect=fixed;imageAspect=0;image=data:image/png,iVBORw0KGgoAAAANSUhEUgAAAWQAAAN0CAYAAACDUlKSAAABR2lDQ1BJQ0MgUHJvZmlsZQAAKJFjYGASSSwoyGFhYGDIzSspCnJ3UoiIjFJgf87AzCDPwMVgwmCUmFxc4BgQ4ANUwgCjUcG3awyMIPqyLsisN/9m2HzUyJa3nngi9YWddiamehTAlZJanAyk/wBxWnJBUQkDA2MKkK1cXlIAYncA2SJFQEcB2XNA7HQIewOInQRhHwGrCQlyBrJvANkCyRmJQDMYXwDZOklI4ulIbKi9IMDj4urjoxBsZGJo6kHAuaSDktSKEhDtnF9QWZSZnlGi4AgMpVQFz7xkPR0FIwMjYwYGUJhDVH8OAoclo9g+hFj+EgYGi28MDMwTEWJJUxgYtrcxMEjcQoipzGNg4G9hYNh2qCCxKBHuAMZvLMVpxkYQNo89AwPr3f//P2swMLBPZGD4O/H//9+L////uxho/m0GhgOVAHeWYP7J/sz0AAAAVmVYSWZNTQAqAAAACAABh2kABAAAAAEAAAAaAAAAAAADkoYABwAAABIAAABEoAIABAAAAAEAAAFkoAMABAAAAAEAAAN0AAAAAEFTQ0lJAAAAU2NyZWVuc2hvdEEYEXUAAAHWaVRYdFhNTDpjb20uYWRvYmUueG1wAAAAAAA8eDp4bXBtZXRhIHhtbG5zOng9ImFkb2JlOm5zOm1ldGEvIiB4OnhtcHRrPSJYTVAgQ29yZSA2LjAuMCI+CiAgIDxyZGY6UkRGIHhtbG5zOnJkZj0iaHR0cDovL3d3dy53My5vcmcvMTk5OS8wMi8yMi1yZGYtc3ludGF4LW5zIyI+CiAgICAgIDxyZGY6RGVzY3JpcHRpb24gcmRmOmFib3V0PSIiCiAgICAgICAgICAgIHhtbG5zOmV4aWY9Imh0dHA6Ly9ucy5hZG9iZS5jb20vZXhpZi8xLjAvIj4KICAgICAgICAgPGV4aWY6UGl4ZWxZRGltZW5zaW9uPjg4NDwvZXhpZjpQaXhlbFlEaW1lbnNpb24+CiAgICAgICAgIDxleGlmOlBpeGVsWERpbWVuc2lvbj4zNTY8L2V4aWY6UGl4ZWxYRGltZW5zaW9uPgogICAgICAgICA8ZXhpZjpVc2VyQ29tbWVudD5TY3JlZW5zaG90PC9leGlmOlVzZXJDb21tZW50PgogICAgICA8L3JkZjpEZXNjcmlwdGlvbj4KICAgPC9yZGY6UkRGPgo8L3g6eG1wbWV0YT4KIvNWNQAAQABJREFUeAHsnQd8FVXaxt8QQksIHUKHgAm9SBWkI7CLIrgg6lpAXcWuWPZTLIhiWRHL4rqLYlkBV0ClCaKodFR6CL1J7yX0EpJvnhPOZe5wQ26SuWFm7vPyC3fKmTPn/M/c55555z1nIqpXr5FevlwZoZEACZAACVxZAvmu7Ol5dhIgARIgAU2AgqxJ8JMESIAErjABCvIVbgCengRIgAQ0AQqyJsFPEiABErjCBCjIV7gBeHoSIAES0ATy64XLfc7/36uX2819JEACJEAC2STQ+pbnLzkiX0TEJdu4gQRIgARI4AoQoMviCkDnKUmABEggEAEKciAq3EYCJEACV4AABfkKQOcpSYAESCAQAQpyICrcRgIkQAJXgAAF+QpA5ylJgARIIBABCnIgKtxGAiRAAleAAAX5CkDnKUmABEggEAEKciAq3EYCJEACV4AABfkKQOcpSYAESCAQAQpyICrcRgIkQAJXgEBQc1lcgXLZesq09HRJT0sXDBPPl4+/QbbCZWYkQAK2EfC8IJ8+c1Z+S1onx06cNkT5vHRv38IQZU7gYdsVxIxIgARsI+Dp7uKxEyfluzmLZPmO43JQSslvG/bLlu27bYPHjEiABEjATgKeFWSI8cSffpUD56Ll+h43S/fuPeQvfW6TLyb9KOmGC4NGAiRAAk4j4ElBhpviP+NmyLnoitL9ht5SLLaY4r4yOUnWbN4ph44cdVo7sDwkQAIkIJ4SZPR8Dx4+Kg+/+qFc1bi99OjxFylUqJCkpqbKlKkTZfy4idKwSVeZOHM+m54ESIAEHEfAMw/1IMbJG/6QT6fMkwcfHyRVqlRTsE+dPiU//jBDZs1aKL163iXbt2+WPQePS+r585I/MtJxDcICkQAJhC8Bz/SQt+3aJ98tWC3973vUJ8ZnzpyR2bNnyZKlydK61XWqlRFhgWiLk6fOCD3J4Xvhs+Yk4EQCnhBk+IznL18n9Zu0lrJl4hTntLQ0Q4gXyW+/LZVaCY0lKqqAnDd6xalnUuTo8ePy8fjphnsjJWCbpBw7IUlrNwrypZEACZBAXhFwvSDDVbEkeb0cOB0l9eo3ksgLbojNWzbJpEnTpEb1+hIdXVTxPHv2tEz78TvZczRCNu/PJ9/PWyrnDeGGQcDhxti574C8NuxfsvQ//5RnX/iH/LJwidquEvE/EiABEgghAdf7kA8dOSYr/zgo7TrdaAhvjEJ12vAbjxjxgTS9ur3Exhb34Tt58oSxHCnNm3eRggULy7czxkm1CqWlQpnSMuidT2Tn3gMSc+qIPF7qhFQvGCH1T+2RXz7aItt33CR9bzSOKRDly4sLJEACJGA3AdcL8qJVG+SEFJaKFSspNoio+HDkh1KlUqIhxiX9eB06tFf69rlbihTJEO7uf75Vnn33PSW0PXvcLtt2/CHFl4yTuKgTkt8YzFfSoHNj5HH5ZsJn8t+Tx+WOW3pKoYIF/fLkCgmQAAnYRcDVLou9Bw7JtF/Xyx2336V4wH3x48wZsmXTLqlZs+4ljK66qr6ULFnWb3u/Ox+RW295QIpEx0qtxPqyNb6DTD0RIympGY/8IMy9y0RI0qRvZPeeA37HcoUESIAE7CTgWkE+fz5N/jl6ojH67lZjboqM8LU1a1bJzJmzpVOHG4JmFBGRz5h0SM9tEWG4MzrIzjo3ysTUCrIwJV1Ow8WcHiGF8ufnCL+gqTIhCZBATgi41mWRtG6TFCpVXerWqafqDf/w9zNmSL26zU0Cm30kEcZscE2atpFtZSvIql0bZPE6YxDJ0X1SrR0iOPxdINnPnUeQAAmQQOYEXCnIiIYYOW66PPPi26pmcFV8//00OZ9aQIoXK5V5bbOxp0qVGpJaoYocvepqWbroZ+nU6GopUrhQNnJgUhIgARLIHgFXuix27N4nVzdvIzExGQ/n9u/fJ0cOH5dyZSv6wt6yhyFw6vz5o6RkqbLS4Oq2krR5r5w4dTpwQm4lARIgARsIuFKQl67eKIm16sqePbvlj62bZcaP38viJcvk7Nkzsn//Ltm3b6fs27/b+NwlJ43oCMMJnCtUZQ33xe/JW2X/IU5KlCuQPJgESOCyBFzpsqheqbwkr10qSw4dkv0H9svJEyekXNFzsn/rPPVGkHTjIVxaepoxMi9N0qNKSPWazaRYsdz5f+PKlJXfjYnuT50+LTWrVmRM8mUvK+4kARLICQFXCnLjOjWl3lXVjOHQWRd/7qIk+e/UOdKkxZ+kQIGcxxBXr9FAfl6+RrbsO2/EKq+XWtXKSttmDQzhz+h94yUkGREb+NRRGzlpEh5DAiQQrgSyVjSHkglGjFH05g1ry5jvFqh5LHJTldKl4wR/586dlbVrV8i+g6tVL3ze0o1y9MQpOXXqhHKZREVGSGxMERlwWw+pXiljXo3cnJfHkgAJhA8BV/qQs9M8k2fOk0rVGqp5kbNzXGZpMUlR6dLlZN+BIzJnySbJF1NDKtdsI5WvaivpBctK5x63SYESFeXsudTMsuB2EiABEghIwPOCnN9waxw+vE/OpZ4LCCAnG+GmmL9sjaScjZYKFaqp+TIKFiggpcoUlwYNGkq1uFJSvGh0TrLmMSRAAmFMwPOC3Ou6NhIbeVBm/TzRtpF2+SONmeXqNZerrmqg/MWYKW7ZivnSp3cfWbNmtZSIziexRYuE8WXFqpMACeSEgOcFGXMgFzIiLqLX/iQbNiTnhNElx5QrV0E6tu8uhQtniO66dUlGz7iOVChfQY4aExiVLxkjhYweM40ESIAEskPA84L804IlErN2kTxeKZ8cXjBOdu7amh0+WaY9fOSgHDi0TXr/pY/s3LlTTqfsk5pVKjDSIktyTEACJGAl4GlBPmC8EWTbbwukwfkjEmNEP9xW+KDsmTtONm9ea+Wg1k+cOCZnzpwKuC/QxnSj571s+QLp16+f6i3vMt7XV66Y4UsunvGW60DHcBsJkAAJZEbAs4KM8OA5xts+ji75VSpc8B5ULpgu/SO3yNkfP5TJk/4rKSmHFRfMhQG3w5gxw2XL5lXGW0TOZ8bLb/vipQukTdsWkphQS44eTZEFc36QNk3qGYNTGIfsB4orJEACQRFwbRxyVrVbvWGzJH3zP7m1ZJoYE2yq5Pi/VH5DlEufkX/tXCiff7JCIgtESwFj0vmOzevIj5+8Lm989LUxL8YBKVWq3GVOkS579+6UUiWLyLWtrlXzZ/w4Y4p0v7aRFI/NmF/jMgdzFwmQAAkEJOBJQcbLSWdP/0Ganz8sBYz5js12/Hy6zDhbVDrde7sM63yt5L/wDj70ajHCrkur+jJp3jo1kX1mI+6OHz8q+w/ukC5dOkjZsuUkeXWS7N2ySgZ0v8N8Ki6TAAmQQLYI+KtVtg51ZuLU1PMy5ptpcmLej1LbCD8z2znDjTHvXIxU6t5bunVqreajiIzMZ/RwL05S37Z5Q4ktYAiuMTlRIMNIvQ0bV0rTpg2lcaPGxuRGW+T7b8fKo3fcqPIJdAy3kQAJkEAwBPwVK5gjHJzmjx175O0PPpOz08dJr7KXdv6XnYqUfC07yvVd2xvvxgscloZe8T29u8n8+dMk7bz/aLs0w7c8e840adGikXRo30GOHDkiPxuuitv/fK2ULnnxZaoORsSikQAJOJiAZwR59cY/5LtPP5U6ST/KdUXPixFUIXBPHDLejYe3MO0+kyYLSyXIzX1ulJjowpdtksrly8oNberIH9s2+tJhas9Jk0dL3749pVOnzsa8FWdl+ncTpWnN0lLnqqq+dFwgARIggZwS8IQgnzp9xuip/iJxG5dJ3cLpctIQ4nuSz8h7W8/JYcNPgfnYntmaJq8MfkZKFCsaFKt+f+kqy5bMMt5CkioHDu6Vad9/JU88+ai0atVGTes5dcq3Uq7gaSOqoq5EGq99opEACZBAbglcel+f2xzz+PizZ8/Jd4YYpy6YIY1LRMgBoyc8ePM5ebuW8Tono3Zn0yJkxN788tl/hknR6OCHM0cZLzW9rXsrmTb3OylhjLx7/vlnpXq1eGNejEPyy0/Tpci5ffKXGzpJgSCmAM1jJDwdCZCASwm4WpARTTH5ux9l08Qv5YbYNNl5Jl3G7UmVF2pAjCPE6CjL4tP55do+faSKMal9dgy+5BYNrpIVf+yX+x98QqKLRBuDQJZK8uK5UjMuWrp3u4494+wAZVoSIIEsCbhWkA8eOSpjv5oiqXOmSM/i6XLEcE3MOZwu3Urnl7gCEcpNsf50uhy4qrH07dAmRz3Z0iWLydW1q8lvvy2Us6eOS8qezdK9VQNJqFaJQ6OzvLSYgARIILsEXCnIEONPPv5C4pJmyzXFI9QDvD1nRWpFR0hCkYxBIHuM3vLSkldJ31v6SlyZnL2JOjYmWupVKydJ6/+Q6sbUmle36CBFjcnnaSRAAiQQCgKuE2QMc/5q8o9Sc8Nv0jDWGMxxgUqtIkY8sbFieCpUVMXOAsWkfpeuUtPozebU8hlui8SqFSS+YlkVJpePD+9yipLHkQAJBEHAdYK879ARSd20RiqmnzbEWMuxSCFToAPC3SZElJH/dW6Ta9cCXhUV7OuiguDNJCRAAiSQKQGTjGWaxjE7Uo25jX/6eZ6U2bFGSht+Yjy0O2aZB+hsWrr8K6WoDHvhiVyLsWMqzoKQAAmEBQHXCDJem7R+01Y5mrxUquY7p/rGB86lySKTIiPe+IcjIu369pXK5cuERQOykiRAAt4h4BpB3rpjt0z6YqxU3L5K4gpmuCq2GlEUeoQ0xHjekTQ50aSD3HLDdd5pIdaEBEggbAi4QpD3H0qRf77zoTTalSR1jSgKyLHqDR84L1ULZYS4zUtJkyON20v/O2/mfMRhc/myoiTgLQKOF+RDR47Jo/83VP5yfJ0kFtaP8dLlm32pRphbPonOn08WH0uTXfXbSt87b5WypUt6q4VYGxIggbAh4GhBPmBEVLwwZJg8LH8Yb/3IEOM0o2+8wHBNHDUmYvtLuUj544zIoqrN5P4B/aVcmZJ8kBc2ly4rSgLeI+BYQcaEQWPGTJBuR9dJeUOMYYiqWHsiTTaeTJcbyuSTtPQI+S1/Gbnzr72lBN/U4b2rkzUigTAj4EhBxuCPVes2Scy2NVItKs3nM951Nl2WGe6Ja4vnk9JR+eR3Y7loy7ZSPzE+zJqN1SUBEvAiAUcK8kmjd7xu2QqJ3b9TvS1ag8covCax+aW6MSrvmDHP8Y9R5eWuv1yvd/OTBEiABFxNwJEj9TDT2tl8+eWEMXVmqtFbhhDDaYFJg+KMF32cMwZ//PdAPnnopQcllnNLuPoCZOFJgAQuEnBkD7lIoYLS88ZucqBBW0k6nU+FuKHIEOVTxsi8UQejpNODD0uTeokXa8IlEiABEnA5AUcKMpjizR6PPHCXJNVuL+8cjpHd5yNllzGj26TzpaTjgIelS7trGFHh8ouPxScBEvAn4EiXhS4i3vDx0sC/yZYd18u4b6bLyX17pN2fu0iHVk05ObyGxE8SIAHPEHC0IIMyprysUaWiPP1wfzly7LiUKh7LnrFnLj9WhARIwEzA8YKsC5s/f6SULlFMr/KTBEiABDxHwLE+ZM+RZoVIgARIIAsCFOQsAHE3CZAACeQVAQpyXpHmeUiABEggCwIU5CwAcTcJkAAJ5BUBCnJekeZ5SIAESCALAhTkLABxNwmQAAnkFQEKcl6R5nlIgARIIAsCFOQsAHE3CZAACeQVAQpyXpHmeUiABEggCwIU5CwAcTcJkAAJ5BUBCnJekeZ5SIAESCALAhTkLABxNwmQAAnkFQEKcl6R5nlIgARIIAsCFOQsAHE3CZAACeQVAQpyXpHmeUiABEggCwIU5CwAcTcJkAAJ5BUBCnJekeZ5SIAESCALAhHx8TXS48qWySIZd5MACZAACYSaAHvIoSbM/EmABEggSAIU5CBBMRkJkAAJhJoABTnUhJk/CZAACQRJgIIcJCgmIwESIIFQE6Agh5ow8ycBEiCBIAlQkIMExWQkQAIkEGoCFORQE2b+JEACJBAkAQpykKCYjARIgARCTYCCHGrCzJ8ESIAEgiRAQQ4SFJORAAmQQKgJUJBDTZj5kwAJkECQBCjIQYJiMhIgARIINQEKcqgJM38SIAESCJIABTlIUExGAiRAAqEmQEEONWHmTwIkQAJBEqAgBwmKyUiABEgg1AQoyKEmzPxJgARIIEgCFOQgQTEZCZAACYSaAAU51ISZPwmQAAkESYCCHCQoJiMBEiCBUBOgIIeaMPMnARIggSAJUJCDBMVkJEACJBBqAhTkUBNm/iRAAiQQJAEKcpCgmIwESIAEQk2AghxqwsyfBEiABIIkQEEOEhSTkQAJkECoCVCQQ02Y+ZMACZBAkAQoyEGCYjISIAESCDUBCnKoCTN/EiABEgiSAAU5SFBMRgIkQAKhJkBBDjVh5k8CJEACQRKgIAcJislIgARIINQEKMihJsz8SYAESCBIAhTkIEExGQmQAAmEmgAFOdSEmT8JkAAJBEmAghwkKCYjARIggVAToCCHmjDzJwESIIEgCVCQgwTFZCRAAiQQagIU5FATZv4kQAIkECQBCnKQoJiMBEiABEJNgIIcasLMnwRIgASCJEBBDhIUk5EACZBAqAlQkENNmPmTAAmQQJAEKMhBgmIyEiABEgg1AQpyqAkzfxIgARIIkgAFOUhQSLZ//345fuJENo5gUhIgARIInkD+4JOGd8oThhBv2LRJYmJipEG9erbAOJeaKosWL840ryaNG0vBggUz3c8d3iaQ1fVhrX2N+HgpV7asdTPXXUSAPeQgG2vvvn0q5fHjx+WY8WeH5Y+MlIb160tN44sUyNLT0wNt9sS28+fPy85du+Ts2bOeqE8oKoHro37dulK9atVMs4800lQz9tetU0dKliiRaTrucAcBCnIQ7QTx2LN3ry/lnj17fMu5WYiIiJDo6Ggpa/RqisXG5iYr1x27cfNm2bptm5w+c8Z1Zc+rAuP6KFq0qJQvX16qVqkS8LTYXsHYj+snKioqYBpudA8BCnIQbXXgwAG/VPuN9XPnzvlty+1K/jD6Mu02ftAOHjyYW2RhdXyM8cMdyIoUKRJoM7e5lAAFOYiGg4BYTbswrNu5fnkCx44dky1//HH5RNx7KQGjtxzI4NageYcABTmLtoSAnDx16pJUEGkv+3gvqbANG06ePCmr1661ISdmQQLeJMAoiyzaNbOeMFwWhw4dklKlSmWRg//utLQ0OWEIE6I2ChkRFEUN319kvqx/F7NykWj/YaB0ep+5JCgHBBJlgRUuXFiKGhEk8FuaLdWIBAn0w4OHSfkulPuM8WAuJSVFjIRSqFAh5fe05oP6Jq9eLfDHmw3l1WXOnz/jcsQ5LzGjXFEX9iP6AOeyGsqDcsFQP+u5sB3l0ufB/sNHjqhtJYoX99UH6bTZzemIcb7CmTDS57wSn3i4imvhlNH5KGC4z4oYLhKU09qOgcqGY0+fPi1njOcBqQZTHF/AuLajDXeKvkYCHYdtuLbQBjC0QTDnU4k9+h8F+TINC2HYZ8Qe48EKxMv6Bd9l9JKzI8gHDL/p+g0bLjlj5UqVAgqMToiLfeny5Xo14GejBg3UxR8oXcvmzX1fDHwBdu3erR6oWTPCD8RVV12lhFnvW7ZihU8w9TZ8VqlcWT3VX79xo2Jj3lfEEPeEhATBJwxf2BUrV5qT+JbXrV/vW65Tu7ZKu9EILwxkrVq2VJszCxUsXqyYIA8YHhgGcjXB54rIFrhNzA9qcUyzJk18D8ayy2llcrKcMtrJanjgVrFCBdXuKUeP+nbbGT7pyzQHC7i20IaIHrIaftwQSlc6k04HHsju2LFDfUesx2Idx+OH3myJxvWlQzlx7pWrVvmuL3QcEFWCH/VwtcgSJUoOzuyBQbhC0fVG7xg9GoQdFShQQOC+MBuEBqFG2JeVbTcuXKvvFBcsvvhHjS8qeiZWKx8Xp3pzSIen6HiYaDX8WNS7cBHjgi5TpozqreBixzoESl/g+EFZvWaN7wuECI/GDRtKuXLl1Db0VPGwDXXSvWr0WtDzQX5mQ5m2GXUCA6uhB4velo6JRS8Teacbn9beL+oVa9QBvSmcC/XBF1b3msx5qx8uYwPKi57XUUt74LiyRv1huKbREzaLILbD53rCYB3ozgfpY43y5IQTfgxQN6t7C+x3Gj+AVsEDt2LGMVqcULbLGdoAA5OsFmew0G1l3ZfVOjoIuGvRbYgfjtqJiar90RHBtXnQuAvEfmvvFR2UJONHyFyv+kZ8fny1aqqtcUeE43Gs+Q9tp8u7Y+fOjDurCwXFdYIecnHjOghXy/peOVzJGPVGeBuEp4QhUFpcrDisvSzrfqxjdB8E2WzIDz2yFs2aiRYa837zMi5SfHkDpjMuevRs9a0elvWT9+rGlwNipw1fALOIoZcLEcIxEH8YxGiVIdpnDQGFIa+4C/vUhgv/HTp8WAoaP0S1jJ4wvoj6S6bT4MdL/8hg31U1a6ofC71ff1Y2yoB9+MO5wDsrkcEtsS6vzsf6iXOid2o19GL3GT+01vIinf7RyQkn9AQDlQk/ohCvy53PWsa8WEfbmO/WUD5cX7ge8KNYqWJFXzHw42W921i7bp3fHSOuZ7i88EMZ6DrFdaI6Dsa1ps18Lept6ACFs1GQM2l99Kzw5cWFhosMPR30EqyGi9Xa67Om2bZ9u3WTQIiQLwQIFzB6q1lZoC88BqmYe2XolUAE0GsvVbKkL0ukwUAMs+ELpA09VG3ozR42BFcbBNBqyF8NRjDOgXwC/WDBt5xTy+quI5DAWc8FvoHSgQtGQcZXr+53CNxPueEU6Fw4AQZuNL36aildurTf+fBDf6Vs85YtfqcGE/DSBlE22x9bt4puT1xz1vhx81022s7KAsegc2A+R6CBLFZG5jKEw/LFFgiH2majjnsvDATRt8A4FD23QIbbu8wMPRHrr75yc1hETrsVMssH29F7wSABq6HHpw3uD9wiQrx1rxn7rLHU2Ib8tJmXsc1aZp1Of1oHIgS69dYP6/QxTvmEWwfCgPZErw2DKxoaPnj84NrNCXXG+dAWV9WoIfChwgUGgdYPKfOaC+5erK4c6/WHB3pW2224XmD6TsK8P8Ik5thurZvV3Yc0+BGHq0cblgP9sOv94fB58RsZDrUNso4QEvjX8OBF3/7jUPi28OsPwTMbHpJZBVDvD3TxWh906LTBfMYZF7H+Yuj06KXD/QCR0b5R8w8J0gV64GT2SepoC53nEURNZMPyGYJziRm9dScafky0oddmduvYzQnXkBYniHJ2HgLrMtr9ab6j0nlbf5Ct60gHvzAs0D5r++NOzWyBfpzRi8YzDv0dsf4omI8Pl2UKcoCW1j1ea48YXygIL57gmw0CjYdQgW7BrLd2OA5uipwaxByCYu7hwO8LFwMeSOGHBE/FrbeMpww/ptUwWVJmhjzPGw9ZggnJyywPp26/HH+7OQUSryvNJZAgm10JKJ91Hdv0TIdm9xa2w1QoYsai+l8/g9CbLtcJoRBrSsaP3cVFLoEAftn1AwyEX1nFN9AvPY7DA8BAghwofaCLHXkEa3jIZhZkHIeese6540m21axfGOxvYIR/ZTrSy/jx8aIYW7lY173KCdEQeLYAf3aga9LaozW7uzQj9SNt/FDjLhEdE/09wX50SLANhp400pot3H3DZhaXW6YgW+hA6CBs8KFl9quOp+bWni9u8dHz0LG3lmz9VhHekxuDrxO9PPNFj/PjwQnKbb4l1+fBbbP1i4gwtEJBPEzUeYTDp1c54aEc3FKIvAn0kNYqwFaBRtvjmtN3FxB23IXpB9Z45oBlPAzU2/T1AqHOLJZZp+FnBgEKsuVK0GFsCIiHCyCQYVQaQsOshgeBuODNhpAyq5mF1LovmHX0sHGRIzzLbMg3zvAlB7LCRhSF9VYVX1Dr0/RAx4bTNi9yQicDIWbaVx6oo2HtJFjXcQ2YIykg4AiNwzY9HN58PcJ3DtcGHmjq82Z2HenrMpjOTGZ5eGU7BdnUkgi+x3Bo3JJlJsZIjphgCK21l4xbOFykZv9twQBPq/VDDNOps72IKTvNXwCdQRlLaJXeHuipOR7q4am2tXeELyN624F62jo/r356jRPaUrvdog2RhJkfVOt2tIZuYgi01SCyZsOzFp03Qjdx7aGzgO9PMIY7UcRC63hkCHeCEYUS7PHBnMNtaRj2Zmox3TsO5vYq0GAJZKWjHHS26EGYBRrb4V4wfwHwpTlhCKDVAvVSdBr8IFjjohFZkdlDpEAxrxBdXWedLx7krTWGM68yRnDhByrUdu5CxArC9TC8WnMJdFttdrkE8vWi7MFYoNtxfZzdnOAWssUsUQvB5InrB0PT9Wi66AvDmBE3bh0NZ23r04b7zWraR4ztuG7wjAVtgusbgoyHc9kRUwi6FmPkiWX9QB3r4WjsIV9odVyQeuCEtScQ6MLIbCAH/GfodWoRhs8NIWmbjAnZtcG1gN4t4l8hDoh2sPa2kRYPSgL1ZnQ+eHhnHmIc6GGeTosvIb5Q5gcx2Ifh3IgRxRcUMdP4QuBLhreY6NjiQKFg+gGizl8PGtDr+LRuC/RlRQ8LdUfoIH689A8KbqvNdUN+m4zBDBWNOGycW/fMsF0bhAfnxAhCGDibRVynw7ZAZcH+3HCyihryC7QN27NrOsLBehxELNA1gu3bjWvR/PAX7hhtGOJsnvcE0Tm4HvUDZ/xYmw0+Y80M/MwDS7COkXtoM9xt6T9c+ygbXBe6Xc15YrSn1RAHbh4laN3v9fWwn8sCgogLY51x66R9uwjZ0YKqP/WFgC8YfK8QNj00WO/Tn9rtob8ouCDxhTK7KnDBQ5SRj47v1MfrT/iq0eMONAQYadAjwX70hHCuqpn4j3V+uCVE79wqUvDhgQGEGXlhTgP8wfCFRjkvEWCDA84Pvx++/DuNNLp3q8+HY/Al1WFN+LJbe+S4NUY9cd66Rkyq/uKCu/VuQ/9gYH4FDETAMVZDjLa+bUaZdO/QnA7tAHHBOazuGqTLCSfdntYfVtQP11ik8VBVC5q5LJdbxnG4c0B9A/0A4VhcV0iHNkRbQdC2GkKMzoX1xwADUrTggjOuGf2iALDEHzojyNM8wRN+yNED1qzwA31J2xjbcP3gWkCZURY86INbDGVB3nCB6TxQdrSDdcAIXHHmwSJIF04W9oKML0yScausxRiNDyFBjwHRFLhAzIYeJZ5YZybGSIs88SWCqOneAtwg+OJYL0B8MTCEF6KleyV40AZ3BMLo8Gd+mGIuC/JGnrj40QvPLJ0+Bl9G9N7xiWOsBsHAnBLmW1PMYmb+ITEfgx8e5IfbYqsQIR0EGqFW+DLDIIA4h3lYNrbDb4th2OaHTUiHdfyAoI5mg6+yVq1asuvCUHC4b2INvz6YYeAF/P8QAuvdgM4DgoI7Af0sQG/XnznhtMZ4yKvbT+ejPyFSEDB9PejtWX3iOlqelOQ3AY/1GAgd2hJ3E/hhg5haf3BxDHhae574McVDNxyDax7lh3hqtwF6uPDpokNgFlLkBb4oX7CG6x7nKGkazo92w/dEf/eQL3ru+kc52Ly9lC4iPr5GelzZjBmyvFQxp9YFIoUeMXrhcHvoJ8uqp2N8ubBN92KCqQO+fLioIVL4AgVr8Leq8D1DnPAFQC8eX4i8MDMD1B89NfMX3lwGfFkhFKgnvsBmPqg3enTaRWE+zq7lK8nJrjoEkw/44nrAjxV+OHE96DubQMfjh3KDMW1nIPEPlF5vu6ZFC7+2xo8tetQw/JBmdh3o473+SUH2eguzfiRgMwGIKFxPeF6CH0z8oFqjU3BPk2qIPO4OzIY5QyD2tMAE+FAvMBduJQESyIQAXFV6bm/c4TQwpl/N7K4Ofuwly5b5cgrl3YzvJC5eYNibixuPRSeBK0EA7gpteNVTZmKMNHCDwQUCg7spnP3DCkIW/1GQswDE3SRAAv4EIKzaENWBB5aBYsDxrASvh9J+5gTjgTHt8gToQ748H+4lARIIQABvwEHsuI6QQBL4kfMZD5YRTaFFGNsxYKkSBo4YD2VplydAH/Ll+XAvCZBAAAIIZaxghHUizhthkfjT4oxoH7gm8LAv0EjVANlx0wUCFGReCiRAAjkigOlZMdgjHOc8yRGwIA6iDzkISExCAiRAAnlBgIKcF5R5DhIgARIIggAFOQhITEICJEACeUGAgpwXlHkOEiABEgiCAAU5CEhMQgIkQAJ5QYCCnBeUeQ4SIAESCIIABTkISExCAiRAAnlBgIKcF5R5DhIgARIIggAFOQhITEICJEACeUGAgpwXlHkOEiABEgiCAAU5CEhMQgIkQAJ5QYCCnBeUeQ4SIAESCIIABTkISExCAiRAAnlBgIKcF5R5DhIgARIIggAFOQhITEICJEACeUGAgpwXlHkOEiABEgiCAAU5CEhMQgIkQAJ5QYCCnBeUeQ4SIAESCIIABTkISExCAiRAAnlBgIKcF5R5DhIgARIIggAFOQhITEICJEACeUGAgpwXlHkOEiABEgiCAAU5CEhMQgIkQAJ5QYCCnBeUeQ4SIAESCIIABTkISExCAiRAAnlBgIKcF5R5DhIgARIIggAFOQhITEICJEACeUGAgpwXlHkOEiABEgiCAAU5CEhMQgIkQAJ5QYCCnBeUeQ4SIAESCIIABTkISExCAiRAAnlBgIKcF5R5DhIgARIIggAFOQhITEICJEACeUGAgpwXlHkOEiABEgiCAAU5CEhMQgIkQAJ5QYCCnBeUeQ4SIAESCIIABTkISExCAiRAAnlBgIKcF5R5DhIgARIIggAFOQhITEICJEACeUGAgpwXlHkOEiABEgiCAAU5CEhMQgIkQAJ5QSB/qE5yXdurpWfXa6RuQlWJigrZaUJVfOZLAiRAApclcO5cqqxav1UmzlgoP85Zetm0we4MiVI+3L+H3Hpj+2DLwHQkQAIk4DoC6Gg2qltD/SXWqCQjPp2c6zrY7rJAz5hinOt2YQYkQAIuIgDNg/bl1mwXZLgpaCRAAiQQbgTs0D7bBRk+YxoJkAAJhBsBO7TPdkHmA7xwuwxZXxIgARCwQ/tsF2Q2DQmQAAmQQM4IUJBzxo1HkQAJkIDtBCjItiNlhiRAAiSQMwIU5Jxx41EkQAIkYDsBCrLtSJkhCZAACeSMAAU5Z9x4FAmQAAnYToCCbDtSZkgCJEACOSNAQc4ZNx5FAiRAArYToCDbjpQZkgAJkEDOCFCQc8aNR5EACZCA7QQoyLYjZYYkQAIkkDMCFOScceNRJEACJGA7AQqy7UiZIQmQAAnkjAAFOWfceBQJkAAJ2E6Agmw7UmZIAiRAAjkjQEHOGTceRQIkQAK2EwjJS05tLyUzJAESsJXArys2S/L6HbJ19yFJOXZS0tLSbc3/SmWWL1+EFCtaRKqWLyn1EipJy4bxV6ooOTovBTlH2HgQCbiTAIT4u9lJcjjlhDsrkEWp8cOCuuFv+drtqq7d2zVwjTBTkLNoYO4mAa8QGP/9Ypm9aJ2qTuXKlaVRo0YSHx8vJUqUkHz5vOG9TEtLk8OHD8vmzZtl+fLlsn37dhk9eaFsN+4E+nRr6vimpCA7volYQBLIPQGzGN9www3SrFmz3GfqwBzww1KqVCn1hzouWrRIpkyZIt9OnyXJySvl5af6O7DUF4tEQb7Igksk4EkCcFPonnHnzp09K8aBGg+iDJG+9957Zf5CkXq14qXP9e0CJXXENm/cpzgCJQtBAs4kAJ8xDD3jtm3bOrOQISxVkyZNZNCgQeoMw0eOD+GZcp81BTn3DJkDCTiWAHrHeMAFn7FX3RTBwO/du7c0aNBAdu05IOOnzg7mkCuShoJ8RbDzpCSQNwQQ2gbDA7xwN9whwH6au8SxKCjIjm0aFowEck8AccYwRFOEu+k7hBVrNjsWBQXZsU3DgpFA7glg0AcMoW3hbpUqVVII9u7P+JFyIg9GWTixVVgmErCJgB6BZ1eccWpqqowaNUrmzp0rO3fulLp160rPnj0F0Rva9uzZI+fOnVN+a73NCZ+RkZGqGOfPpzmhOAHLwB5yQCzcSAIkEIjAI488Iq+99pqK84UQ79+/X/r27StffvmlL3mLFi1k1apVvnUuBE+Aghw8K6YkgbAmcOrUKRk3bpy88MIL8t5778ljjz0mX331lXTp0kU+/PBDxebEiRNy/PhxOXbsmOola2Dnz5+XDRs2CPLQhm1Hjx4V9Loxsi49/eJ8GhD6jRs3qn06fTh8UpDDoZVZRxKwgUCBAgUkJiZG5s2bJwcPHvTl+P7778vHH3+s1v/0pz+pzwEDBsgHH3ygBPX111+XOnXqSMuWLQV+3HfffVelQS+6evXqgpA0PHB75ZVX1LDnW2+9VWrVqiXoadeoUUO5R3wn8/gCBdnjDczqkYBdBOCDhchiKHJCQoJ07dpV3nrrLdm9e7dax3nmzJmjTjdmzBh5/PHH5bPPPpNhw4apdFu3blXuDgjvzJkzfcUqWbKkTJ8+Xfr16ydDhw6VpUuXyi+//CLr16+XPn36yO233y4pKSm+9F5eoCB7uXVZNxKwmcD111+v/MPvvPOOVKxYUUaMGCEdOnRQn4FONXnyZLnmmmukR48eqnd93333SenSpWXGjBm+5A899JA0b95cqlSpIuPHj5drr71WuTzWrl0rbdq0US6QxYsX+9J7eYFRFl5uXdaNBGwksHfvXuXXbd26tdx5553q78yZMzJ48GB56aWX5LbbbhP0ds2GiIvu3bv7NkVERChXBPLSVr58ebUIvzP8z3CJrFmzRu+WxMREOXkyI3zPt9GjC+whe7RhWS0SsJvA6tWrVU93y5YtvqwLFiwo8PnCIL5Wq1q1qixYsMC3GQ/yZs+erXzKeqMOyStatKjqRUPYcQz+4Lp48cUXVS9bp/fyJwXZy63LupGAjQRatWql3A1wP0yaNEngUoC4Dhw4UKpVqya1a9dWZ8ODv6SkJDlw4ID06tVL4G4YPXq0oFc8fPhw1QuGKyKQwWf8ySefyA8//KAe8KH3ff/99wdK6sltdFl4sllZKRKwnwB6wxBghLvdfffdvhN07NhRCS7cETDEJ7/55puyb98+9YmQNhwDg/8YIXJwe+hYZd1Dxn6E1OEBnu51Y0IgDETBceFgEfHxNdLjypaxra7zJw63LS9mRAIkkDsCjw4dq96Xh56mWfhyl6uocDb0eMuUKSMIh7Ma4ouLFCki+fNn9Pkwcg+hcnFxcdakAddPnz4tiGnGZPN2GdwlTZs2lcjIfLJ54Vi7svXLp3XPgX7r2V2hyyK7xJieBFxEAC/8hOG1RnYahBZRFoHEGOeJjY31iTHWo6KighZjpC9UqJCtYow8d+zYgQ8pV8b/waPa6JD/KMgOaQgWgwRCQQBvX4bBbRDuhtc5wRrWjncsCgqyY5uGBSOB3BOol5Axwxle+BnuhgEtsE5tmjgWBQXZsU3DgpFA7gm0bGi8VbpYtHr7su4h5j5X9+UwYcIEFflRIa4036nnvuZjiUnAOwS6t2ugKoMeYjj2lBGlgSHZsIH39VGfTv2PPWSntgzLRQI2EUAvuV2zRCkYJdK/f39BbzFcDHXF8G5Yv5u7Orp3jDIyDhkUaCTgcQJ9ujWV5OSVqpboLaK3jHfMYZY1zMCmJ293OwaEtiGaAu4Z1BEDVGAQ45ef6u/46lGQHd9ELCAJ2EMAglSvVrwMHzleCZUWK3tyd2Yu8BnDTdHn+nbOLKClVBRkCxCukoCXCUCY8Dd+6mz19mW88BPvmHPya42y0x4Y9IE4Y4S2IZrCLUKs60hB1iT4SQJhREALcxhV2RVV5UM9VzQTC0kCJBAOBCjI4dDKrCMJkIArCFCQXdFMLCQJkEA4EKAPORxamXUkAQuBX1dsluT1O2Tr7kOScuykmhHOksSVq/nyRQgmVMIcHhg2jhhsNxkF2U2txbKSQC4JQIi/m50kh1NO5DInZx6elpau6ob6LV+7XdUVIxXdIswUZGdeVywVCdhOYPz3i2X2onUq38qVK0ujRo0kPt6Y66JECVvnSra94NnIMC0tTU01itntMEx8+/btMnryQtlu3AlgcIzTjYLs9BZi+UjABgJmMdYj9GzI1nFZYBJ+TGqPP4xC1CP2vp0+S41UdPpoPQqy4y4pFogE7CUAN4XuGXfu3FkJlb1ncG5uEGWI9L333ivzF4oaqejkwSKMsnDutcSSkYAtBOAzhqFn3LZtW1vydFMmTZo0kUGDBqkiY9i4k83xPeQFi1bKvN9X5IjhHb3/pI7dsm2X3/H33d5TiheL8dvmlpXtu/bKuEk/y/xFSXL8xCnpeG0T6dq+hTSun+CWKrCceUgAvWM84ILPGL3FcLXevXv7JhvCsHGn9pIdL8izFiyVQa//x3cdQYAKFyoo381c4NuGhX59u8vSleskafVG3/ZObZqqMfpvf/il7Dtw8Z1ivf7UzpWCvGvPAWnV/X7ZsXufJNSoIs8+eof0f2yoPDv0Q5n833/IDV2u9dWdCyQAAghtg+EBXrgb7hAwodJPc5c4VpAd77JIT09X11F81Qryx+Jv5KcJ/5TXBz3gd22VLV1CPn1vkKz4+b8y5Yu3fPsQAnNLz85y/509fdvcvPD4C+8qMUYd+t7YSaIuvNEX6+Mm/4QPGgn4EUCcMQzRFOFu+g4BEyo51VwgyBnoZk/8l1StlPUrxK+/rrX8562/q4O0mJcsHutU/tkq1+yFy3zpK8aV8ePRqml93z4ukIAmgEEfMIS2hbth3mcYZrdzqjneZQFR7dqhhVQqXzZohn16dJT7n35TtCAHfaCDEx44dMTP7YKiXtuioWz6bYKcOn1G6iZWd3DpWbQrRQB3iTBEGuTEVq9eLcOGDfMdGhUVJSVLlhT4ZPGwLBibOXOmzJo1S1599dUsk58+fVrWr18vDRpkvHYqywOykUBPwu/kqUYdL8jNGteWqxskZgO70RsoVlRee26AYHLqzAz+2JlzFknSmo0SX7Wi3NrrOnWcNf3JU6fl53lLZNnK9XLk6HFpWKemtG7eQGpUq+hL+sf23ZK81v826Or6iVKqZDF1jnm/rTDmZm0qnds2k9+WrpL9B4/4jo2IiFAP5eDjRnnWbtyqfoBaN2sg+fNHqnSHjhw1jlvtOwYLu/cdlA2bt0vpUsUlvlgF3z67y6szRsA9OKxcs0m279onxWNjlB+7VbP6UiAq4zIqGlNEoosU1ofw0wME9u/fL5MmTZK77rpLYmJiJCUlRX799VcZOXKkvPzyy/Lwww9nWcuNGzfKDz/8EJQgP/TQQ1KhQoWQCHKWBXVAAscLcrcOLXOE6dlH78z0uGk/LRT4Y8328rBRkjx7jJQxBE7bilUb5eb7npf1m7ZJ+1ZXS5OGiXLXo6+o3f98baA81P8vAkGFID/wzFs+/y4SfPDGUzJqzBT1oBHrb/zzC1k04xP5Zf5S9RAO27R9MeIluePhl/WqvP7+fwV+8WUzP1c/KsP+NVZt8yUwFlBe/A155m/ywsCMV9OEorxNG9aSzVt3SZ97B/nq8pfr28vHY36XY8czbod1uZ556HZ584UH9So/PUTgmWeekbi4DJchfpxfeOEFeemll6RTp05Su3ZtVVNs37Ztm3odFNwD+G5kZsePH1evWqpataoULpzxI47e8dGjR1UP/NSpU77tgdJmlq/bt+fsPsbltYYYQzx6/fnia13QQ/3359/6arZt515p1OlOJcYQx+/GDJNhLz3iE79Hnhsu7478SqWHWH/+zxd8x2Lhof8b5hMwvePneYvl/x65Q55+8K96k/qEGL/45N2XlOej0ZPU/qcevE2mjr5424iNSL9+wVfy8D29VZpQlffcuVS54Y6nfXUZ+uz9MuHj12TupH+r8+r/3hnymF/59XZ+eo8A3B9//3vGcxq4I2CrVq2Sli1bKjcGIjo6duyoxNlae7gRhwwZIhDi1q1bq/f5ffjhhyrZG2+8IT///LN88skncvvttyuXY2Zprfl6ZT0sBXncR6+qntzXo17za0e4C7SZe9A3dmsjRQoXUrs6tL7oNxv40vuyc/d+td3qHoGIH173g4x65znBrTz+dFiaNe3//jNEXn76XrGWZ73hkoDhoaTZRYJtFcqVlqviK/vcLKEq78q1m2T1+i04pTK8kw3WoE4N9an/w51FyyZ19So/PU4gNta4JmvUkHXr1sm5c+fU26yrV68uK1euVC4N9HqfeOKJSyh8++238t5778nnn3+uesjDhw+X559/Xn7//XcZPHiwdOnSRR588EH5+uuv5XJpL8nYIxvCUpDrJFRXzYdbKoTTaTt85JhaPJJyXL6dNltv9otmqFbZP9Jj4vdzfOnMCxBfDD65+9brZXfSFNm/errUvqqaOYlvuV6tDHHLrDy+hJkshLK85vhtnF5HrFhvR+FbpoUXgbJly8rJkyfVQ7hNmzbJNddcI1u2bJF9+/apZTzIg7vBbFOnTpVq1aqpqI+lS5dKzZo1lW96xowZ5mRqOTtpLznYpRsc70MONdf8plhefa51my72lLHN/KBK95R12lXrLvYe9TZ8JtSo7Fs1H+/bmMlCoPJkktS3OZTlbduyke88WMADRpg1dCixZlW1nf+FD4ENGzZI8+bNZffu3arSY8eOlXHjxvkAJCYmysGDB33rWICP+cCBA/L000/7tlesWDFgRFR20voyc/lC2AtyoPbToqP3mcPnChSI0pvV5649GS4Lv415vBLK8uIH6JF7+sg/R41XtZr3W5L06NpGPZw0V/O6duE7LNfMIVyWp02bpoS1TZs2gp4yDGFtcDnAdu3aJWvWrJHy5curdf0fHvadP39efvnlF71JZs+eLRBlq2UnrfVYt66Hpcsiq8ayxjybBfn06bN+hyfWuPI9w1CX971XH5cRrz+p6v3Wv8ZI8273yK0DXlTrDYwwwFVzxmQrTtwPIFdcQWDhwoUyf/58mT59urz99tvywAMPCMS4ffv2kpCQoPzJ2I6hyTt37lSzq8FXjLhls/Xo0UOl+fjjj9W8xehR33TTTbJ3716VDL5pxCGjd5xVWnO+XllmDzlAS+JhmdkwiY+24yf8Q73q1/Z/uKXT5eVnqMuL8Db98PKlp+6R+obPu0qlclKzeiXfQ8W8rC/PlfcEMH2lNviA7777buV2wLMEiO7o0aPl/vvvlw4dOqhkmOYTURPWZw29evVSfmZEaeAPMceIZ0bEBQzRGXioh3SLFy++bFp1gMf+c6UgHz3m//oZ64Mnaxulpp7324R4SW2pqal6UdLSM7YXKlhAhbe9MvxTtW+dEYesbeMfO/SieiDY+4aMC9B6jrNnL+brO+DCgjVtVuXBYdZjzpnKHcry4rxdb3lcfl2ySvWCEd9d0OK2sdaP684hgHfMYbQerrGcjNZr167dJX7gQLVDLxluiCNHjiiBjo6O9iUbMGCA4A8GgX7yySflscceUy4PHdusE/ft21f1jJEuq7T6mGA/4SqBRUY61zHg3JJlQvmsEWIz+utLn8iOn/JzwCMgKJgxzmwYdQfDiDkMetCGqT4Pp2REWiBeWEdjjP3mB9+gjy+//VEnV3NmQAxh83/PmHNW78SUoYh+sFp2y4ORdzDzPBZYn/vrCj+RDlV58dASYgzDLHOFqrSTcvW6q78aLXrLn297Up577d+ye6//wxt1AP+74gTwwk/Y4cMXZzsMZaGKFy8uZjHO7Fx4eG0VY50WIXOFCmWEmWLb5dLqY4L53LEjozNVrkzJYJJfkTSuEmQMxChYuZ3fAA5N7ea/PS8Rca0Ew5TNhpF21qk6MdpurpEOgmI23JrXan2L2oSHWb9N/1juue0GtV65cU+p2/av8sX471XPeOmPn6mh0Nj56f++kwHP/EOl0//N+OU3KZHYxS+GF/uyW57EVrfI0Hc/k4effVtnrT4xu1tUpTYy9cf5aj1U5bWG+eFkuCPBH37Mpv+8UI0ixCAajFikOYsA3r4Mwzvmwt3wOidYw9rxjkURER9fIz2ubBnbCjh/4nDb8nJKRnCRYK6KlGPH1StgKlco55SiBSyH3eXF3Qd+8LKy94c+oSIyskrH/XlHABPU4yWfmKD+b3/7W96d2IFnwnwceOg47MUHQjYfcuueA3NVc1f6kHNV4xwcHFs0WjCJjlvMzvJu3LJDnn9jpKo6hkeb30yCh534ofq/V/+l9uuBNW7hFA7lbNkwXvAKJ7x9GT1EPSdwONTdXMcJEyYoMcYoWae+LQTlpSCbW43LlxBA7xiTK8Huu+NG3xBynbB751byw6zf1Exw13fJeFKu9/HTGQS6t2ugeslTpkxRD9zC7e0ho0aNkhEjRqjGGHhfH2c0SialcJUPOZM6cHMICbQx5lzW1u/RV2XyjLmCXjMiT+b8ulwwyRKm5cRkTY3rJeik/HQQAfSS2zVLlIJGSHD//v0FvcVwMdRVi3G/m7s6uneMNqEPOVyuzFzUE/NU/Ouzb2Tthq1KjPU7/RKN9/ohFhlzSTdrlDEFYy5Ow0NDTOClYZ/KZ+MyIpQwATzeMQcXBkbE6cnbQ1yEkGeP0DZEU8A9gzsC+IxhEOOXn+of8vPn1odMQQ55E/EEJOAcAnjj8vCR4wUvaAgHg88Yboq88hvnVpDpQw6Hq5J1JIELBCBM+IMw4+3LeOEnJopy8muNstN4GPSBOGOEtnVq0yTPhDg7ZbxcWgry5ehwHwl4lIAWZo9Wz7XV4kM91zYdC04CJOA1AhRkr7Uo60MCJOBaAhRk1zYdC04CJOA1AvQhe61FWR8SCIIAhlQnr98hW3cfMqYEOKlmhAviMMcnwex2mFAJc3jUS6gkiMF2k1GQ3dRaLCsJ5JIAhBhDqQ+nnMhlTs48HFONom74W752u6orRiq6RZgpyM68rlgqErCdwPjvF8vsRetUvphsCEOo4+Pj1QtHczJXsu0FtCFDzPuMqUYxu93y5cvVHB6YXGm7cSfQp1tTG84Q2iwoyKHly9xJwBEEzGKsR+g5omA2FwI/LKVKlVJ/GIWoR+x9O32WJCevzJPRermpEgU5N/R4LAm4gADcFLpnjFcrhdOMb6grRBqvoJq/UNT0uXk1ai8nlwajLHJCjceQgIsIwGcMQ8+4bdu2Liq5PUVt0qSJDBo0SGWGYeNONgqyk1uHZSOBXBJA7xgPuOAzDqeesRVb7969BRMqYQ4PDBt3qlGQndoyLBcJ2EAAoW2wcJsDORA63CHAMIeHU42C7NSWYblIwAYCiDOGIZoi3E3fIWBCJacaBdmpLcNykYANBDDoA1aiRAkbcnN3Fpj3GYbZ7ZxqjLJwasuwXCRgAwEMlICFKs546tSp8s033wQs6Y033ij4s9qqVavk7bfflpEjR8r8+fNl2rRp8uabb6pkK1askNq1a0uBAgWsh+V6XU/C7+SpRtlDznUzMwMSCF8C69atk0mTJqm3jqAHav6LiYkJCObgwYPqGAziOHr0qOzevVulg1B37NhRjh8/HvC4cNjIHnI4tDLrSAIhJFChQgUZMmRIlmfYuXOnFCxY0C9d165dpVOnTpKeni6HDmW4ElJSUiQ2Nlby5w8/eWIP2e/y4AoJkIDdBDCUGQNSEHaWmJjoJ95jxoyRNm3ayJEjR6Rnz57q1E2bNpXFixfbXQxX5Bd+P0GuaBYWkgTcQ2DXrl3y2GOPXVLg5557TsqVKydPPfWUnDx5UhYuXGi8Kuq83HPPPX5pz549qx46zpw5Uwn3hg0bpGTJkn5pwmWFPeRwaWnWkwRCSCAqKkqsfxEREcoVAaG9+eabJSEhQT2wu+WWW0JYEndnzR6yu9uPpSeBK04APuRhw4YFLAf8wnhIV6tWLd/+xo0b+5a54E+APWR/HlwjARKwkQBcD4i2WLZsmS/X5ORk3zIX/HGvdTYAAEAASURBVAmwh+zPg2skQALZJIDQNcQTW61o0aLqQR7cFWPHjpV27dopcf7iiy+sSdV6dHS0+sSUmZgEqXDhwgHTeXkjBdnLrcu6kUAeEIBLokePHpecCTHF48ePl1deeUUQe6znkujWrZsgfhk+ZrNhAiREYdx2223y0UcfyU033WTeHRbLEfHxNdLjypaxrbLzJw63LS9mRAIkkDsCjw4dq96XN3jw4JCN1gu2hMeOHROMlitSpEimhyAeGXHIxYoVu0SwMz0oyB2I8EBIXWRkPtm8cGyQR2UvWeueA7N3gCU1fcgWIFwlAS8RwAs/YYgFvtIGF8blxBjlQ6+5ePHitosx8t6xYwc+pFwZ54bUUZBVE/E/EvAmAbx9GYZ3zIW7wTcNa1g73rEoKMiObRoWjARyT6BeQsYMZ3jhZ7jblClTFIJObZo4FgUF2bFNw4KRQO4JtGxovFW6WLR6+7LuIeY+V/flMGHCBElKSpIKcaWF79RzX/uxxCTgGQLd2zVQdUEPMRx7yqNGjZKhQ4cqBgPv6+PodmUP2dHNw8KRQO4JoJfcrlmiFIwS6d+/v6C3GC6Guo4YMUJVt9/NXR3dO0YhGYccLlcm6xnWBPp0ayrJySsVA/QW0VtGXDBea4Q5jPXk7W6HhNA2RFPAPYM6wk0Bgxi//FR/x1ePguz4JmIBScAeAhCkerXiZfjI8UqotFjZk7szc4HPGG4KJ/uNzeQoyGYaXCYBjxOAMOFv/NTZ6u3LeOEn3jHn5NcaZadJMOgDccYIbUM0hVuEWNeRgqxJ8JMEwoiAFuYwqrIrqsqHeq5oJhaSBEggHAhQkMOhlVlHEiABVxCgILuimVhIEiCBcCBAQQ6HVmYdSYAEXEGAguyKZmIhSYAEwoEABTkcWpl1JAEScAUBCrIrmomFJAESCAcCFORwaGXWkQRIwBUEKMiuaCYWkgRIIBwIUJDDoZVZRxIgAVcQoCC7oplYSBIggXAgQEEOh1ZmHUmABFxBgILsimZiIUmABMKBAAU5HFqZdSQBEnAFAQqyK5qJhSQBEggHAhTkcGhl1pEESMAVBGwX5HPnUl1RcRaSBEiABOwkYIf22S7Iq9ZvtbOOzIsESIAEXEHADu2zXZAnzljoCngsJAmQAAnYScAO7bNdkH+cs1S+nDTLznoyLxIgARJwNAFoHrQvtxZZokTJwTHR0bnNx+/435evk+279kvx2GgpVSJW8CZYGgmQAAl4iQB8xivXbpF/j54m/7OpExoRH18jPa5sGS9xYl1IgARIwJUE2HV1ZbOx0CRAAl4kQEH2YquyTiRAAq4kQEF2ZbOx0CRAAl4kQEH2YquyTiRAAq4kQEF2ZbOx0CRAAl4kQEH2YquyTiRAAq4kQEF2ZbOx0CRAAl4kQEH2YquyTiRAAq4kQEF2ZbOx0CRAAl4kQEH2YquyTiRAAq4kQEF2ZbOx0CRAAl4kQEH2YquyTiRAAq4kQEF2ZbOx0CRAAl4kQEH2YquyTiRAAq4kQEF2ZbOx0CRAAl4kQEH2YquyTiRAAq4kQEF2ZbOx0CRAAl4kQEH2YquyTiRAAq4kQEF2ZbOx0CRAAl4kQEH2YquyTiRAAq4kQEF2ZbOx0CRAAl4kQEH2YquyTiRAAq4kQEF2ZbOx0CRAAl4kQEH2YquyTiRAAq4kQEF2ZbOx0CRAAl4kQEH2YquyTiRAAq4kQEF2ZbOx0CRAAl4kQEH2YquyTiRAAq4kQEF2ZbOx0CRAAl4kQEH2YquyTiRAAq4kQEF2ZbOx0CRAAl4kQEH2YquyTiRAAq4kQEF2ZbOx0CRAAl4kQEH2YquyTiRAAq4kQEF2ZbOx0CRAAl4kQEH2YquyTiRAAq4kQEF2ZbOx0CRAAl4kQEH2YquyTiRAAq4kQEF2ZbOx0CRAAl4kkD9Ulbqu7dXSs+s1UjehqkRFhew0oSo+8yUBEiCByxI4dy5VVq3fKhNnLJQf5yy9bNpgd4ZEKR/u30NuvbF9sGVgOhIgARJwHQF0NBvVraH+EmtUkhGfTs51HWx3WaBnTDHOdbswAxIgARcRgOZB+3Jrtgsy3BQ0EiABEgg3AnZon+2CDJ8xjQRIgATCjYAd2me7IPMBXrhdhqwvCZAACNihfbYLMpuGBEiABEggZwQoyDnjxqNIgARIwHYCFGTbkTJDEiABEsgZAQpyzrjxKBIgARKwnQAF2XakzJAESIAEckaAgpwzbjyKBEiABGwnQEG2HSkzJAESIIGcEaAg54wbjyIBEiAB2wlQkG1HygxJgARIIGcEKMg548ajSIAESMB2AhRk25EyQxIgARLIGQEKcs648SgSIAESsJ0ABdl2pMyQBEiABHJGgIKcM248igRIgARsJ0BBth0pMyQBEiCBnBGgIOeMG48iARIgAdsJhOQlp7aXkhmSAAnYSuDXFZslef0O2br7kKQcOylpaem25n+lMsuXL0KKFS0iVcuXlHoJlaRlw/grVZQcnZeCnCNsPIgE3EkAQvzd7CQ5nHLCnRXIotT4YUHd8Ld87XZV1+7tGrhGmCnIWTQwd5OAVwiM/36xzF60TlWncuXK0qhRI4mPj5cSJUpIvnze8F6mpaXJ4cOHZfPmzbJ8+XLZvn27jJ68ULYbdwJ9ujV1fFNSkB3fRCwgCeSegFmMb7jhBmnWrFnuM3VgDvhhKVWqlPpDHRctWiRTpkyRb6fPkuTklfLyU/0dWOqLRaIgX2TBJRLwJAG4KXTPuHPnzp4V40CNB1GGSN97770yf6FIvVrx0uf6doGSOmKbN+5THIGShSABZxKAzxiGnnHbtm2dWcgQlqpJkyYyaNAgdYbhI8eH8Ey5z5qCnHuGzIEEHEsAvWM84ILP2KtuimDg9+7dWxo0aCC79hyQ8VNnB3PIFUlDQb4i2HlSEsgbAghtg+EBXrgb7hBgP81d4lgUFGTHNg0LRgK5J4A4YxiiKcLd9B3CijWbHYuCguzYpmHBSCD3BDDoA4bQtnC3SpUqKQR792f8SDmRB6MsnNgqLBMJ2ERAj8CzK844NTVVRo0aJXPnzpWdO3dK3bp1pWfPnoLoDW179uyRc+fOKb+13uaEz8jISFWM8+fTnFCcgGVgDzkgFm4kARIIROCRRx6R1157TcX5Qoj3798vffv2lS+//NKXvEWLFrJq1SrfOheCJ0BBDp4VU5JAWBM4deqUjBs3Tl544QV577335LHHHpOvvvpKunTpIh9++KFic+LECTl+/LgcO3ZM9ZI1sPPnz8uGDRsEeWjDtqNHjwp63RhZl55+cT4NCP3GjRvVPp0+HD4pyOHQyqwjCdhAoECBAhITEyPz5s2TgwcP+nJ8//335eOPP1brf/rTn9TngAED5IMPPlCC+vrrr0udOnWkZcuWAj/uu+++q9KgF129enVBSBoeuL3yyitq2POtt94qtWrVEvS0a9SoodwjvpN5fIGC7PEGZvVIwC4C8MFCZDEUOSEhQbp27SpvvfWW7N69W63jPHPmzFGnGzNmjDz++OPy2WefybBhw1S6rVu3KncHhHfmzJm+YpUsWVKmT58u/fr1k6FDh8rSpUvll19+kfXr10ufPn3k9ttvl5SUFF96Ly9QkL3cuqwbCdhM4Prrr1f+4XfeeUcqVqwoI0aMkA4dOqjPQKeaPHmyXHPNNdKjRw/Vu77vvvukdOnSMmPGDF/yhx56SJo3by5VqlSR8ePHy7XXXqtcHmvXrpU2bdooF8jixYt96b28wCgLL7cu60YCNhLYu3ev8uu2bt1a7rzzTvV35swZGTx4sLz00kty2223CXq7ZkPERffu3X2bIiIilCsCeWkrX768WoTfGf5nuETWrFmjd0tiYqKcPJkRvufb6NEF9pA92rCsFgnYTWD16tWqp7tlyxZf1gULFhT4fGEQX6tVrVpVFixY4NuMB3mzZ89WPmW9UYfkFS1aVPWiIew4Bn9wXbz44ouql63Te/mTguzl1mXdSMBGAq1atVLuBrgfJk2aJHApQFwHDhwo1apVk9q1a6uz4cFfUlKSHDhwQHr16iVwN4wePVrQKx4+fLjqBcMVEcjgM/7kk0/khx9+UA/40Pu+//77AyX15Da6LDzZrKwUCdhPAL1hCDDC3e6++27fCTp27KgEF+4IGOKT33zzTdm3b5/6REgbjoHBf4wQObg9dKyy7iFjP0Lq8ABP97oxIRAGouC4cLCI+Pga6XFly9hW1/kTh9uWFzMiARLIHYFHh45V78tDT9MsfLnLVVQ4G3q8ZcqUEYTDWQ3xxUWKFJH8+TP6fBi5h1C5uLg4a9KA66dPnxbENGOyebsM7pKmTZtKZGQ+2bxwrF3Z+uXTuudAv/XsrtBlkV1iTE8CLiKAF37C8FojOw1CiyiLQGKM88TGxvrEGOtRUVFBizHSFypUyFYxRp47duzAh5Qr4//gUW10yH8UZIc0BItBAqEggLcvw+A2CHfD65xgDWvHOxYFBdmxTcOCkUDuCdRLyJjhDC/8DHfDgBZYpzZNHIuCguzYpmHBSCD3BFo2NN4qXSxavX1Z9xBzn6v7cpgwYYKK/KgQV5rv1HNf87HEJOAdAt3bNVCVQQ8xHHvKiNLAkGzYwPv6qE+n/sceslNbhuUiAZsIoJfcrlmiFIwS6d+/v6C3GC6GumJ4N6zfzV0d3TtGGRmHDAo0EvA4gT7dmkpy8kpVS/QW0VvGO+YwyxpmYNOTt7sdA0LbEE0B9wzqiAEqMIjxy0/1d3z1KMiObyIWkATsIQBBqlcrXoaPHK+ESouVPbk7Mxf4jOGm6HN9O2cW0FIqCrIFCFdJwMsEIEz4Gz91tnr7Ml74iXfMOfm1RtlpDwz6QJwxQtsQTeEWIdZ1pCBrEvwkgTAioIU5jKrsiqryoZ4rmomFJAESCAcCFORwaGXWkQRIwBUEKMiuaCYWkgRIIBwI0IccDq3MOpKAhcCvKzZL8vodsnX3IUk5dlLNCGdJ4srVfPkiBBMqYQ4PDBtHDLabjILsptZiWUkglwQgxN/NTpLDKSdymZMzD09LS1d1Q/2Wr92u6oqRim4RZgqyM68rlooEbCcw/vvFMnvROpVv5cqVpVGjRhIfb8x1UaKErXMl217wbGSYlpamphrF7HYYJr59+3YZPXmhbDfuBDA4xulGQXZ6C7F8JGADAbMY6xF6NmTruCwwCT8mtccfRiHqEXvfTp+lRio6fbQeBdlxlxQLRAL2EoCbQveMO3furITK3jM4NzeIMkT63nvvlfkLRY1UdPJgEUZZOPdaYslIwBYC8BnD0DNu27atLXm6KZMmTZrIoEGDVJExbNzJ5soe8q49B2TOr8slafVGWZ68QQ4cOiKJNatI/do1pEGdmnJd2+bqvVnBgD92/KR8+Pk3lyS9uUcnqVa5vNp+JOW4vPrup/LrklXyyD29pe+NnS9Jb9eG8VN+li3bdvlld9/tPaV4sRi/bYFW3h35lYz95ge5ocu18uyjdxqv0IkMlIzbwogAesd4wAWfMXqL4Wq9e/f2TTaEYeNO7SW7SpDT09Pl83HT5NFB7wiE9Or6iTJwwC1SNKaI/DJ/qfz9lX+p6611c+NNte88J4k1qmR5/eFNufkjI+U/X0yS9Zu2+dI3qpvgE+SPx0yWtz/8Uu2b/3uStG91tS3v5cIDiG+mzZae3dr6xBNzCuBc+w5cfAdarz+1y1KQf1u6Sp548T1VxkXL10jDujWlR9fAr1r3VZILnieA0DYYHuCFu+EOARMq/TR3iWMF2TUuixMnT8kNdzwt/R8bqsT4unbN5bfpH8tf/9JVCc87Qx6T8R9nTEIN0azV+hb57KvvsrwGY6ILG6J+qzz94G2ZpkUP3GwHDqWYV3O8POzDsdLn3kFy/MQpXx639Ows99/Z07ce7ELKUf8wJut6sPkwnbcIIM4YhmiKcDd9h4AJlZxqrhHkIW9/Kt/NXODjOHLY3329Sr2x9/UdZMBdvfSqEu/V67f41i+3ULZ0iUx397/1ekm40Nu+57YbpG5i9UzTBrtj1oKLPXrrMSWLx1o3ZbnevnVjwY8UrFmj2nJ9l9ZZHsME3ieAQR8whLaFu2HeZxhmt3OqucJlsXjFWvnHB6N9DLt3buVzJ/g2Xlj4601d5N+ff+vbfMdDQ1RPOjf+VLg+1s770vDFHZOciKWvMBcW8CPR485nrJtztV7AeM36D1+9q/zppUsWz1VePNg7BDBQAoZIg5zY6tWrZdiwYb5Do4zrrGTJkgKfLB6WBWMzZ86UWbNmyauvvppl8tOnT8v69eulQYMGWabNbgI9Cb+Tpxp1hSD//ZUP/Ni3albfb928gn3wKcPHDFu6cp18O91w4t/Q0ZcMDfLL/CWyYNFKKVSogHRt39K3z7oA3+z+g/4uC/RECxaIkuk/L/SbR7ZEsaIC/zUE94dZvwvcLDca/mFMCq5txaqN0qXvY77yYTvyQZmbNqwlcWVL6aR+n3iQOXPOIklas1Hiq1aUW3tdZ7y8sqhKs+mPnbJmwx9+6eFfx+Tc1vLDZ961fQvlo0Z+azdula4dWkjrZg0uuePwy5ArYUlg//79MmnSJLnrrrskJiZGUlJS5Ndff5WRI0fKyy+/LA8//HCWXDZu3Cg//PBDUIL80EMPSYUKFUIiyFkW1AEJHC/IePD187wlfqgQTZGZoScAlwIiIrQtW7neJ8gQ6jseflkmfT9X71YPAxGdEcggWs+/MdJv17al30rlCuXkP/+d6JcPRBCugiFvf+JLj2PxEPCnCe+rXsqzQz/0e2CHhLc98JJK/80nr0uvP1/6ZoNpPy2Ux19415cnFl4eNkqSZ4+RMqWKy/rN2+SeJ17zy/fLfw8R+KPxsBPnNNsXI15SDPS219//r8Bls2zm50rE9XZ+koAm8Mwzz0hcXJxaxXfyhRdekJdeekk6deoktWvX9m3ftm2beh0U3AP48c/Mjh8/rl61VLVqVSlcuLBKht7x0aNHVQ/81KlTvu2B0maWr9u35+w+Jg9rvW3n3kvOVvxCz/CSHRc24I0BZkNonLaHnh3mE1GI0JxJH8rXo16TPfsO6iR+n4Me7yd/u72H3za9MvGzN1WYnV5Hb/yTsVPlrRcfljoJF/3M8BfPWrBMJZs29m0Z+uz9+hD1eWjdDEnbPT+gGCMBxPiZh273248oDO2a+VPHa2T4y4/65alX/u+RO4wHln/Vq+oTP0gvPnn3Jfl9NHqSXzqukEAgAuj0/P3vf1e74I6ArVq1Slq2bKncGIjo6Nixo0CcrYZIqSFDhgiEuHXr1up9fh9+mNFheOONN+Tnn3+WTz75RG6//Xa5XFprvl5Zd3wPGbfUVospkvGLat2u162CvCRprdqVvHazfDH+e51MBj91j7Rp0VCtHz1+Qj0E9O00LVQqX9a05r9YtVKciofWW+dM+pdUr1LBeH1MU7n6un56s8Ct0PHaDJ+btecQIca/y/Qmxn30qurh4wLNV/7iwzozmwpxZXznsi7AdWG2//1niIqltua3fvN2czIuk0CmBGJjY6VGjRqybt06OXfunHqbdfXq1WXixIly4sQJeeyxx+SJJ56Qr7/+2i+Pb7/9Vt577z35/PPPVe963LhxMnDgQCXkgwcPVvnVrFlTXnnlFfnmm28yTdu8eXO/fL2y4vgeclT+S38zUo03y2bHdI96yg/z/A5r0aSub92Oh3XwA0OMYdYfhZSjx33nyu6C7m1DtOOrZuSPPA4fOZbdrFT6erUyXD525ZejQvAg1xMoW7asnDx5Uj2E27Rpk1xzzTWyZcsW2bdvn1rGgzy4G8w2depUqVatmor6WLp0qUB84ZueMWOGOZlazk7aSw526YZL1c5hFdFiZC6WfmBn3mZexsg6szVvnOHjQi/VbJcLdTOnc9Jy/gA/ULkpn9355aYsPNZdBDZs2CDoqe7evVsVfOzYsYIer7bExEQ5eNDfFQg3xoEDB+Tpp5/WyaRixYrKPeHbcGEhO2mtx7p13fGCXL5cKb+oCYDevffAZXnv3LPfb79+YIdIBbMVKxpjXuUyCZBAkASmTZumhLVNmzaCnjIMYW1dunRRy7t27ZI1a9ZI+fIZ0w+ojcZ/eNh33rjD/eWXX/QmmT17thJl34YLC9lJaz3WreuOd1kALEbjmW2pETWRmaWmnheM1DOb9t2WKF7UvFnOpab6rXOFBEggMIGFCxfK/PnzZfr06fL222/LAw88IBDj9u3bS0JCgvInYzuGJu/cuVPNrgZfMeKWzdajRw+V5uOPP1bzFqNHfdNNN8nevRkP7+GbRhwyesdZpTXn65Vlx/eQAfq15wbImK9n+GJ3JxpxxYhUKFSwwCXtMGPWb37bnnzgVmnSoJbadlV8Zb99O3fvt2Wgh1+mXCEBDxLA9JXa4AO+++67ldsBzyEguqNHj5b7779fOnTooJJhmk9ETVgfVvfq1Uv5mRGlgT/EHCOeGREXMERnPPjgg4J0ixcvvmxadYDH/nOFIGMABCYLuvlvzyv8m7fuEsxshpAus50+c9aYeGi4bxOGOw955m++dYzwQ/yutskz5qoZ4rA+/edf9Wb1mXLsoh/a+hBRj35CQvTIAxkiGMyWlp7mW7VepNt27pGdeyLl/qfflHmT/31Jnoj71JZq6tWb88RtoNnM69YyBpOfOS8uu5cA3jGH6xVtnpPReu3atbvEDxyIBnrJcEMcOXJECXR0dLQv2YABAwR/MFz7Tz75pIrCgC9ZxzbrxH379lU9Y6TLKq0+JthP/Z2IjHSuY8C5JbNQxki7yf/9h/InYxcGO2A0nBYbTACEbRBrGNwU3385XIoULqTW8R/meLijTzff+psjRssrwz+Vnv3+7ovp1Tvf+mCMETu8VOVvHZiCgSYwRE7M+32FPkT14PWDw2XJ/m6V35etVl8KJLbOQndtjwFSr91f5Y7e3dT5cF6z6fNhxKCuH/ZjpCGGc8N+mrtYfer/liRlvKoHfLKT38lTp3UW/PQAAbzwE3b48MXZA0NZreLFi4tZjDM7Fx4mW8VYp8VAkUKFLn5vL5dWHxPM544dO1QyawRUMMfmVRrXCDKAYJ7fjb+OF8xVDOt6y+NSsVEPadvzASlT58+q14zQM/SmZ45/3xeCphJf+O+jt5+VB/rdpNYQrfHiPz4yhh1vlbcHP6K24XiMrKubGC9wadx83/OX+KR79f8/gUgWT+jic6Poc9Rs2UcgvpiZzmxfT50l9z31ptrUpX1zX0wyNqAcf3/4drn3rz3U+cyTKGH/XY++InN/WyE1WvTGqs9wHGa1G/HJBHnjn1/4tmPhnf/8Tz749Ots55fY6ha/fLjibgJ4+zIM75gLd8PrnGANa8c7FkVEfHyN9LiymQ8qyG7J50+86DLI7rHZSY+e36atOyXZmEpv74FDkmD4hxEiZx0EkVme6G2uWLVBTVJUs3ol1dtF7xMRGXlxS4NbyA1bdggiP2pfVTXTOSwyKz+3k0AwBDBBPV7yiQnq//a3i+67YI71WhrMx4GHjsNefCBk8yG37jkwV9hc4UMOVEPM3oZbf+vtf6C0gbZhDojObZv5dhWLjZHG9RN866FegD8vN+UPdfmYvzcItGwYL3iF03bj7cvoIeo5gb1Ru+BrMWHCBCXG6LA59W0hqI2rXBbB42dKEiABTaB7uwZqccqUKbJ8+XK9OWw+R40aJUOHDlX1HXhfH0fXm4Ls6OZh4Ugg9wTQS27XLFEKGiHB/fv3F/QWw8VQ1xEjRqjq9ru5q6N7xyika10W4XJBsZ4kYAeBPt2aSnLySpUVeovoLeMdc3BhYEScnrzdjnNdyTwQ2oZoCrhnUEf4jGEQ45ef6n8lixbUuSnIQWFiIhJwPwEIEl6WMHzkeCVUWqzcX7PMawCfMdwUTvYbm0tPQTbT4DIJeJwAhAl/46fOVm9fxgs/8Y45J7/WKDtNgggpxBkjtK1TmyauEWJdRwqyJsFPEggjAlqYw6jKrqgqH+q5oplYSBIggXAgQEEOh1ZmHUmABFxBgILsimZiIUmABMKBAH3I4dDKrCMJWAhgSHXy+h2ydfchSTl2Us0IZ0niylXMbocJlTCHR72ESoIYbDcZBdlNrcWykkAuCUCIMZT6cMqJXObkzMMx1Sjqhr/la7erumKkoluEmYLszOuKpSIB2wmM/36xzF6UMS0rJhtq1KiRxMfHqxeO5mSuZNsLaEOGmLQLU41idjsME8ccHphcabtxJ4DBMU43CrLTW4jlIwEbCJjFWI/QsyFbx2WBH5ZSpUqpP4xC1CP2vp0+S41UdPpoPQqy4y4pFogE7CUAN4XuGePVSuE04xvqCpHGK6jmLxQ1UtHJo/YYZWHvtc/cSMBxBOAzhqFn3LZtW8eVL9QFatKkiQwaNEidBsPGnWwUZCe3DstGArkkgN4xHnDBZxxOPWMrtt69e0uDBg3UCyEwbNypRkF2asuwXCRgAwGEtsHwAC/cDXcIsJ/mLnEsCgqyY5uGBSOB3BNAnDEM0RThbvoOARMqOdUoyE5tGZaLBGwggEEfsBIlStiQm7uzwLzPMMxu51RjlIVTW4blIgEbCGCgBCxUccZTp06Vb775JmBJb7zxRsGf1VatWiVvv/22jBw5UubPny/Tpk2TN9/MeCP7ihUrpHbt2lKgQAHrYble15PwO3mqUfaQc93MzIAEwpfAunXrZNKkSeqtI+iBmv9iYmICgjl48KA6BoM4jh49Krt371bpINQdO3aU48ePBzwuHDayhxwOrcw6kkAICVSoUEGGDBmS5Rl27twpBQsW9EvXtWtX6dSpk6Snp8uhQxmuhJSUFImNjZX8+cNPnthD9rs8uEICJGA3AQxlxoAUhJ0lJib6ifeYMWOkTZs2cuTIEenZs6c6ddOmTWXx4sV2F8MV+YXfT5ArmoWFJAH3ENi1a5c89thjlxT4ueeek3LlyslTTz0lJ0+elIULFxqvijov99xzj1/as2fPqoeOM2fOVMK9YcMGKVmypF+acFlhDzlcWpr1JIEQEoiKihLrX0REhHJFQGhvvvlmSUhIUA/sbrnllhCWxN1Zs4fs7vZj6UngihOAD3nYsGEBywG/MB7S1apVy7e/cePGvmUu+BNgD9mfB9dIgARsJADXA6Itli1b5ss1OTnZt8wFfwLsIfvz4BoJkEA2CSB0DfHEVitatKh6kAd3xdixY6Vdu3ZKnL/44gtrUrUeHR2tPjFlJiZBKly4cMB0Xt5IQfZy67JuJJAHBOCS6NGjxyVnQkzx+PHj5ZVXXhHEHuu5JLp16yaIX4aP2WyYAAlRGLfddpt89NFHctNNN5l3h8VyRHx8jfS4smVsq+z8icNty4sZkQAJ5I7Ao0PHqvflDR48OGSj9YIt4bFjxwSj5YoUKZLpIYhHRhxysWLFLhHsTA8KcgciPBBSFxmZTzYvHBvkUdlL1rrnwOwdYElNH7IFCFdJwEsE8MJPGGKBr7TBhXE5MUb50GsuXry47WKMvHfs2IEPKVfGuSF1FGTVRPyPBLxJAG9fhuEdc+Fu8E3DGtaOdywKCrJjm4YFI4HcE6iXkDHDGV74Ge42ZcoUhaBTmyaORUFBdmzTsGAkkHsCLRsab5UuFq3evqx7iLnP1X05TJgwQZKSkqRCXGnhO/Xc134sMQl4hkD3dg1UXdBDDMee8qhRo2To0KGKwcD7+ji6XdlDdnTzsHAkkHsC6CW3a5YoBaNE+vfvL+gthouhriNGjFDV7XdzV0f3jlFIxiGHy5XJeoY1gT7dmkpy8krFAL1F9JYRF4zXGmEOYz15u9shIbQN0RRwz6COcFPAIMYvP9Xf8dWjIDu+iVhAErCHAASpXq14GT5yvBIqLVb25O7MXOAzhpvCyX5jMzkKspkGl0nA4wQgTPgbP3W2evsyXviJd8w5+bVG2WkSDPpAnDFC2xBN4RYh1nWkIGsS/CSBMCKghTmMquyKqvKhniuaiYUkARIIBwIU5HBoZdaRBEjAFQQoyK5oJhaSBEggHAhQkMOhlVlHEiABVxCgILuimVhIEiCBcCBAQQ6HVmYdSYAEXEGAguyKZmIhSYAEwoEABTkcWpl1JAEScAUBCrIrmomFJAESCAcCFORwaGXWkQRIwBUEKMiuaCYWkgRIIBwIUJDDoZVZRxIgAVcQoCC7oplYSBIggXAgQEEOh1ZmHUmABFxBgILsimZiIUmABMKBAAU5HFqZdSQBEnAFAdsF+dy5VFdUnIUkARIgATsJ2KF9tgvyqvVb7awj8yIBEiABVxCwQ/tsF+SJMxa6Ah4LSQIkQAJ2ErBD+2wX5B/nLJUvJ82ys57MiwRIgAQcTQCaB+3LrUWWKFFycEx0dG7z8Tv+9+XrZPuu/VI8NlpKlYgVvAmWRgIkQAJeIgCf8cq1W+Tfo6fJ/2zqhEbEx9dIjytbxkucWBcSIAEScCUBdl1d2WwsNAmQgBcJUJC92KqsEwmQgCsJUJBd2WwsNAmQgBcJUJC92KqsEwmQgCsJUJBd2WwsNAmQgBcJUJC92KqsEwmQgCsJUJBd2WwsNAmQgBcJUJC92KqsEwmQgCsJUJBd2WwsNAmQgBcJUJC92KqsEwmQgCsJUJBd2WwsNAmQgBcJUJC92KqsEwmQgCsJUJBd2WwsNAmQgBcJUJC92KqsEwmQgCsJUJBd2WwsNAmQgBcJUJC92KqsEwmQgCsJUJBd2WwsNAmQgBcJUJC92KqsEwmQgCsJUJBd2WwsNAmQgBcJUJC92KqsEwmQgCsJUJBd2WwsNAn8f3tnAh5Fkb7xL9z3Ea5wQ8IGshyiHMIiNwIuyoILqCx/BQURDxRE3RUPFFBcgRVFXRE8AYXggaAIi3KJICBnOBLuM9wQ7pt/vwU1dobJZJLpTLp73u95hunprq6u+lV455uvv6omATcSoCC7cVTZJxIgAUcSoCA7ctjYaBIgATcSoCC7cVTZJxIgAUcSoCA7ctjYaBIgATcSoCC7cVTZJxIgAUcSoCA7ctjYaBIgATcSoCC7cVTZJxIgAUcSoCA7ctjYaBIgATcSoCC7cVTZJxIgAUcSoCA7ctjYaBIgATcSoCC7cVTZJxIgAUcSoCA7ctjYaBIgATcSoCC7cVTZJxIgAUcSoCA7ctjYaBIgATcSoCC7cVTZJxIgAUcSoCA7ctjYaBIgATcSoCC7cVTZJxIgAUcSoCA7ctjYaBIgATcSyJVVnbq92S3SqV1jqRlbWXLnzrLLZFXzWS8JkAAJ+CVw8eIlWZ+0U76dvUT+t3Cl37KBHswSpXy8V0e5728tAm0Dy5EACZCA4wjA0axbM0a9qsdUkLEffxd0HywPWcAzphgHPS6sgARIwEEEoHnQvmDNckFGmIJGAiRAAuFGwArts1yQETOmkQAJkEC4EbBC+ywXZN7AC7c/Q/aXBEgABKzQPssFmUNDAiRAAiSQOQIU5Mxx41kkQAIkYDkBCrLlSFkhCZAACWSOAAU5c9x4FgmQAAlYToCCbDlSVkgCJEACmSNAQc4cN55FAiRAApYToCBbjpQVkgAJkEDmCFCQM8eNZ5EACZCA5QQoyJYjZYUkQAIkkDkCFOTMceNZJEACJGA5AQqy5UhZIQmQAAlkjgAFOXPceBYJkAAJWE6Agmw5UlZIAiRAApkjQEHOHDeeRQIkQAKWE6AgW46UFZIACZBA5ghQkDPHjWeRAAmQgOUEsuQhp5a3khWSAAlYSmDpmm2SkLRHdiYflZSTZ+TKlauW1p9dleXIESFFCxeQymUjpVZsBWl0U3R2NSVT16UgZwobTyIBZxKAEH+/YK0cSzntzA6k02p8saBveK3etFv1tUPzOo4RZgpyOgPMwyTgFgLxP66QBcsTVXcqVqwodevWlejoaClevLjkyOGO6OWVK1fk2LFjsm3bNlm9erXs3r1bJn63RHYbvwS6tq9v+6GkINt+iNhAEgiegFmM77rrLmnQoEHwldqwBnyxlChRQr3Qx+XLl8uMGTPkm1nzJSFhnbwyqJcNW/1HkyjIf7DgFgm4kgDCFNozbtOmjWvF2NfgQZQh0r1795bFS0Rq1YiWrnc291XUFvvc8TvFFijZCBKwJwHEjGHwjJs1a2bPRmZhq+rVqyeDBw9WVxg9Lj4LrxR81RTk4BmyBhKwLQF4x7jBhZixW8MUgcDv0qWL1KlTR/btPyzxMxcEckq2lKEgZwt2XpQEQkMAqW0w3MALd8MvBNhPi363LQoKsm2Hhg0jgeAJIM8YhmyKcDf9C2HNxm22RUFBtu3QsGEkEDwBTPqAIbUt3K1ChQoKwYFD176k7MiDWRZ2HBW2iQQsIqBn4FmVZ3zp0iWZMGGCLFq0SPbu3Ss1a9aUTp06CbI3tO3fv18uXryo4tZ6nx3ec+bMqZpx+fIVOzTHZxvoIfvEwp0kQAK+CDzxxBPy2muvqTxfCPGhQ4fknnvukS+++MJT/NZbb5X169d7PnMjcAIU5MBZsSQJhDWBs2fPytSpU+XFF1+UMWPGyJNPPilTpkyRtm3byvvvv6/YnD59Wk6dOiUnT55UXrIGdvnyZdm8ebOgDm3Yd+LECYHXjZl1V6/+sZ4GhH7Lli3qmC4fDu8U5HAYZfaRBCwgkCdPHilUqJD88ssvcuTIEU+Nb7/9towfP159vuOOO9T7I488Iu+++64S1Ndff13+/Oc/S6NGjQRx3LfeekuVgRddtWpVQUoabrgNHTpUTXu+7777pEaNGgJPOyYmRoVHPBdz+QYF2eUDzO6RgFUEEIOFyGIqcmxsrLRr107efPNNSU5OVp9xnYULF6rLTZo0SZ566in55JNPZOTIkarczp07VbgDwjt37lxPsyIjI2XWrFnSs2dPGT58uKxcuVLmzZsnSUlJ0rVrV+nRo4ekpKR4yrt5g4Ls5tFl30jAYgJ33nmnig//5z//kfLly8vYsWOlZcuW6t3Xpb777jtp3LixdOzYUXnXDz/8sJQsWVJmz57tKf7YY49Jw4YNpVKlShIfHy+33XabCnls2rRJmjZtqkIgK1as8JR38wazLNw8uuwbCVhI4MCBAyqu26RJE7n//vvV6/z58zJkyBB5+eWXpXv37gJv12zIuOjQoYNnV0REhApFoC5tZcuWVZuIOyP+jJDIxo0b9WGpXr26nDlzLX3Ps9OlG/SQXTqw7BYJWE1gw4YNytPdvn27p+q8efMKYr4wiK+3Va5cWX799VfPbtzIW7BggYop6506Ja9w4cLKi4aw4xy8ELp46aWXlJety7v5nYLs5tFl30jAQgJ/+ctfVLgB4Yfp06cLQgoQ14EDB0qVKlUkLi5OXQ03/tauXSuHDx+Wzp07C8INEydOFHjFo0ePVl4wQhG+DDHjjz76SObMmaNu8MH77tu3r6+irtzHkIUrh5WdIgHrCcAbhgAj3e3BBx/0XKBVq1ZKcBGOgCE/+Y033pCDBw+qd6S04RwY4sdIkUPYQ+cqaw8Zx5FShxt42uvGgkCYiILzwsEioqNjrkaVLmVZXxd/O9qyulgRCZBAcAT6D5+snpcHT9MsfMHVKiqdDR5vqVKlBOlw3ob84gIFCkiuXNd8PszcQ6pcVFSUd1Gfn8+dOyfIacZi81YZwiX169eXnDlzyLYlk62qNlU9TToNTPU5ox8YssgoMZYnAQcRwAM/YXiskZUGoUWWhS8xxnWKFCniEWN8zp07d8BijPL58uWzVIxR5549e/AmZUqlvvGodtrkHwqyTQaCzSCBrCCApy/DEDYId8PjnGA3xUXbFgUF2bZDw4aRQPAEasVeW+EMD/wMd8OEFljrpvVsi4KCbNuhYcNIIHgCjW4ynipdtKB6+rL2EIOv1Xk1TJs2TWV+lIsqyWfqOW/42GIScA+BDs3rqM7AQwxHTxlZGpiSDRv4cFf1btd/6CHbdWTYLhKwiAC85OYNqkve3CK9evUSeIvhYugrpnfDenZrZ2vvGG1kHjIo0EjA5QS6tq8vCQnrVC/hLcJbxjPmsMoaVmDTi7c7HQNS25BNgfAM+ogJKjCI8SuDetm+exRk2w8RG0gC1hCAINWqES2jx8UrodJiZU3t9qwFMWOEKbre2dyeDfRqFQXZCwg/koCbCUCY8IqfuUA9fRkP/MQz5uz8WKOMjAcmfSDPGKltyKZwihDrPlKQNQm+k0AYEdDCHEZddkRXeVPPEcPERpIACYQDAQpyOIwy+0gCJOAIAhRkRwwTG0kCJBAOBBhDDodRZh9JwIvA0jXbJCFpj+xMPiopJ8+oFeG8ijjyY44cEYIFlbCGB6aNIwfbSUZBdtJosa0kECQBCPH3C9bKsZTTQdZkz9OvXLmq+ob+rd60W/UVMxWdIswUZHv+XbFVJGA5gfgfV8iC5Ymq3ooVK0rdunUlOtpY66J4cUvXSra84Rmo8MqVK2qpUaxuh2niu3fvlonfLZHdxi8BTI6xu1GQ7T5CbB8JWEDALMZ6hp4F1dquCizCj0Xt8cIsRD1j75tZ89VMRbvP1qMg2+5Pig0iAWsJIEyhPeM2bdooobL2CvatDaIMke7du7csXiJqpqKdJ4swy8K+f0tsGQlYQgAxYxg842bNmllSp5MqqVevngwePFg1GdPG7Wy295Cn/7hIErfuTJNhXuN5Xk/26Zbm8YweiJ/xs2zftc9zWo6IHDLwkXsDirG9NW6KTP56jtzV9jb5V//7jUfY5PTUww0SyA4C8I5xgwsxY3iL4WpdunTxLDaEaeN29ZJtL8gQtTXrtyih8/5jerTn3XJLnereu4P6fP78RRn2n0/k5Kkznnog+Ok9IPK3letlwEtj1DnLV2+Um2pWk47tfD/q3FMxN0ggiwkgtQ2GG3jhbviFgAWVflr0OwU5s38MHdr8Rdq3bCQr1mySpK27PNXc26mNvDtikOezVRs9urSTuQuXy6dTf8hQlSknUqcReX/OUGUsTAIWEUCeMQzZFOFu+hcCFlSyqzkihowVnO68vUkqhrExlVJ9tvJDZPEiGa6uRZOb5fbmDdV5DerGyZ1tU7c3wxXyBBKwgAAmfcCQ2hbuhnWfYVjdzq5m+5CFBhcRobeuvefKaa/4bB7jMedzprwlh48el5KRxVI3lp9IIJsIYKIELL2QW1rN27Bhg4wcOdJzOLfxdx4ZGSmIyeJmWSA2d+5cmT9/vgwbNizd4ufOnZOkpCSpU+faY6fSPSEDBfQi/HZeatQxgpwB7mkW3bf/sCxculpWJyRJnjy5pW7NP0mLJrdIZLH0PeILFy/KnPnLbqi7Ub2agvDExs07Uh27pXZ1weLYNBJwMoFDhw7J9OnT5YEHHpBChQpJSkqKLF26VMaNGyevvPKKPP744+l2b8uWLTJnzpyABPmxxx6TcuXKZYkgp9tQGxQIG0FG9sRDA15TN+t63tNBILBDR38spUsWly8/GCotDWH2Z7jZB0F+Z8IfaTPd724rNapVls3bd6u6Dx4+5qnii/++Kohz00jADQSeffZZiYqKUl3BbLgXX3xRXn75ZWndurXExcV59u/atUs9DgrhgQjvn7UmEKdOnVKPWqpcubLkz59fHYF3fOLECeWBnz171rPfV1lTVa7adEQMOVjiX38/X7r1eUGJcee/NpePxwyWie++LE0a1hGIaKu/Py7LVm3we5nChQrIiwN7Cd4Rv17902cy6b0hUq1qBbmjVWMZ/Up/v+fzIAm4hQDCH88995zqDsIRsPXr10ujRo1UGAMZHa1atRKIs7ddvXpVXn31VYEQN2nSRD3P7/3331fFRowYIT///LN89NFH0qNHD/FX1rtet3x2vSAjfa3fc296xuvvHVqobXx7t71+Ew47+j37pt/H2Bw5liJtuvaXqpXKyeIZ/1Vpbaqi6/+Uiypl/shtEnA1gSJFikhMTIwkJibKRePXJp5mXbVqVVm3bp0KacDrHTBgwA0MvvnmGxkzZox8+umnykMePXq0vPDCC7Js2TIZMmSItG3bVh599FH56quvxF/ZGyp2yQ7XCzJixuZQQqUK1352YfyiK5f3DOPKdYmyPtF3OsyhI8cNL/oJWbthi3w/aSRv2nmocSOcCZQuXVrOnDmjbsJt3bpVGjduLNu3b5eDBw+qbdzIQ7jBbDNnzpQqVaqorI+VK1dKtWrVVGx69uzZ5mJqOyNlbzjZoTtcH0PemLQj1dAUyJ/X89m8jZ24MVfnz9U8x/VGSyOkoXOgx06YJiNeeFQf4jsJhC2BzZs3S8OGDSU5OVkxmDx5skydOtXDo3r16nLkyBHPZ2wgjHH48GF55plnPPvLly+vwhOeHdc3MlLW+1ynfnatIL825lNpXL+2SkMzD44RwvIYMi3Mtv+g7/xELcYo+8bYidKmWQP1Mp/LbRIIJwI//PCDEtamTZsKPGUY0toQcoDt27dPNm7cKGXLllWf9T+42Xf58mWZN2+e3iULFiwQiLK3ZaSs97lO/ezKkMWW7Xtk8OsfGLmXEVLZFKLAIOFGgbZz5y/oTfWOG3S+bMWcj1Lt/sejQ2ydXJ6qsfxAAhYQWLJkiSxevFhmzZolo0aNkn79+gnEuEWLFhIbG6viydiPqcl79+5Vq6shVoy8ZbN17NhRlRk/frxatxge9d133y0HDhxQxRCbRh4yvOP0yprrdcu26zxkCC7EGPbn2Ko3JMSfOn3WM3bm9Squla/iOWbeqBNXTcaN/Kc8PGiE2o2YdK8nh8vMiW/eUL/5PG6TgFsIYPlKbYgBP/jggyrsgJvjEN2JEydK3759pWXLlqoYlvlE1oR36lvnzp1VnBlZGngh5xj5zMi4gCE7Azf1UG7FihV+y6oTXPaPYwTZfGMOY3Dx0iWfQ/Hc0Pdk6nc/qfziUiWKSQljGjTS2xYvu7YE4dYdezw5x4lbdnrq+L+u7VUGBXbgJ5XZrhgi3/sfd8mMOb+oF47N+nmJvD0+Xp56+B5V1Psc78/m+rhNAqEigF+JmK2H3OHMzNZr3rz5DXFgX22Hl4wwxPHjx5VAFyxY0FPskUceEbxgEOinn35annzySRXy0LnNuvA999yjPGOUS6+sPifQd/1/Eksx2NXs2zITsfWJ2+Xz+B9Ne0SmTP9JrQKHDIgNSdtl0lezpWH7h+TN9yapcvXq1FDv+CN8/41nVP4wdrxj3JS7dOmynD13XjBZBIbJISMGX7tRh/2//HZNvNVB4x/M7MMfx3///azepd6xuhsWPYL9tGiFetf//L722qNy9Ge+k0B2EMADP2HHjv0xaSkr21GsWDExi3Fa18qVK5dnool3GaTM5cuXz7PbX1lPoQA29uzZo0qVKRUZQOnsKWJ7D7ln/2E+V17Djba6re9Pk1rdWn/yHKsdFyNrfv5M/u/xV5WnXL5uR3UMXjdWk/t4zAsCbxp23yMvCVLgzNbor33URJDH/vXHnH59vEG7B2XMsAEy4p3P9S71/p8PvpSYKuXlsV5/T7WfH0gglATw9GWsh4xnzOGxRuFseJwT7Ka4aNtiiIiOjrkaVdq6SQ2Lvx1t286iYfsPHpGETdvU4vFIcQtkHQtbd4iNIwE/BLBAPR7yiQXq+/Tp46ek+w9hPQ7cdBz5Ur8sWw+5SaeBQYG0vYccVO98nBxVuoTgRSOBcCDQ6KZowSOc8PRleIh6TeBw6Lu5j9OmTVNijAW/7Pq0ELTXETFkM1hukwAJZIxAh+Z11AkzZsyQ1atXZ+xkF5SeMGGCDB8+XPVk4MNdbd0jCrKth4eNI4HgCcBLbt6guuTNLWrNCXiL4WLo69ixY1V3e3ZrZ2vvGI0Mu5BFuPwhsp8kYCbQtX19SUhYp3bBW4S3jGfMIYSBGXF68XbzOU7cRmobsikQnkEfETOGQYxfGdTL9l2iINt+iNhAErCGAASpVo1oGT0uXgmVFitrardnLYgZI0xh57ixmRwF2UyD2yTgcgIQJrziZy5QT1/GAz/xjDk7P9YoI0OCSR/IM0ZqW+um9RwjxLqPFGRNgu8kEEYEtDCHUZcd0VXe1HPEMLGRJEAC4UCAghwOo8w+kgAJOIIABdkRw8RGkgAJhAMBxpDDYZTZRxLwIoAp1QlJe2Rn8lFJOXlGrQjnVcSRH7G6HRZUwhoetWIrCHKwnWQUZCeNFttKAkESgBBjKjUWHHKjYalR9A2v1Zt2q75ipqJThJmC7Ma/SvaJBHwQiP9xhSxYfm0lQyw2VLduXYmOjlYPHM3MWsk+LpHtu7DuM5Yaxep2mCaONTywuNJu45cAJsfY3SjIdh8hto8ELCBgFmM9Q8+Cam1XBb5YsMwoXpiFqGfsfTNrvpqpaPfZehRk2/1JsUEkYC0BhCm0Z4xHK4XTim/oK0Qaj6BavETUTEU7z9pjloW1f/usjQRsRwAxYxg842bNmtmufVndoHr16sngwYPVZTBt3M5GQbbz6LBtJBAkAXjHuMGFmHE4ecbe2Lp06SJ16tSRffsPq2nj3sft8pmCbJeRYDtIIAsIILUNhht44W74hQD7adHvtkVBQbbt0LBhJBA8AeQZw5BNEe6mfyFgQSW7GgXZriPDdpGABQQw6QNWvHhxC2pzdhVY9xmG1e3sasyysOvIsF0kYAEBTJSAZVWe8cyZM+Xrr7/22dK//e1vgpe3rV+/XkaNGiXjxo2TxYsXyw8//CBvvPGGKrZmzRqJi4uTPHnyeJ8W9Ge9CL+dlxqlhxz0MLMCEghfAomJiTJ9+nT11BF4oOZXoUKFfII5cuSIOgeTOE6cOCHJycmqHIS6VatWcurUKZ/nhcNOesjhMMrsIwlkIYFy5crJq6++mu4V9u7dK3nz5k1Vrl27dtK6dWu5evWqHD16LZSQkpIiRYoUkVy5wk+e6CGn+vPgBxIgAasJYCozJqQg7ax69eqpxHvSpEnStGlTOX78uHTq1Eldun79+rJixQqrm+GI+sLvK8gRw8JGkoBzCOzbt0+efPLJGxr8/PPPS5kyZWTQoEFy5swZWbJkifGoqMvy0EMPpSp74cIFddNx7ty5Srg3b94skZGRqcqEywd6yOEy0uwnCWQhgdy5c4v3KyIiQoUiILTdunWT2NhYdcPu3nvvzcKWOLtqesjOHj+2ngSynQBiyCNHjvTZDsSFcZOuRo0anuM333yzZ5sbqQnQQ07Ng59IgAQsJIDQA7ItVq1a5ak1ISHBs82N1AToIafmwU8kQAIZJIDUNeQTe1vhwoXVjTyEKyZPnizNmzdX4vz55597F1WfCxYsqN6xZCYWQcqfP7/Pcm7eSUF28+iybyQQAgIISXTs2PGGKyGnOD4+XoYOHSrIPdZrSbRv316Qv4wYs9mwABKyMLp37y4ffvih3H333ebDYbEdER0dczWqdCnLOrv429GW1cWKSIAEgiPQf/hk9by8IUOGZNlsvUBbePLkScFsuQIFCqR5CvKRkYdctGjRGwQ7zZMCPIAMD6TU5cyZQ7YtmRzgWRkr1qTTwIyd4FWaMWQvIPxIAm4igAd+wpALnN2GEIY/MUb74DUXK1bMcjFG3Xv27MGblCll35Q6CrIaIv5DAu4kgKcvw/CMuXA3xKZhN8VF2xYFBdm2Q8OGkUDwBGrFXlvhDA/8DHebMWOGQtC6aT3boqAg23Zo2DASCJ5Ao5uMp0oXLaievqw9xOBrdV4N06ZNk7Vr10q5qJLCZ+o5b/zYYhJwDYEOzeuovsBDDEdPecKECTJ8+HDFYODDXW09rvSQbT08bBwJBE8AXnLzBtUlb26RXr16CbzFcDH0dezYsaq7Pbu1s7V3jEYyDzlc/jLZz7Am0LV9fUlIWKcYwFuEt4y8YDzWCGsY68XbnQ4JqW3IpkB4Bn1EmAIGMX5lUC/bd4+CbPshYgNJwBoCEKRaNaJl9Lh4JVRarKyp3Z61IGaMMIWd48ZmchRkMw1uk4DLCUCY8IqfuUA9fRkP/MQz5uz8WKOMDAkmfSDPGKltyKZwihDrPlKA7/WtAAAdh0lEQVSQNQm+k0AYEdDCHEZddkRXeVPPEcPERpIACYQDAQpyOIwy+0gCJOAIAhRkRwwTG0kCJBAOBCjI4TDK7CMJkIAjCFCQHTFMbCQJkEA4EKAgh8Mos48kQAKOIEBBdsQwsZEkQALhQICCHA6jzD6SAAk4ggAF2RHDxEaSAAmEAwEKcjiMMvtIAiTgCAIUZEcMExtJAiQQDgQoyOEwyuwjCZCAIwhQkB0xTGwkCZBAOBCgIIfDKLOPJEACjiBAQXbEMLGRJEAC4UCAghwOo8w+kgAJOIKA5YJ88eIlR3ScjSQBEiABKwlYoX2WC/L6pJ1W9pF1kQAJkIAjCFihfZYL8rezlzgCHhtJAiRAAlYSsEL7LBfk/y1cKV9Mn29lP1kXCZAACdiaADQP2hes5SxePHJIoYIFg60n1fnLVifK7n2HpFiRglKieBHBk2BpJEACJOAmAogZr9u0Xf478Qf50iInNCI6OuZqVOlSbuLEvpAACZCAIwnQdXXksLHRJEACbiRAQXbjqLJPJEACjiRAQXbksLHRJEACbiRAQXbjqLJPJEACjiRAQXbksLHRJEACbiRAQXbjqLJPJEACjiRAQXbksLHRJEACbiRAQXbjqLJPJEACjiRAQXbksLHRJEACbiRAQXbjqLJPJEACjiRAQXbksLHRJEACbiRAQXbjqLJPJEACjiRAQXbksLHRJEACbiRAQXbjqLJPJEACjiRAQXbksLHRJEACbiRAQXbjqLJPJEACjiRAQXbksLHRJEACbiRAQXbjqLJPJEACjiRAQXbksLHRJEACbiRAQXbjqLJPJEACjiRAQXbksLHRJEACbiRAQXbjqLJPJEACjiRAQXbksLHRJEACbiRAQXbjqLJPJEACjiRAQXbksLHRJEACbiRAQXbjqLJPJEACjiRAQXbksLHRJEACbiRAQXbjqLJPJEACjiRAQXbksLHRJEACbiRAQXbjqLJPJEACjiRAQXbksLHRJEACbiRAQXbjqLJPJEACjiRAQXbksLHRJEACbiRAQXbjqLJPJEACjiRAQXbksLHRJEACbiRAQXbjqLJPJEACjiRAQXbksLHRJEACbiRAQXbjqLJPJEACjiRAQXbksLHRJEACbiRAQXbjqLJPJEACjiRAQXbksLHRJEACbiRAQXbjqLJPJEACjiRAQXbksLHRJEACbiRAQXbjqLJPJEACjiSQy5GtZqMdS+DI0aNy7NgxOX3mjFy5fFnyFyggBfLnlyJFisipU6fkjLE/9k9/cmz/2HASCIYABTkYejw3QwS2bNsmBw8eVAIcFRUlhQoVUgK8c9cu2bN3r6qreLFiPus8ceKE5MuXT/LkyePzOHeSgBsIMGThhlF0QB8OHjqkxBhNjY2NlagyZaRQwYJSulQpufmmmyS/IbZp2cmTJyVhwwblVadVhvtJwA0EKMhuGEUH9GHPnj2eVnqLb65cuaRKlSqe4+aNixcvyqakJPMubpOAawlQkF07tPbp2KVLl+Tc+fOeBh01YsjehlBFkcKFU+2+bMSYNyUmCkSZRgLhQIAx5HAY5Wzu41Wv6ycaHm/lSpWkrBFHzpHjD58gumpVOXX6tCoNEd9oiPFJ40afNoQu5OpVyWuEN3AjUNuVK1ckJSVFhTRwXkHjRmFhQ9wRc9Z23vhCwA1DsxU0QibwzlOM+DRi1MWKFpWixkubuV7swzGEWSIiInQRvpOApQQioqNjrkaVLmVppayMBLwJLP/99xs83dy5c0ulChWklBFHNgszzt2XnCw7du70rkZ9Llu2rFStXFltI1sjyRD4s+fOSVEjUwMii3NhVY0wCEQfBtHdvGWLXLhwQX3GP/gCOGDcZDx9/UsA++rUrq1EF+KdtHmznDl7VkpERirhRlnciKwZFyc5c+ZEcRoJWEogZ/HikUPwrU8jgawkAAE7dvx4qkvAA8U+CB2yJ+DZaoOHC48UNwO1xdWoIbHVqonOxIDXu2rNGoFXDHGHmBYvXtxwoq/KCcObPm7UjesqbzlvXiXWh0z14dre4RB41WjH2oQEQf1oV+2aNSXSEGWk7EG8kZ5XqmRJesp6YPhuGYE/fi9aViUrIoEbCSCrokL58jceMPZAFOG9JhoeKeLG2tILDGw3edCRhhBrL9scdoCXrb3iPIZomw0i3rB+fakWHa2EG+KNepCCp4UaXrcOURQ2vGMYvG2zV22uk9skEAwBxpCDocdzM0SgUsWKylvdsWOHCjF4n3zkyBHJbcR0EUpIz+AVHzU8Vm15DQ9Ym3kb+3ATEV8I3gbxRQy5dOnSUgIer1EAoo6JK9pw/LLhycO04GMboozwBY0ErCRAQbaSJutKlwDCDcWMvGOEInbt3u3xRPWJ+w8ckHLlykk+k8DqY+Z3xIzNltN0c9C8jTLeN/P0eeabfvochDsQN9aWvH+/4OVtZ01lvI/xMwlklgAFObPkeF7ABJAdsde40VbDmBACQwigjOGVIg6L+PF2w2M22xkjTpueIMNDNps5k0OHGPRxHbLQn/29I65tNoQs/mTErb2NN/W8ifCzFQQoyFZQZB1+CeAnP8ILEEbz1GeEAJAFkd9IYduwcaOnDh0i8OzwsZHXzxTqK4aXazbUH6hBaPHSsWx44uY2B1oPy5FAZgjwpl5mqPGcTBEwZ0yYK0D+r1n0zNkW5nLmbXO4Afu1gGIbixaZrYApe8O8P61ts4DjS8Q7PAEv+rwpfS6terifBDJKgIKcUWIsn2kCiBn7iuci/KDDCkhRS0tAkYYGMVxnpKThHHPWhjmmbN5G6AN5xDDEh83m/VkfK1WihN5U71gUSXvtaOd6w5vfe30xpFQF+YEEgiRAQQ4SIE/PGIF169erfF59FkRx9/V1LhAqQAqaNm8veNv27fL7qlWCLAp41BBkPWPv8OHDHlHHtrYYoz6dHaFm+ukDxjtylb1j0TiMlegwwUQbzvtt2TJZs26drFi5Ui4bXwaVr09M0WX4TgJWEOBMPSsosg6/BI4b05oRI0a8GCllWNcC4gvBPWfEaBFuKGF4pZhZ550rjKU59+7b56kfWRq4yYZ0NBjORa4xbg7CINDIkoBnXN24iaiFFeGSLVu3qjLe/9Q1sj60sOtjEGpcW9er9+NGJNqpr6/3850ErCBAQbaCIuvwSwCTLCDCemIFtnX4AcIJj1d7sb4qUnFcQ7hxI8/ba9blIcwIh1wy3hHy8HfTT58TyDuEGdOz0T7Etv21M5D6WIYE/BGgIPujw2MkQAIkEEICjCGHEDYvRQIkQAL+CFCQ/dHhMRIgARIIIQEKcghh81IkQAIk4I8ABdkfHR4jARIggRASoCCHEDYvRQIkQAL+CFCQ/dHhMRIgARIIIQEKcghh81IkQAIk4I8ABdkfHR4jARIggRASoCCHEDYvRQIkQAL+CFCQ/dHhMRIgARIIIQEKcghh81IkQAIk4I8ABdkfHR4jARIggRASoCCHEDYvRQIkQAL+CFCQ/dHhMRIgARIIIQEKcghh81IkQAIk4I8ABdkfHR4jARIggRASoCCHEDYvRQIkQAL+CFCQ/dHhMRIgARIIIQEKcghh81IkQAIk4I8ABdkfHR4jARIggRASoCCHEDYvRQIkQAL+CFCQ/dHhMRIgARIIIQEKcghh81IkQAIk4I8ABdkfHR4jARIggRASoCCHEDYvRQIkQAL+CFCQ/dHhMRIgARIIIYFcIbwWL5WFBCJLlJCixYpJgQIFJHfu3BIREZGFV2PVTiFw9epVuXjxopw5c0ZSjh+Xo0eOOKXpYdlOCrLDhx1CXLZcOcmTJ4/De8LmZwUBfDHjbwOvYsYXNv5WkvftozBnBWwL6qQgWwAxu6qoULGilCpdWl2+orFdt25diY6OluLFi0uOHIxGZde42Om6V65ckWPHjsm2bdtk9erVsnv3bqlcpYr6JbXH2KbZi0BEdHTM1ajSpezVKrYmXQJmMb7rrrukQYMG6Z7DAiSwfPlymTFjhqxfv14OHjggxYoWJRQbEaCHbKPBCLQpCFNoz7hNmzYU40DBsZz6W8GvJ4gyDPcbChr3HWj2IMDftfYYhwy1AnFAGDzjZs2aZehcFiaBevXqyeDBgxWIEydPEoiNCFCQbTQYgTQF3jFu0CBmzDBFIMRYxheBLl26SJ06deTy5cty2sjAoNmDAAXZHuMQcCuQ2gbDDTwaCQRDAL+wYOfOnQumGp5rIQEKsoUwQ1EV8oxhyKagkUAwBPQvrAtGnjLNHgQoyPYYh4BbgZswMKS20UggGAIVKlRQpyNsQbMHAWZZ2GMcAm6FnoHn9DzjpKQkGTFiRKp+582bV8oZNyx79eolWixSFQjhh6+//lo2b94szz33XAivGtpL5cyZM7QX5NXSJUAPOV1ELJAVBA4dOiTTp09Xwlu7dm3BC97/+PHjpXXr1nL48OGsuGzAdUKMFy1aFHB5FiQBKwjQQ7aCIuvINIE+ffqojBFdQd++fVUq37x586Rr165qN2ab7dq1S+DRwXPWvxL0OefPn1cz0GJiYm44dvbsWdm7d69UMWan5cp17c/9woULKrsAP9VTUlKkfPnyqiqs+7B161bPZ10/3rEexI4dOyRfvnzquNN/oZj7xm37EKCHbJ+xYEsMAvqmZeHChRUPzChr1KiRIHcWmSWtWrVS4qxhvf766yrMceutt0qNGjXku+++U4cOHjwojz/+uBJwHINYz507Vx377LPPpHnz5qpOpH7NmTNHVq1apc5HWYj+999/ry8hGzdulFq1aql2oA24GbZlyxbPcW6QgFUEKMhWkWQ9mSLw6aefyrvvvitjx46VF154Qdq3b68EFmELeKWIJ1etWlXWrVsnS5culfz588uAAQPUtRDyGDlypApz7DMWzIG3/cQTT8iJEydk0KBBsmTJEpk9e7Zs2rRJTaK555575IAxXRgGT7hfv34qbAIRvvfee+W2226TxMREmTJlipparAoa/7z//vsSFxenPG2ch1j3F198oQ/znQQsI8CQhWUoWVFmCPz6668qlLBmzRo5deqUEsnnn39exZPhHUMAu3fvLtu3b1fVN27cWN566y1VdsGCBVKzZk3p3LmzOta/f3/lQSP0AA/3n//8p9SvX18dGzhwoBJRXE8bxBthkISEBBWzfvjhh6VkyZKC6ejwxBHugEVFRcmkSZNk9OjR6hiuq7NddF18JwErCFCQraDIOjJN4IMPPlAxZIhxt27dJD4+XiCsCF0kJyereidPnixTp071XKN69epyxFjXF5kaN998s2c/ZjDecsstHi8Y4Qht8LJhR48eVe+IKessgz179qh9qFcbwhILFy5UH59++mm5dOmSwJsfNWqUFCpUSMaNGyft2rXTxflOApYQYMjCEoysJFgCELkPP/xQzRrr3bu34EZe2bJlVbXDhg0TeLZ4TZs2TYYOHaqO4WYcVi/ThlAFwhnHjYXYYStXrtSHVNgCH6pVq6b2aTHGB8SXYfDStZm3sWwlbjAi9IGbjfgSQEiERgJWE6AgW02U9WWaAAQWucmLFy8WeMWxsbFKLOGVrl27VsVwIdZjxoxRIYMOHTqomC/KIk0OIQXcuIM3DG8b+yGgCHe8+eabyrM1e826oZj1CFF+++231brBs2bNkh9//FEfFuQkP/TQQ6oe5EljofcyZcp4jnODBKwiQEG2iiTrsYQAbq41bdpUrUaGlLSJEycK0tRatmypFsNB9gUEGalvWIsBEzcQC0a4ATfxcAMOoYvhw4crTxaL6CCODO8WS076muEIbxk38hDOQKiiR48e0qJFC88i/whZwFvHMVxnw4YNKnRhSYdZCQmYCHCBehMMJ2zWNWKkEKMhQ4Z4BMMJ7Q62jQhDqLV7Cxa8oSpkY0C8cUPO2/AsOSyeExkZ6X3I52d42vCAdc6yuRDagNzlEsaKe24w9EXf9KxwfUlXN/TLyX3gTT2HjR7EBx4gHsvjFmEIZAggkmkZhNqXGKM8bg7q3Oa0zjfvT6selPHXBnMdTtnWNzPN8XSntN2t7WTIwmEjC48Phmek0UggGAL6hmie6wtWBVMXz7WGAAXZGo4hqwWPcofhzj+NBIIhoB/jhOngNHsQoCDbYxwCbsVRI/8WN7nw9GDt4QR8MguSwHUCSB9E5grCFXymnn3+LCjI9hmLgFuSbEwThsHDoaccMDYWvE5gwoQJKgsFH4tcXzOEcOxBgIJsj3HIUCvgJR8yFs9BmhbWeoC3QyOBQAjgbwXrhsAKGRkr9I4DoRa6Mkx7Cx1ry6903Ej1OnX6tKoXEx6Ql4tcWaxWxjvnluN2ZIVIbUM2BcJb+EWFMAUMYlysaFFH9snNjaYgO3x08cRgPMod//FoJJAeAXxRI0xBzzg9UtlznHnI2cPdsqviPxZeEGZMgMADKynOluF1RUUQYaS2IZuCQmzvIaUg23t8Am6dFuaAT2BBEiAB2xHgTT3bDQkbRAIkEK4EKMjhOvLsNwmQgO0IUJBtNyRsEAmQQLgSYAzZJSMfaaxAVtRYgAcL6WCxHe8nM7ukm+xGBgngcVZYkAproGDaPXLYafYlQEG279gE1DIIcVlj6USsAEcjAW8C+GLG3wZeWK0OfyuY6Ulh9iZlj88UZHuMQ6ZaUaFiRSlVurQ6t6KxjUfU4+kXWIQ9Rw5GozIF1WUn4VFYWKoVqwNimj3WQKlsPE8Qv6T2GNs0exHgxBB7jUfArTGLsZ6hF/DJLBi2BPSMPTzR++CBA5ytZ7O/BHrINhuQQJqDMIX2jPHIekyXppFAIATwt4JfT3rpTfUUFsNbptmDAH/X2mMcMtQKxAFh8IybNWuWoXNZmATq1aunnlkIEph2T7MPAQqyfcYioJbAO8YNGsSM6RkHhIyFfBDAw1+xIBWm2WPaPc0eBCjI9hiHgFuB1DYYbuDRSCAYAviFBcMaKDR7EKAg22McAm6FfmAnsiloJBAMAf0LCwtS0exBgIJsj3EIuBW4CQNDahuNBIIhgHWzYVwdMBiK1p5LQbaWZ5bXpmfgZUeeMWZ7PfTQQ/LWW2+l20+kVT344INy6dKlG8rimYA4tnHjxhuO6R1YSB1lZs+erXel+f7aa6/J9OnT0zxuxYH9+/erHF4r6rJLHXyIgV1G4o92UJD/YMGtdAjMnDlTvv32Wxk6dKgcPnzYb+kjxhRdiCQmJngb9uEYHkGVluG5bygzYsSItIp49v/yyy+SlJTk+ZwVG7feeqvgS4ZGAllJgIKclXRdVvfEiROlX79+UrJkSZk6darP3u3duzdNsT5urKWwc+dOwfoK/uzUqVOCa7344ovqkUOrVq26oTi87C1btqTywLHvxIkTqcrCQz9pSu3Cl8GOHTuUt2tux9mzZ9WaDygPcU8xHo+l7bTxmCy0CfVgXQhcB+XNhuvqXwMoh+3t27ersrrcoUOHbmgzwgX6XMymM7dJn8f38CFAQQ6fsQ6qpxCXxYsXyx133CH33XefwIM1e7+YnotJKkilql69urz66que66Fc//79JSYmRm655Rbp1KmT55ivDT1poU+fPlKzZk355JNPUhX79NNPpWzZsgKvFce3bt2qjmNqcNWqVSUxMdFT/sMPP5T69eurOCk83EaNGgnycJGl0qpVK9m1a5cq+9hjj0n37t1VGxs3bqymoKOPMPQZ9sgjj8i7774rH330kbRu3Vrtwz/IUsB1ly5dqvZVMaYmo4+4brt27dTUZTCrUaOGajM4LFq0SJVFm3Au0tBwkw2/PmjhS4CCHL5jn6GeT5kyRcoZE1IgVl27dlVephYVVDRo0CC1otiSJUsEIQTEm7V99tlnMmnSJPn6669l06ZN6iGs+piv988//1yJfkHjQZwPPPCA8pbhXcMgYAMHDpSXX35ZeaCPPvqoxyOHoEHsvvnmG0+1qAt14EsBT+iG+K1bt06JZ/78+WXAgAGesj///LNAwPFQ0N69e8uzzz6rhHzhwoWqDPrw1FNPqW3tDXtO9to4aDwVfNasWTJmzBgZPny4rFy5UubNm6e8b/Dr0aNHKi88MjJSle/Zs6dXTfwYTgQoyOE02pnsK8Tn448/Vl4ffo7j7jyET3uQ+Jk9d+5c6datm8TGxkpcXJzce++9nqtB6Fq0aCHNmzeXUqVKqbCH56DXxubNm+W3336T9u3bK8Fq2bKlKvHVV1+pd+2F9u3bV4oUKZKqLtzwvP/++5X4Q4ATEhKUt4x2IQwBTxpfKPD2IZjYnj9/vgpHoHJ4wm3bthUI9V//+ld1PfMXi9oR4D9oR8OGDdUvhvj4eLnttttUyANfSE2bNlXXXLFihac2eOgoX6lSJc8+boQfAa5lEX5jnuEeL1iwQHmh7733nuClDQK3z1jKEQ/PRIwVP8m13XzzzXpTedMQZG21a9fWmze8f/nll2ofvFqzffDBByrrAvFfhCny5s2rDmPWIkIX2vDTH97zsmXLZM6cOepYtWrV1BcGykyePDlV/BvhFdyAhEVFRal3/ANRhpnDMmqHj398lcGvCRi+wMAGvxrMWSW4rlnsEYKhkQA9ZP4NpEsAP9UhsBs2bPC84MXCcAw/twsVKiTmm2/wTrXBY9blsc8sTLoM3nHDDDfzEIYwX2v8+PHKu/3111+VB46wBYROn4PP2iCq8K4RtkDbEBqAacEbNmyYoB68pk2bpmK2+piuI733XLlypbqph5Q4b9MpZYULF1ZsEJ/W10Xo4qWXXlIeuj4vO9IY9bX5bh8CFGT7jIUtW4L0NqSf/eMf/5AyZcp4XvA64Y1CLCGkCAvA+4ToIIcYsVttEEj8PEdmBm6ivf322/pQqneENnA9iJf5Wpjii8wO3NzDT3/Yv//9b0lOTpZ33nnHE3LQleF8tAt13XnnnWo3QikIs4waNUq1D9kgiBMjxqsn2+jzfb3jCwf9Qp0QcPwy+PHHH1UbXn/9dV+nePYhZowbgfDYcfNzyJAhgpALjQS8CVCQvYnwcyoCEGOYXvfAfBDCB4H66aeflKeJm2ooh7gvbp7BENft3Lmz/Otf/5JnnnlGedo6ZQzHzPbFF1+ocAQ8arPBI8XNLtwUhMcJ4Uc+dK1atZQXjJ//Zg/z9ttvV14pMhsQZ4ZBdOF9I2UN7UM2COqCIKMd+mW+rnkbWRNvvPGGyotGNgnizfiSQhu0F2zuj7k9SN9DbBrtwRcZ4uCIv+NLRnvS5vLm63I7vAhwgXqHjXddI20M//HhZdnxPzFCCRAZveaGGS88aeTcljBWrAvWcCMRN+ZKG09MMQthIPUiY0OtA2xkcWTE0Hb0C18QsIzWg/Q45DRb0f+MtDutssiBRmoerML1mHdaZbk/NAR4Uy80nC27CkQNN7Lw09cu/7HNnYO3mJZBBK1qM0QYYY3MGJ4tlxnT3rY+N6P14OYnXnYxpPfBtJdul3aFczsYsnDY6Os785jVRSOBYAjgcU6wPMYXJc0eBCjI9hiHgFuBR7nDMCuNRgLBENAzIu3ktQfTHzecS0F22Cji8e24MYWnB2sPx2FdYHNtQAApf8gaQbiiIJ+pZ4MRudYECrJthiLwhiQbKVcweDj0lAPnxpLXCCDDA9O5YUX8xPyvlea/oSRAQQ4lbYuuBS/5kJFhgOUrsT4DvB0aCQRCAH8rY8eOVUULGVkm9I4DoRa6Mkx7Cx1ry6903Fgi8pSRRgVDXi1ygJELjLUmeOfcctyOrBCpbcimQHgLv6gQpoBBjIsVLerIPrm50RRkh48unhiMR7nzMTwOH8gQNR9f1AhT0DMOEfAMXoZ5yBkEZrfi+I+FF4QZEw/wwEqKs91GKXvbAxFGahuyKSjE2TsW6V2dgpweIYcc18LskOaymSRAAj4I8KaeDyjcRQIkQALZQYCCnB3UeU0SIAES8EGAguwDCneRAAmQQHYQoCBnB3VekwRIgAR8EKAg+4DCXSRAAiSQHQQoyNlBndckARIgAR8EKMg+oHAXCZAACWQHAQpydlDnNUmABEjABwEKsg8o3EUCJEAC2UEgh/FoMhoJkAAJkIANCNBDtsEgsAkkQAIkAAIUZP4dkAAJkIBNCFCQbTIQbAYJkAAJUJD5N0ACJEACNiFAQbbJQLAZJEACJPD/UUiPTQg4pAEAAAAASUVORK5CYII=;" vertex="1" parent="1">
          <mxGeometry x="1160" y="143" width="356" height="884" as="geometry" />
        </mxCell>
        <mxCell id="lP1FfKmS7V5iOzCVWeoo-6" value="" style="endArrow=classic;html=1;rounded=0;entryX=0;entryY=0.5;entryDx=0;entryDy=0;strokeWidth=6;" edge="1" parent="1" source="lP1FfKmS7V5iOzCVWeoo-2" target="lP1FfKmS7V5iOzCVWeoo-4">
          <mxGeometry width="50" height="50" relative="1" as="geometry">
            <mxPoint x="660" y="490" as="sourcePoint" />
            <mxPoint x="710" y="440" as="targetPoint" />
          </mxGeometry>
        </mxCell>
        <mxCell id="lP1FfKmS7V5iOzCVWeoo-7" value="" style="endArrow=classic;html=1;rounded=0;entryX=-0.005;entryY=0.428;entryDx=0;entryDy=0;entryPerimeter=0;exitX=1.006;exitY=0.488;exitDx=0;exitDy=0;exitPerimeter=0;strokeWidth=6;" edge="1" parent="1" source="lP1FfKmS7V5iOzCVWeoo-4" target="lP1FfKmS7V5iOzCVWeoo-5">
          <mxGeometry width="50" height="50" relative="1" as="geometry">
            <mxPoint x="620" y="590" as="sourcePoint" />
            <mxPoint x="670" y="540" as="targetPoint" />
          </mxGeometry>
        </mxCell>
      </root>
    </mxGraphModel>
  </diagram>
</mxfile>
